<svg width="25" height="92" viewBox="0 0 25 92" fill="none" xmlns="http://www.w3.org/2000/svg">
<rect x="0.993927" y="0.999982" width="8" height="68" rx="4" transform="matrix(1 0 -0.00607292 0.999982 7.19882 21.4857)" fill="#815137" stroke="#3B372F" stroke-width="2" stroke-linejoin="round"/>
<path d="M12.2498 1.96422C18.2789 1.96422 23.1487 6.88321 23.1134 12.964C23.078 19.0449 18.1508 23.9638 12.1216 23.9638C6.09263 23.9636 1.2235 19.0448 1.25894 12.964C1.29449 6.88335 6.22089 1.96444 12.2498 1.96422Z" fill="#1394C3" stroke="#0A5E7D" stroke-width="2"/>
<circle cx="11.0369" cy="11.8386" r="9.68476" fill="#17B9F4"/>
<path d="M12.2498 1.96422C18.2789 1.96422 23.1487 6.88321 23.1134 12.964C23.078 19.0449 18.1508 23.9638 12.1216 23.9638C6.09263 23.9636 1.2235 19.0448 1.25894 12.964C1.29449 6.88335 6.22089 1.96444 12.2498 1.96422Z" stroke="#0A5E7D" stroke-width="2"/>
<rect x="0.993927" y="0.999982" width="18" height="6" rx="3" transform="matrix(1 0 -0.00607292 0.999982 2.21646 19.2938)" fill="#815137" stroke="#3B372F" stroke-width="2" stroke-linejoin="round"/>
</svg>
