<svg width="208" height="206" viewBox="0 0 208 206" fill="none" xmlns="http://www.w3.org/2000/svg">
<path d="M122.696 13.7242C97.5823 36.1319 81.3748 -23.6971 67.8515 18.4936C57.2643 51.524 19.0172 13.7242 25.7789 51.1454C33.2107 92.2757 -12.257 70.5898 10.3773 97.3717C34.3947 125.79 -18.1721 138.829 20.8954 146.9C54.9398 153.933 10.3773 197.895 50.196 178.818C83.9651 162.639 72.3594 224.31 97.5278 194.96C122.696 165.61 146.362 214.772 148.992 184.321C151.82 151.567 195.196 181.386 183.551 153.137C173.161 127.932 220.365 142.13 197.826 110.212C179.707 84.5534 225.999 73.5248 189.186 63.2523C158.383 54.6569 198.577 24.2582 166.271 32.0679C130.585 40.695 153.124 -13.4246 122.696 13.7242Z" fill="#649D4A"/>
<path d="M68.4152 16.2786L65.5079 15.5387L68.4152 16.2786ZM68.6971 15.1711L65.7898 14.4312L68.6971 15.1711ZM69.8038 13.2113L67.6478 11.1251L69.8038 13.2113ZM71.4534 11.5064L73.6093 13.5925L71.4534 11.5064ZM72.7528 9.68267L75.4483 10.9996L72.7528 9.68267ZM73.702 7.74L71.0065 6.42303L73.702 7.74ZM78.0539 3.21944L77.8599 6.21316L78.0539 3.21944ZM82.5299 3.76848L81.6511 6.6369L82.5299 3.76848ZM84.6746 4.42549L85.5533 1.55706L84.6746 4.42549ZM86.4694 5.67903L88.8337 3.83239L86.4694 5.67903ZM87.9145 7.52912L85.5502 9.37576L87.9145 7.52912ZM89.5314 9.12518L87.7311 11.525L89.5314 9.12518ZM91.3204 10.4672L93.1207 8.06744L91.3204 10.4672ZM97.6159 13.3462L99.511 11.0206L97.6159 13.3462ZM98.4887 14.0575L96.5937 16.3831L98.4887 14.0575ZM99.3616 14.7687L101.257 12.443L99.3616 14.7687ZM101.098 16.3259L103.197 14.1826L101.098 16.3259ZM102.826 18.0178L104.925 15.8745L102.826 18.0178ZM104.917 18.7551L105.181 21.7434L104.917 18.7551ZM107.372 18.5378L107.636 21.5262L107.372 18.5378ZM109.694 18.4336L109.682 21.4336L109.694 18.4336ZM110.789 18.4381L110.801 15.4381L110.789 18.4381ZM111.884 18.4425L111.896 15.4425L111.884 18.4425ZM113.95 17.9611L112.609 15.2778L113.95 17.9611ZM115.894 16.9894L117.235 19.6728L115.894 16.9894ZM121.8 14.0692L120.04 11.64L121.8 14.0692ZM123.657 12.7235L125.418 15.1527L123.657 12.7235ZM125.454 11.3442L123.561 9.01689L125.454 11.3442ZM126.323 10.6377L124.43 8.31044L126.323 10.6377ZM127.191 9.9313L129.084 12.2586L127.191 9.9313ZM130.03 8.15297L128.596 5.51785L130.03 8.15297ZM131.014 7.61702L132.448 10.2521L131.014 7.61702ZM133.099 6.66375L132.034 3.85897L133.099 6.66375ZM135.298 5.82911L134.233 3.02433L135.298 5.82911ZM137.26 6.21782L139.308 4.0258L137.26 6.21782ZM138.123 7.02384L140.171 4.83182L138.123 7.02384ZM138.985 7.82986L136.937 10.0219L138.985 7.82986ZM140.572 9.57949L138.192 11.4061L140.572 9.57949ZM142.021 11.4667L144.401 9.6401L142.021 11.4667ZM143.112 13.4837L145.951 12.5143L143.112 13.4837ZM143.478 14.557L140.639 15.5264L143.478 14.557ZM143.844 15.6304L141.005 16.5997L143.844 15.6304ZM144.241 17.8663L141.242 17.944L144.241 17.8663ZM144.271 19.0289L141.272 19.1066L144.271 19.0289ZM144.301 20.1915L147.3 20.1138L144.301 20.1915ZM144.65 22.4551L147.532 21.6206L144.65 22.4551ZM144.969 23.556L142.088 24.3905L144.969 23.556ZM145.288 24.657L148.17 23.8225L145.288 24.657ZM146.377 26.6081L148.6 24.5931L146.377 26.6081ZM147.148 27.4582L144.925 29.4731L147.148 27.4582ZM147.919 28.3083L150.141 26.2934L147.919 28.3083ZM149.541 29.9541L151.589 27.7626L149.541 29.9541ZM151.243 31.5456L153.292 29.3541L151.243 31.5456ZM153.219 32.7145L154.164 29.867L153.219 32.7145ZM155.47 33.4609L154.525 36.3084L155.47 33.4609ZM157.716 33.2444L156.319 30.5894L157.716 33.2444ZM159.958 32.0651L161.354 34.7202L159.958 32.0651ZM162.158 31.3753L161.88 28.3882L162.158 31.3753ZM163.237 31.2752L163.514 34.2624L163.237 31.2752ZM164.316 31.1751L164.038 28.1879L164.316 31.1751ZM166.53 30.8406L165.924 27.9026L166.53 30.8406ZM168.801 30.372L169.407 33.3101L168.801 30.372ZM171.1 30.4619L171.905 27.5718L171.1 30.4619ZM173.429 31.1102L172.624 34.0003L173.429 31.1102ZM175.69 31.5277L175.435 34.5169L175.69 31.5277ZM177.883 31.7143L178.137 28.7252L177.883 31.7143ZM179.415 32.9634L176.609 34.0227L179.415 32.9634ZM179.852 34.1192L182.658 33.06L179.852 34.1192ZM180.288 35.275L183.095 34.2157L180.288 35.275ZM180.21 37.488L182.909 38.7992L180.21 37.488ZM179.183 39.6024L181.881 40.9136L179.183 39.6024ZM178.518 44.0818L175.521 43.9496L178.518 44.0818ZM178.131 46.2786L180.989 47.1905L178.131 46.2786ZM177.794 47.3348L174.936 46.4229L177.794 47.3348ZM177.457 48.3909L174.599 47.479L177.457 48.3909ZM177.293 50.5123L180.254 50.0316L177.293 50.5123ZM177.466 51.5776L174.505 52.0583L177.466 51.5776ZM177.639 52.6429L180.6 52.1621L177.639 52.6429ZM178.254 54.6847L180.987 53.4462L178.254 54.6847ZM179.139 56.6377L176.407 57.8762L179.139 56.6377ZM180.55 58.099L181.893 55.4166L180.55 58.099ZM181.518 58.5837L180.174 61.2661L181.518 58.5837ZM182.486 59.0684L183.829 56.386L182.486 59.0684ZM184.375 60.12L182.804 62.6754L184.375 60.12ZM185.297 60.6868L183.725 63.2422L185.297 60.6868ZM186.218 61.2536L187.79 58.6982L186.218 61.2536ZM188.165 62.35L186.788 65.0152L188.165 62.35ZM190.215 63.4091L191.592 60.7438L190.215 63.4091ZM192.364 64.1261L192.858 61.167L192.364 64.1261ZM194.613 64.5012L194.12 67.4603L194.613 64.5012ZM196.632 65.4228L194.729 67.7419L196.632 65.4228ZM198.421 66.891L200.324 64.572L198.421 66.891ZM200.34 68.1768L201.763 65.5358L200.34 68.1768ZM202.388 69.2803L200.965 71.9213L202.388 69.2803ZM203.827 71.0592L206.669 70.0984L203.827 71.0592ZM204.657 73.5137L201.815 74.4746L204.657 73.5137ZM204.591 75.8729L207.353 77.0445L204.591 75.8729ZM203.631 78.1367L200.869 76.9651L203.631 78.1367ZM202.205 80.0175L204.066 82.3699L202.205 80.0175ZM200.312 81.5154L198.45 79.163L200.312 81.5154ZM198.673 83.1646L196.295 81.3357L198.673 83.1646ZM197.981 84.0649L195.603 82.2361L197.981 84.0649ZM197.289 84.9652L199.667 86.7941L197.289 84.9652ZM196.095 86.8952L193.398 85.5811L196.095 86.8952ZM195.091 88.9544L197.788 90.2684L195.091 88.9544ZM194.618 91.1575L191.619 91.2294L194.618 91.1575ZM194.646 92.3309L191.647 92.4028L194.646 92.3309ZM194.674 93.5043L197.673 93.4324L194.674 93.5043ZM194.382 95.7528L191.507 94.8967L194.382 95.7528ZM193.742 97.9028L190.867 97.0468L193.742 97.9028ZM193.592 100.097L190.627 100.549L193.592 100.097ZM193.933 102.337L190.968 102.788L193.933 102.337ZM194.503 104.523L191.693 105.574L194.503 104.523ZM194.902 105.589L197.712 104.538L194.902 105.589ZM195.301 106.656L192.491 107.707L195.301 106.656ZM196.703 108.433L194.968 110.881L196.703 108.433ZM197.706 109.144L199.441 106.696L197.706 109.144ZM198.71 109.855L200.444 107.407L198.71 109.855ZM200.251 111.58L197.601 112.986L200.251 111.58ZM201.327 113.609L203.977 112.204L201.327 113.609ZM202.057 115.791L199.097 116.279L202.057 115.791ZM202.442 118.127L205.402 117.64L202.442 118.127ZM202.937 120.356L205.822 119.533L202.937 120.356ZM203.542 122.478L206.427 121.655L203.542 122.478ZM203.588 124.581L200.675 123.862L203.588 124.581ZM203.33 125.623L206.243 126.342L203.33 125.623ZM203.073 126.665L205.985 127.384L203.073 126.665ZM202.126 128.515L204.407 130.463L202.126 128.515ZM200.746 130.13L198.465 128.182L200.746 130.13ZM199.209 131.703L197.198 129.476L199.209 131.703ZM197.515 133.232L199.525 135.459L197.515 133.232ZM195.571 134.313L194.741 131.43L195.571 134.313ZM193.377 134.944L192.548 132.061L193.377 134.944ZM191.475 136.13L193.677 138.167L191.475 136.13ZM189.865 137.871L187.663 135.833L189.865 137.871ZM188.012 139.124L186.98 136.307L188.012 139.124ZM186.964 139.508L187.996 142.325L186.964 139.508ZM185.917 139.891L184.886 137.074L185.917 139.891ZM183.165 143.057L185.723 144.624L183.165 143.057ZM182.209 145.121L179.369 144.153L182.209 145.121ZM181.821 146.259L184.661 147.227L181.821 146.259ZM181.433 147.396L178.594 146.428L181.433 147.396ZM181.581 149.592L178.903 150.945L181.581 149.592ZM182.651 151.71L185.328 150.356L182.651 151.71ZM183.84 153.763L181.334 155.411L183.84 153.763ZM185.148 155.752L187.655 154.104L185.148 155.752ZM185.545 157.9L188.473 158.554L185.545 157.9ZM185.288 159.053L182.36 158.4L185.288 159.053ZM185.03 160.207L182.102 159.553L185.03 160.207ZM184.679 162.638L187.671 162.856L184.679 162.638ZM184.586 163.916L181.594 163.697L184.586 163.916ZM184.493 165.194L187.485 165.412L184.493 165.194ZM183.167 166.784L183.904 169.692L183.167 166.784ZM180.701 167.408L179.964 164.5L180.701 167.408ZM178.302 167.265L179.393 164.471L178.302 167.265ZM177.135 166.81L176.044 169.604L177.135 166.81ZM175.968 166.354L177.059 163.56L175.968 166.354ZM173.691 166.524L172.218 163.911L173.691 166.524ZM171.471 167.776L172.944 170.39L171.471 167.776ZM169.222 168.066L170.072 165.189L169.222 168.066ZM166.944 167.393L166.094 170.27L166.944 167.393ZM164.788 167.652L163.272 165.062L164.788 167.652ZM163.771 168.247L165.286 170.836L163.771 168.247ZM162.754 168.842L161.238 166.253L162.754 168.842ZM160.468 169.235L160.94 166.272L160.468 169.235ZM159.198 169.032L158.726 171.995L159.198 169.032ZM157.929 168.83L157.457 171.792L157.929 168.83ZM156.092 169.732L158.759 171.105L156.092 169.732ZM154.954 171.943L157.621 173.315L154.954 171.943ZM153.637 173.824L151.477 171.741L153.637 173.824ZM152.139 175.376L149.98 173.294L152.139 175.376ZM150.806 177.14L153.387 178.669L150.806 177.14ZM149.636 179.116L152.217 180.645L149.636 179.116ZM148.673 181.231L145.829 180.278L148.673 181.231ZM147.918 183.485L145.073 182.532L147.918 183.485ZM147.895 185.793L145.022 186.656L147.895 185.793ZM148.604 188.156L151.478 187.293L148.604 188.156ZM148.578 190.535L145.719 189.626L148.578 190.535ZM147.817 192.931L150.676 193.84L147.817 192.931ZM146.126 194.582L145.146 191.747L146.126 194.582ZM143.505 195.488L144.486 198.323L143.505 195.488ZM141.16 195.292L142.752 192.75L141.16 195.292ZM139.088 193.995L137.496 196.538L139.088 193.995ZM137.125 192.695L138.848 190.24L137.125 192.695ZM135.268 191.393L133.545 193.849L135.268 191.393ZM133.184 190.531L132.647 193.483L133.184 190.531ZM130.871 190.111L131.408 187.159L130.871 190.111ZM128.727 189.384L130.116 186.725L128.727 189.384ZM127.738 188.868L126.349 191.527L127.738 188.868ZM126.75 188.352L128.139 185.693L126.75 188.352ZM123.805 186.554L125.449 184.044L123.805 186.554ZM122.827 185.913L121.183 188.422L122.827 185.913ZM120.699 185.216L120.553 188.212L120.699 185.216ZM119.55 185.16L119.696 182.163L119.55 185.16ZM116.112 185.051L116.103 182.051L116.112 185.051ZM113.835 185.057L113.843 188.057L113.835 185.057ZM111.622 185.433L110.639 182.599L111.622 185.433ZM109.474 186.178L110.458 189.013L109.474 186.178ZM107.587 187.361L109.704 189.487L107.587 187.361ZM105.959 188.983L108.077 191.108L105.959 188.983ZM103.908 190.011L104.428 192.966L103.908 190.011ZM101.433 190.447L100.912 187.492L101.433 190.447ZM99.5015 191.599L97.0924 189.811L99.5015 191.599ZM98.1149 193.468L100.524 195.255L98.1149 193.468ZM96.4469 196.629L99.1953 197.832L96.4469 196.629ZM95.9595 197.743L93.2111 196.541L95.9595 197.743ZM94.3583 199.284L95.4323 202.085L94.3583 199.284ZM93.2443 199.711L92.1703 196.91L93.2443 199.711ZM92.1304 200.138L91.0564 197.337L92.1304 200.138ZM90.0163 200.813L90.7369 203.725L90.0163 200.813ZM89.0162 201.06L89.7368 203.973L89.0162 201.06ZM88.0161 201.308L87.2954 198.396L88.0161 201.308ZM85.905 201.77L86.4741 204.716L85.905 201.77ZM83.683 202.199L83.1139 199.254L83.683 202.199ZM81.9469 201.414L84.4905 199.824L81.9469 201.414ZM81.3218 200.415L83.8654 198.824L81.3218 200.415ZM80.6967 199.415L78.1531 201.006L80.6967 199.415ZM79.4921 197.44L82.0714 195.908L79.4921 197.44ZM78.9127 196.465L81.492 194.933L78.9127 196.465ZM78.3333 195.49L80.9126 193.957L78.3333 195.49ZM77.2922 193.486L80.0289 192.257L77.2922 193.486ZM76.3688 191.43L73.6321 192.659L76.3688 191.43ZM75.5316 189.333L72.7013 190.328L75.5316 189.333ZM74.7805 187.197L71.9503 188.192L74.7805 187.197ZM73.7199 185.236L76.0999 183.409L73.7199 185.236ZM73.0347 184.343L70.6546 186.169L73.0347 184.343ZM72.3495 183.45L74.7296 181.623L72.3495 183.45ZM71.1716 181.436L68.4254 182.644L71.1716 181.436ZM70.679 180.316L73.4253 179.108L70.679 180.316ZM70.1864 179.195L67.4402 180.403L70.1864 179.195ZM68.4101 178.057L68.4532 175.057L68.4101 178.057ZM65.8429 178.02L65.7998 181.02L65.8429 178.02ZM63.5654 177.448L65.0243 174.827L63.5654 177.448ZM61.5778 176.342L60.1189 178.964L61.5778 176.342ZM59.4716 176.016L58.8716 173.077L59.4716 176.016ZM57.247 176.47L57.847 179.41L57.247 176.47ZM55.0923 177.075L56.1152 179.896L55.0923 177.075ZM53.0076 177.832L51.9848 175.011L53.0076 177.832ZM50.9894 178.848L49.3479 176.336L50.9894 178.848ZM49.0378 180.123L50.6793 182.634L49.0378 180.123ZM47.0429 181.239L48.3155 183.955L47.0429 181.239ZM46.0239 181.716L44.7513 178.999L46.0239 181.716ZM45.0049 182.193L43.7323 179.477L45.0049 182.193ZM42.7558 182.538L42.4339 185.521L42.7558 182.538ZM40.2958 182.272L40.6177 179.29L40.2958 182.272ZM37.9749 182.639L39.224 185.367L37.9749 182.639ZM34.4843 183.106L37.4193 182.485L34.4843 183.106ZM34.0478 181.044L31.1128 181.665L34.0478 181.044ZM33.8548 178.97L30.8557 178.898L33.8548 178.97ZM33.9052 176.886L36.9043 176.959L33.9052 176.886ZM33.6722 174.652L36.6042 174.017L33.6722 174.652ZM33.1557 172.267L36.0877 171.632L33.1557 172.267ZM33.4137 170.021L30.7197 168.701L33.4137 170.021ZM34.4462 167.914L37.1403 169.234L34.4462 167.914ZM35.1498 165.721L38.1101 166.207L35.1498 165.721ZM35.5245 163.442L32.5642 162.955L35.5245 163.442ZM35.2621 161.209L38.0367 160.068L35.2621 161.209ZM34.8123 160.115L32.0377 161.256L34.8123 160.115ZM34.3625 159.021L37.1371 157.88L34.3625 159.021ZM33.5338 156.903L36.3476 155.862L33.5338 156.903ZM32.776 154.853L29.9622 155.894L32.776 154.853ZM31.6662 153.004L29.4209 154.993L31.6662 153.004ZM30.2046 151.354L32.4499 149.365L30.2046 151.354ZM28.5368 149.896L26.8568 152.382L28.5368 149.896ZM26.663 148.63L28.3429 146.144L26.663 148.63ZM24.6523 147.582L25.7321 144.783L24.6523 147.582ZM22.5047 146.753L21.4249 149.552L22.5047 146.753ZM20.2332 146.442L19.9776 143.453L20.2332 146.442ZM19.0355 146.544L18.7799 143.555L19.0355 146.544ZM17.8378 146.647L18.0934 149.636L17.8378 146.647ZM15.6655 146.097L13.9973 148.59L15.6655 146.097ZM14.691 145.445L13.0227 147.938L14.691 145.445ZM13.7164 144.793L12.0482 147.286L13.7164 144.793ZM11.8565 143.534L10.1609 146.009L11.8565 143.534ZM10.0858 142.321L8.39022 144.796L10.0858 142.321ZM8.19639 141.094L9.77284 138.542L8.19639 141.094ZM6.18827 139.854L4.61183 142.406L6.18827 139.854ZM5.81736 138.217L8.36377 139.804L5.81736 138.217ZM7.08365 136.185L4.53724 134.598L7.08365 136.185ZM7.92593 133.993L4.97231 133.467L7.92593 133.993ZM8.3442 131.642L11.2978 132.167L8.3442 131.642ZM9.3477 129.643L7.18824 127.56L9.3477 129.643ZM12.5504 126.332L14.6966 128.428L12.5504 126.332ZM14.1896 124.654L12.0435 122.558L14.1896 124.654ZM15.0814 122.61L12.0868 122.431L15.0814 122.61ZM16.2809 115.83L13.416 114.94L16.2809 115.83ZM16.5636 113.672L19.5611 113.55L16.5636 113.672ZM16.4735 111.466L13.476 111.589L16.4735 111.466ZM16.0177 109.349L18.7983 108.223L16.0177 109.349ZM15.607 108.335L12.8265 109.462L15.607 108.335ZM15.1963 107.321L17.9769 106.195L15.1963 107.321ZM14.5977 105.163L11.6373 105.649L14.5977 105.163ZM14.4098 104.018L17.3701 103.532L14.4098 104.018ZM14.2219 102.874L17.1822 102.388L14.2219 102.874ZM13.1093 101.018L11.28 103.395L13.1093 101.018ZM11.2599 99.5949L13.0892 97.2172L11.2599 99.5949ZM8.7226 97.2343L6.57762 99.3317L8.7226 97.2343ZM7.91628 96.4097L10.0613 94.3123L7.91628 96.4097ZM6.95086 94.3343L3.97484 94.7129L6.95086 94.3343ZM6.79175 93.0835L9.76777 92.7049L6.79175 93.0835ZM6.63265 91.8327L3.65663 92.2113L6.63265 91.8327ZM5.7379 89.6688L3.40174 91.5509L5.7379 89.6688ZM4.26661 87.8426L6.60278 85.9605L4.26661 87.8426ZM3.99195 85.844L6.75327 87.0166L3.99195 85.844ZM4.9139 83.673L2.15257 82.5003L4.9139 83.673ZM6.36938 81.9933L7.90801 84.5687L6.36938 81.9933ZM8.35839 80.805L6.81976 78.2296L8.35839 80.805ZM15.0198 79.2624L12.6431 77.4318L15.0198 79.2624ZM15.7825 78.2722L18.1592 80.1028L15.7825 78.2722ZM16.5452 77.282L14.1685 75.4513L16.5452 77.282ZM18.1766 75.6603L19.9405 78.087L18.1766 75.6603ZM19.9139 74.3975L18.1501 71.9709L19.9139 74.3975ZM21.2956 72.8435L23.9176 74.3013L21.2956 72.8435ZM21.8087 71.9208L24.4306 73.3786L21.8087 71.9208ZM22.3217 70.9981L19.6998 69.5402L22.3217 70.9981ZM23.7241 69.2533L21.6876 67.0504L23.7241 69.2533ZM24.6134 68.4311L26.6499 70.634L24.6134 68.4311ZM25.5027 67.609L27.5392 69.8119L25.5027 67.609ZM26.6552 65.6594L29.5767 66.3413L26.6552 65.6594ZM26.9184 64.5319L23.9969 63.85L26.9184 64.5319ZM26.867 61.1484L29.5375 59.7815L26.867 61.1484ZM26.2893 60.0198L23.6188 61.3867L26.2893 60.0198ZM25.7116 58.8912L23.0411 60.2581L25.7116 58.8912ZM25.3502 56.6366L22.4041 56.0707L25.3502 56.6366ZM25.5665 55.5107L22.6204 54.9447L25.5665 55.5107ZM25.7828 54.3848L28.7289 54.9507L25.7828 54.3848ZM26.0099 52.0976L23.0101 52.0696L26.0099 52.0976ZM26.0316 49.7753L29.0315 49.8034L26.0316 49.7753ZM25.6686 47.5213L22.8301 48.4924L25.6686 47.5213ZM24.9499 43.1649L22.1398 42.1144L24.9499 43.1649ZM25.3528 42.087L28.1629 43.1374L25.3528 42.087ZM26.2836 38.773L29.2663 39.095L26.2836 38.773ZM26.5338 36.4563L23.5511 36.1343L26.5338 36.4563ZM27.672 34.6059L25.98 32.1286L27.672 34.6059ZM28.6853 33.9139L30.3773 36.3912L28.6853 33.9139ZM29.6985 33.2218L28.0064 30.7445L29.6985 33.2218ZM34.2543 33.6431L35.1537 30.7811L34.2543 33.6431ZM36.5582 33.7982L37.1248 36.7442L36.5582 33.7982ZM38.8042 33.3662L39.3708 36.3122L38.8042 33.3662ZM41.0392 33.4871L41.9091 30.616L41.0392 33.4871ZM42.1511 33.824L41.2812 36.6951L42.1511 33.824ZM43.263 34.1609L42.3931 37.032L43.263 34.1609ZM45.518 34.3787L45.8289 37.3626L45.518 34.3787ZM47.8043 34.1405L47.4934 31.1567L47.8043 34.1405ZM50.0379 33.6506L49.0721 30.8103L50.0379 33.6506ZM52.219 32.909L53.1848 35.7493L52.219 32.909ZM54.5506 32.6175L54.7419 29.6236L54.5506 32.6175ZM55.7917 32.6968L55.6003 35.6907L55.7917 32.6968ZM57.0327 32.7761L57.224 29.7822L57.0327 32.7761ZM58.9494 31.7905L61.4826 33.3977L58.9494 31.7905ZM59.625 30.7257L57.0918 29.1185L59.625 30.7257ZM60.3006 29.6609L62.8337 31.268L60.3006 29.6609ZM61.7238 27.8104L59.5506 25.7422L61.7238 27.8104ZM62.4715 27.0248L64.6447 29.0929L62.4715 27.0248ZM64.8053 24.6304L66.9069 26.7712L64.8053 24.6304ZM66.4824 22.9841L64.3808 20.8432L66.4824 22.9841ZM67.1652 21.1517L64.2003 21.609L67.1652 21.1517ZM66.8539 19.1332L69.8189 18.6759L66.8539 19.1332ZM66.9866 18.2163L67.9023 15.3595L66.9866 18.2163ZM67.5632 18.4011L66.6475 21.258L67.5632 18.4011ZM68.4152 16.2786L71.3226 17.0186L71.6044 15.9111L68.6971 15.1711L65.7898 14.4312L65.5079 15.5387L68.4152 16.2786ZM68.6971 15.1711L71.6044 15.9111C71.6584 15.699 71.7589 15.5049 71.9597 15.2974L69.8038 13.2113L67.6478 11.1251C66.7489 12.0542 66.1116 13.1667 65.7898 14.4312L68.6971 15.1711ZM69.8038 13.2113L71.9597 15.2974L72.7845 14.445L70.6286 12.3588L68.4726 10.2727L67.6478 11.1251L69.8038 13.2113ZM70.6286 12.3588L72.7845 14.445L73.6093 13.5925L71.4534 11.5064L69.2975 9.4203L68.4726 10.2727L70.6286 12.3588ZM71.4534 11.5064L73.6093 13.5925C74.3572 12.8197 74.9808 11.9564 75.4483 10.9996L72.7528 9.68267L70.0573 8.3657C69.892 8.70401 69.6494 9.0566 69.2975 9.4203L71.4534 11.5064ZM72.7528 9.68267L75.4483 10.9996L75.9228 10.0283L73.2274 8.71133L70.5319 7.39437L70.0573 8.3657L72.7528 9.68267ZM73.2274 8.71133L75.9228 10.0283L76.3974 9.05697L73.702 7.74L71.0065 6.42303L70.5319 7.39437L73.2274 8.71133ZM73.702 7.74L76.3974 9.05697C76.6246 8.59204 76.9079 8.13099 77.254 7.67385L74.8622 5.86298L72.4704 4.05211C71.9023 4.80255 71.4121 5.59285 71.0065 6.42303L73.702 7.74ZM74.8622 5.86298L77.254 7.67385L77.9397 6.76816L75.5479 4.9573L73.1561 3.14643L72.4704 4.05211L74.8622 5.86298ZM75.5479 4.9573L77.9397 6.76816L78.6255 5.86248L76.2336 4.05161L73.8418 2.24074L73.1561 3.14643L75.5479 4.9573ZM76.2336 4.05161L78.6255 5.86248C78.5953 5.90227 78.485 6.02488 78.2789 6.11912C78.0729 6.21331 77.9086 6.21631 77.8599 6.21316L78.0539 3.21944L78.2479 0.225717C76.4866 0.111597 74.908 0.832484 73.8418 2.24074L76.2336 4.05161ZM78.0539 3.21944L77.8599 6.21316L78.9944 6.28667L79.1884 3.29295L79.3824 0.299229L78.2479 0.225717L78.0539 3.21944ZM79.1884 3.29295L78.9944 6.28667L80.129 6.36018L80.323 3.36646L80.5169 0.37274L79.3824 0.299229L79.1884 3.29295ZM80.323 3.36646L80.129 6.36018C80.6562 6.39435 81.1619 6.48703 81.6511 6.6369L82.5299 3.76848L83.4086 0.900053C82.468 0.611921 81.5024 0.436594 80.5169 0.37274L80.323 3.36646ZM82.5299 3.76848L81.6511 6.6369L82.7235 6.96541L83.6022 4.09698L84.4809 1.22856L83.4086 0.900053L82.5299 3.76848ZM83.6022 4.09698L82.7235 6.96541L83.7959 7.29391L84.6746 4.42549L85.5533 1.55706L84.4809 1.22856L83.6022 4.09698ZM84.6746 4.42549L83.7959 7.29391C83.8941 7.32401 83.9835 7.36989 84.1051 7.52568L86.4694 5.67903L88.8337 3.83239C87.9921 2.75479 86.8849 1.96497 85.5533 1.55706L84.6746 4.42549ZM86.4694 5.67903L84.1051 7.52568L84.8277 8.45072L87.1919 6.60408L89.5562 4.75743L88.8337 3.83239L86.4694 5.67903ZM87.1919 6.60408L84.8277 8.45072L85.5502 9.37576L87.9145 7.52912L90.2788 5.68247L89.5562 4.75743L87.1919 6.60408ZM87.9145 7.52912L85.5502 9.37576C86.1865 10.1905 86.913 10.9112 87.7311 11.525L89.5314 9.12518L91.3317 6.7254C90.9572 6.44447 90.6057 6.1011 90.2788 5.68247L87.9145 7.52912ZM89.5314 9.12518L87.7311 11.525L88.6256 12.196L90.4259 9.7962L92.2262 7.39642L91.3317 6.7254L89.5314 9.12518ZM90.4259 9.7962L88.6256 12.196L89.5201 12.867L91.3204 10.4672L93.1207 8.06744L92.2262 7.39642L90.4259 9.7962ZM91.3204 10.4672L89.5201 12.867C90.3932 13.522 91.3625 14.0162 92.4054 14.3609L93.3469 11.5124L94.2884 8.664C93.8218 8.50978 93.4402 8.30713 93.1207 8.06744L91.3204 10.4672ZM93.3469 11.5124L92.4054 14.3609L93.5374 14.735L94.479 11.8866L95.4205 9.03819L94.2884 8.664L93.3469 11.5124ZM94.479 11.8866L93.5374 14.735L94.6695 15.1092L95.611 12.2608L96.5525 9.41238L95.4205 9.03819L94.479 11.8866ZM95.611 12.2608L94.6695 15.1092C95.0978 15.2508 95.4387 15.442 95.7208 15.6719L97.6159 13.3462L99.511 11.0206C98.6293 10.3022 97.6336 9.76972 96.5525 9.41238L95.611 12.2608ZM97.6159 13.3462L95.7208 15.6719L96.5937 16.3831L98.4887 14.0575L100.384 11.7318L99.511 11.0206L97.6159 13.3462ZM98.4887 14.0575L96.5937 16.3831L97.4665 17.0944L99.3616 14.7687L101.257 12.443L100.384 11.7318L98.4887 14.0575ZM99.3616 14.7687L97.4665 17.0944C97.9726 17.5068 98.4836 17.9644 98.9989 18.4691L101.098 16.3259L103.197 14.1826C102.561 13.5594 101.914 12.9789 101.257 12.443L99.3616 14.7687ZM101.098 16.3259L98.9989 18.4691L99.8626 19.3151L101.962 17.1718L104.061 15.0286L103.197 14.1826L101.098 16.3259ZM101.962 17.1718L99.8626 19.3151L100.726 20.161L102.826 18.0178L104.925 15.8745L104.061 15.0286L101.962 17.1718ZM102.826 18.0178L100.726 20.161C101.942 21.3521 103.509 21.8914 105.181 21.7434L104.917 18.7551L104.652 15.7668C104.622 15.7694 104.679 15.7609 104.778 15.7958C104.823 15.8116 104.861 15.8313 104.89 15.8499C104.919 15.868 104.93 15.8795 104.925 15.8745L102.826 18.0178ZM104.917 18.7551L105.181 21.7434L106.409 21.6348L106.144 18.6465L105.88 15.6581L104.652 15.7668L104.917 18.7551ZM106.144 18.6465L106.409 21.6348L107.636 21.5262L107.372 18.5378L107.107 15.5495L105.88 15.6581L106.144 18.6465ZM107.372 18.5378L107.636 21.5262C108.374 21.4609 109.055 21.4311 109.682 21.4336L109.694 18.4336L109.706 15.4337C108.873 15.4303 108.006 15.47 107.107 15.5495L107.372 18.5378ZM109.694 18.4336L109.682 21.4336L110.777 21.4381L110.789 18.4381L110.801 15.4381L109.706 15.4337L109.694 18.4336ZM110.789 18.4381L110.777 21.4381L111.872 21.4425L111.884 18.4425L111.896 15.4425L110.801 15.4381L110.789 18.4381ZM111.884 18.4425L111.872 21.4425C113.068 21.4473 114.22 21.1801 115.292 20.6444L113.95 17.9611L112.609 15.2778C112.385 15.3899 112.16 15.4436 111.896 15.4425L111.884 18.4425ZM113.95 17.9611L115.292 20.6444L116.264 20.1586L114.922 17.4753L113.581 14.7919L112.609 15.2778L113.95 17.9611ZM114.922 17.4753L116.264 20.1586L117.235 19.6728L115.894 16.9894L114.552 14.3061L113.581 14.7919L114.922 17.4753ZM115.894 16.9894L117.235 19.6728C117.839 19.3711 118.452 19.0833 119.075 18.8095L117.867 16.0632L116.66 13.317C115.947 13.6303 115.245 13.96 114.552 14.3061L115.894 16.9894ZM117.867 16.0632L119.075 18.8095L120.076 18.3691L118.869 15.6228L117.661 12.8766L116.66 13.317L117.867 16.0632ZM118.869 15.6228L120.076 18.3691L121.078 17.9287L119.87 15.1825L118.663 12.4362L117.661 12.8766L118.869 15.6228ZM119.87 15.1825L121.078 17.9287C121.95 17.5454 122.777 17.066 123.561 16.4984L121.8 14.0692L120.04 11.64C119.585 11.9696 119.126 12.2324 118.663 12.4362L119.87 15.1825ZM121.8 14.0692L123.561 16.4984L124.489 15.8256L122.729 13.3964L120.968 10.9672L120.04 11.64L121.8 14.0692ZM122.729 13.3964L124.489 15.8256L125.418 15.1527L123.657 12.7235L121.897 10.2943L120.968 10.9672L122.729 13.3964ZM123.657 12.7235L125.418 15.1527C126.081 14.6722 126.724 14.1785 127.347 13.6715L125.454 11.3442L123.561 9.01689C123.027 9.45182 122.472 9.87766 121.897 10.2943L123.657 12.7235ZM125.454 11.3442L127.347 13.6715L128.216 12.9651L126.323 10.6377L124.43 8.31044L123.561 9.01689L125.454 11.3442ZM126.323 10.6377L128.216 12.9651L129.084 12.2586L127.191 9.9313L125.298 7.604L124.43 8.31044L126.323 10.6377ZM127.191 9.9313L129.084 12.2586C129.52 11.9043 129.984 11.5932 130.479 11.324L129.045 8.68891L127.611 6.0538C126.792 6.49922 126.021 7.01634 125.298 7.604L127.191 9.9313ZM129.045 8.68891L130.479 11.324L131.464 10.7881L130.03 8.15297L128.596 5.51785L127.611 6.0538L129.045 8.68891ZM130.03 8.15297L131.464 10.7881L132.448 10.2521L131.014 7.61702L129.581 4.98191L128.596 5.51785L130.03 8.15297ZM131.014 7.61702L132.448 10.2521C132.98 9.96274 133.551 9.70094 134.163 9.46853L133.099 6.66375L132.034 3.85897C131.181 4.18299 130.362 4.5567 129.581 4.98191L131.014 7.61702ZM133.099 6.66375L134.163 9.46853L135.263 9.05121L134.198 6.24643L133.134 3.44165L132.034 3.85897L133.099 6.66375ZM134.198 6.24643L135.263 9.05121L136.363 8.63389L135.298 5.82911L134.233 3.02433L133.134 3.44165L134.198 6.24643ZM135.298 5.82911L136.363 8.63389C136.297 8.65861 136.07 8.72284 135.755 8.66044C135.441 8.59821 135.259 8.45336 135.212 8.40984L137.26 6.21782L139.308 4.0258C138.687 3.44492 137.89 2.96662 136.921 2.77482C135.952 2.58286 135.032 2.72141 134.233 3.02433L135.298 5.82911ZM137.26 6.21782L135.212 8.40984L136.075 9.21586L138.123 7.02384L140.171 4.83182L139.308 4.0258L137.26 6.21782ZM138.123 7.02384L136.075 9.21586L136.937 10.0219L138.985 7.82986L141.034 5.63784L140.171 4.83182L138.123 7.02384ZM138.985 7.82986L136.937 10.0219C137.391 10.4459 137.809 10.9067 138.192 11.4061L140.572 9.57949L142.952 7.75289C142.37 6.99411 141.73 6.28853 141.034 5.63784L138.985 7.82986ZM140.572 9.57949L138.192 11.4061L138.917 12.3497L141.297 10.5231L143.676 8.6965L142.952 7.75289L140.572 9.57949ZM141.297 10.5231L138.917 12.3497L139.641 13.2933L142.021 11.4667L144.401 9.6401L143.676 8.6965L141.297 10.5231ZM142.021 11.4667L139.641 13.2933C139.935 13.6762 140.139 14.0611 140.272 14.453L143.112 13.4837L145.951 12.5143C145.596 11.4751 145.072 10.5153 144.401 9.6401L142.021 11.4667ZM143.112 13.4837L140.272 14.453L140.639 15.5264L143.478 14.557L146.317 13.5877L145.951 12.5143L143.112 13.4837ZM143.478 14.557L140.639 15.5264L141.005 16.5997L143.844 15.6304L146.684 14.661L146.317 13.5877L143.478 14.557ZM143.844 15.6304L141.005 16.5997C141.149 17.0206 141.23 17.4648 141.242 17.944L144.241 17.8663L147.24 17.7886C147.212 16.7177 147.029 15.6713 146.684 14.661L143.844 15.6304ZM144.241 17.8663L141.242 17.944L141.272 19.1066L144.271 19.0289L147.27 18.9512L147.24 17.7886L144.241 17.8663ZM144.271 19.0289L141.272 19.1066L141.302 20.2692L144.301 20.1915L147.3 20.1138L147.27 18.9512L144.271 19.0289ZM144.301 20.1915L141.302 20.2692C141.329 21.2967 141.484 22.3057 141.769 23.2895L144.65 22.4551L147.532 21.6206C147.392 21.1365 147.314 20.6364 147.3 20.1138L144.301 20.1915ZM144.65 22.4551L141.769 23.2895L142.088 24.3905L144.969 23.556L147.851 22.7216L147.532 21.6206L144.65 22.4551ZM144.969 23.556L142.088 24.3905L142.406 25.4914L145.288 24.657L148.17 23.8225L147.851 22.7216L144.969 23.556ZM145.288 24.657L142.406 25.4914C142.746 26.6644 143.335 27.7184 144.155 28.623L146.377 26.6081L148.6 24.5931C148.393 24.3642 148.255 24.1175 148.17 23.8225L145.288 24.657ZM146.377 26.6081L144.155 28.623L144.925 29.4731L147.148 27.4582L149.371 25.4433L148.6 24.5931L146.377 26.6081ZM147.148 27.4582L144.925 29.4731L145.696 30.3232L147.919 28.3083L150.141 26.2934L149.371 25.4433L147.148 27.4582ZM147.919 28.3083L145.696 30.3232C146.266 30.9521 146.865 31.5596 147.492 32.1456L149.541 29.9541L151.589 27.7626C151.081 27.2877 150.599 26.798 150.141 26.2934L147.919 28.3083ZM149.541 29.9541L147.492 32.1456L148.343 32.9414L150.392 30.7499L152.441 28.5584L151.589 27.7626L149.541 29.9541ZM150.392 30.7499L148.343 32.9414L149.194 33.7371L151.243 31.5456L153.292 29.3541L152.441 28.5584L150.392 30.7499ZM151.243 31.5456L149.194 33.7371C150.084 34.5687 151.121 35.1793 152.275 35.562L153.219 32.7145L154.164 29.867C153.817 29.7521 153.537 29.5835 153.292 29.3541L151.243 31.5456ZM153.219 32.7145L152.275 35.562L153.4 35.9352L154.345 33.0877L155.289 30.2402L154.164 29.867L153.219 32.7145ZM154.345 33.0877L153.4 35.9352L154.525 36.3084L155.47 33.4609L156.414 30.6134L155.289 30.2402L154.345 33.0877ZM155.47 33.4609L154.525 36.3084C156.107 36.8328 157.699 36.6433 159.113 35.8995L157.716 33.2444L156.319 30.5894C156.282 30.6091 156.264 30.6146 156.264 30.6144C156.265 30.614 156.28 30.6097 156.306 30.6072C156.332 30.6047 156.359 30.6051 156.383 30.6079C156.407 30.6107 156.418 30.6147 156.414 30.6134L155.47 33.4609ZM157.716 33.2444L159.113 35.8995L160.233 35.3098L158.837 32.6548L157.44 29.9997L156.319 30.5894L157.716 33.2444ZM158.837 32.6548L160.233 35.3098L161.354 34.7202L159.958 32.0651L158.561 29.4101L157.44 29.9997L158.837 32.6548ZM159.958 32.0651L161.354 34.7202C161.812 34.4796 162.167 34.3874 162.435 34.3625L162.158 31.3753L161.88 28.3882C160.709 28.4968 159.598 28.8645 158.561 29.4101L159.958 32.0651ZM162.158 31.3753L162.435 34.3625L163.514 34.2624L163.237 31.2752L162.959 28.288L161.88 28.3882L162.158 31.3753ZM163.237 31.2752L163.514 34.2624L164.593 34.1622L164.316 31.1751L164.038 28.1879L162.959 28.288L163.237 31.2752ZM164.316 31.1751L164.593 34.1622C165.43 34.0845 166.278 33.9558 167.136 33.7787L166.53 30.8406L165.924 27.9026C165.268 28.0379 164.64 28.1321 164.038 28.1879L164.316 31.1751ZM166.53 30.8406L167.136 33.7787L168.272 33.5444L167.665 30.6063L167.059 27.6683L165.924 27.9026L166.53 30.8406ZM167.665 30.6063L168.272 33.5444L169.407 33.3101L168.801 30.372L168.194 27.434L167.059 27.6683L167.665 30.6063ZM168.801 30.372L169.407 33.3101C169.676 33.2545 169.959 33.2582 170.296 33.352L171.1 30.4619L171.905 27.5718C170.689 27.2333 169.439 27.1771 168.194 27.434L168.801 30.372ZM171.1 30.4619L170.296 33.352L171.46 33.6761L172.265 30.786L173.069 27.8959L171.905 27.5718L171.1 30.4619ZM172.265 30.786L171.46 33.6761L172.624 34.0003L173.429 31.1102L174.234 28.2201L173.069 27.8959L172.265 30.786ZM173.429 31.1102L172.624 34.0003C173.563 34.2616 174.501 34.4373 175.435 34.5169L175.69 31.5277L175.944 28.5385C175.417 28.4936 174.847 28.3909 174.234 28.2201L173.429 31.1102ZM175.69 31.5277L175.435 34.5169L176.532 34.6102L176.786 31.621L177.041 28.6318L175.944 28.5385L175.69 31.5277ZM176.786 31.621L176.532 34.6102L177.628 34.7035L177.883 31.7143L178.137 28.7252L177.041 28.6318L176.786 31.621ZM177.883 31.7143L177.628 34.7035C177.463 34.6895 177.183 34.6144 176.919 34.3988C176.674 34.1988 176.604 34.0103 176.609 34.0227L179.415 32.9634L182.222 31.9042C181.936 31.146 181.466 30.3641 180.71 29.7478C179.934 29.1158 179.033 28.8014 178.137 28.7252L177.883 31.7143ZM179.415 32.9634L176.609 34.0227L177.045 35.1784L179.852 34.1192L182.658 33.06L182.222 31.9042L179.415 32.9634ZM179.852 34.1192L177.045 35.1784L177.481 36.3342L180.288 35.275L183.095 34.2157L182.658 33.06L179.852 34.1192ZM180.288 35.275L177.481 36.3342C177.493 36.3648 177.493 36.3748 177.492 36.3657C177.49 36.3559 177.487 36.3332 177.488 36.301C177.489 36.2685 177.494 36.2373 177.501 36.2109C177.508 36.185 177.514 36.1731 177.512 36.1768L180.21 37.488L182.909 38.7992C183.632 37.3113 183.66 35.7136 183.095 34.2157L180.288 35.275ZM180.21 37.488L177.512 36.1768L176.998 37.234L179.696 38.5452L182.395 39.8564L182.909 38.7992L180.21 37.488ZM179.696 38.5452L176.998 37.234L176.484 38.2912L179.183 39.6024L181.881 40.9136L182.395 39.8564L179.696 38.5452ZM179.183 39.6024L176.484 38.2912C175.968 39.3534 175.674 40.4863 175.622 41.6682L178.619 41.8004L181.616 41.9325C181.631 41.5935 181.712 41.2611 181.881 40.9136L179.183 39.6024ZM178.619 41.8004L175.622 41.6682L175.571 42.8089L178.568 42.9411L181.565 43.0732L181.616 41.9325L178.619 41.8004ZM178.568 42.9411L175.571 42.8089L175.521 43.9496L178.518 44.0818L181.515 44.214L181.565 43.0732L178.568 42.9411ZM178.518 44.0818L175.521 43.9496C175.499 44.4532 175.414 44.9228 175.273 45.3667L178.131 46.2786L180.989 47.1905C181.296 46.2263 181.47 45.2314 181.515 44.214L178.518 44.0818ZM178.131 46.2786L175.273 45.3667L174.936 46.4229L177.794 47.3348L180.652 48.2467L180.989 47.1905L178.131 46.2786ZM177.794 47.3348L174.936 46.4229L174.599 47.479L177.457 48.3909L180.315 49.3028L180.652 48.2467L177.794 47.3348ZM177.457 48.3909L174.599 47.479C174.235 48.62 174.139 49.804 174.332 50.9931L177.293 50.5123L180.254 50.0316C180.216 49.8002 180.23 49.5699 180.315 49.3028L177.457 48.3909ZM177.293 50.5123L174.332 50.9931L174.505 52.0583L177.466 51.5776L180.427 51.0968L180.254 50.0316L177.293 50.5123ZM177.466 51.5776L174.505 52.0583L174.677 53.1236L177.639 52.6429L180.6 52.1621L180.427 51.0968L177.466 51.5776ZM177.639 52.6429L174.677 53.1236C174.835 54.0936 175.117 55.0292 175.522 55.9231L178.254 54.6847L180.987 53.4462C180.802 53.0381 180.673 52.6125 180.6 52.1621L177.639 52.6429ZM178.254 54.6847L175.522 55.9231L175.964 56.8997L178.697 55.6612L181.429 54.4227L180.987 53.4462L178.254 54.6847ZM178.697 55.6612L175.964 56.8997L176.407 57.8762L179.139 56.6377L181.872 55.3992L181.429 54.4227L178.697 55.6612ZM179.139 56.6377L176.407 57.8762C176.989 59.16 177.953 60.1535 179.206 60.7813L180.55 58.099L181.893 55.4166C181.872 55.4058 181.863 55.3992 181.862 55.3987C181.862 55.3983 181.866 55.4014 181.872 55.4078C181.878 55.4142 181.882 55.4195 181.883 55.4213C181.884 55.4229 181.88 55.4167 181.872 55.3992L179.139 56.6377ZM180.55 58.099L179.206 60.7813L180.174 61.2661L181.518 58.5837L182.861 55.9013L181.893 55.4166L180.55 58.099ZM181.518 58.5837L180.174 61.2661L181.142 61.7508L182.486 59.0684L183.829 56.386L182.861 55.9013L181.518 58.5837ZM182.486 59.0684L181.142 61.7508C181.71 62.035 182.263 62.3431 182.804 62.6754L184.375 60.12L185.947 57.5645C185.258 57.141 184.552 56.7482 183.829 56.386L182.486 59.0684ZM184.375 60.12L182.804 62.6754L183.725 63.2422L185.297 60.6868L186.868 58.1314L185.947 57.5645L184.375 60.12ZM185.297 60.6868L183.725 63.2422L184.647 63.809L186.218 61.2536L187.79 58.6982L186.868 58.1314L185.297 60.6868ZM186.218 61.2536L184.647 63.809C185.329 64.2284 186.043 64.6303 186.788 65.0152L188.165 62.35L189.542 59.6847C188.921 59.3637 188.337 59.0346 187.79 58.6982L186.218 61.2536ZM188.165 62.35L186.788 65.0152L187.813 65.5448L189.19 62.8795L190.567 60.2143L189.542 59.6847L188.165 62.35ZM189.19 62.8795L187.813 65.5448L188.838 66.0743L190.215 63.4091L191.592 60.7438L190.567 60.2143L189.19 62.8795ZM190.215 63.4091L188.838 66.0743C189.795 66.569 190.809 66.9082 191.871 67.0853L192.364 64.1261L192.858 61.167C192.42 61.094 192.001 60.9552 191.592 60.7438L190.215 63.4091ZM192.364 64.1261L191.871 67.0853L192.995 67.2728L193.489 64.3137L193.982 61.3545L192.858 61.167L192.364 64.1261ZM193.489 64.3137L192.995 67.2728L194.12 67.4603L194.613 64.5012L195.107 61.5421L193.982 61.3545L193.489 64.3137ZM194.613 64.5012L194.12 67.4603C194.343 67.4976 194.532 67.5802 194.729 67.7419L196.632 65.4228L198.535 63.1038C197.54 62.2866 196.382 61.7548 195.107 61.5421L194.613 64.5012ZM196.632 65.4228L194.729 67.7419L195.624 68.476L197.527 66.1569L199.43 63.8379L198.535 63.1038L196.632 65.4228ZM197.527 66.1569L195.624 68.476L196.518 69.2101L198.421 66.891L200.324 64.572L199.43 63.8379L197.527 66.1569ZM198.421 66.891L196.518 69.2101C197.265 69.8227 198.065 70.359 198.917 70.8179L200.34 68.1768L201.763 65.5358C201.249 65.2591 200.771 64.9382 200.324 64.572L198.421 66.891ZM200.34 68.1768L198.917 70.8179L199.941 71.3696L201.364 68.7286L202.787 66.0875L201.763 65.5358L200.34 68.1768ZM201.364 68.7286L199.941 71.3696L200.965 71.9213L202.388 69.2803L203.811 66.6392L202.787 66.0875L201.364 68.7286ZM202.388 69.2803L200.965 71.9213C200.967 71.9226 200.961 71.9194 200.95 71.9106C200.94 71.9018 200.932 71.893 200.927 71.8875C200.923 71.8823 200.927 71.8863 200.937 71.9049C200.947 71.924 200.965 71.9606 200.985 72.0201L203.827 71.0592L206.669 70.0984C206.179 68.6493 205.24 67.4093 203.811 66.6392L202.388 69.2803ZM203.827 71.0592L200.985 72.0201L201.4 73.2473L204.242 72.2865L207.084 71.3256L206.669 70.0984L203.827 71.0592ZM204.242 72.2865L201.4 73.2473L201.815 74.4746L204.657 73.5137L207.499 72.5529L207.084 71.3256L204.242 72.2865ZM204.657 73.5137L201.815 74.4746C201.851 74.5806 201.849 74.6285 201.849 74.6342C201.849 74.6394 201.848 74.6442 201.847 74.6512C201.845 74.6584 201.841 74.6746 201.83 74.7013L204.591 75.8729L207.353 77.0445C207.977 75.5743 207.997 74.0268 207.499 72.5529L204.657 73.5137ZM204.591 75.8729L201.83 74.7013L201.349 75.8332L204.111 77.0048L206.873 78.1764L207.353 77.0445L204.591 75.8729ZM204.111 77.0048L201.349 75.8332L200.869 76.9651L203.631 78.1367L206.393 79.3083L206.873 78.1764L204.111 77.0048ZM203.631 78.1367L200.869 76.9651C200.742 77.266 200.572 77.4839 200.343 77.6651L202.205 80.0175L204.066 82.3699C205.099 81.5526 205.88 80.5166 206.393 79.3083L203.631 78.1367ZM202.205 80.0175L200.343 77.6651L199.397 78.414L201.258 80.7664L203.12 83.1188L204.066 82.3699L202.205 80.0175ZM201.258 80.7664L199.397 78.414L198.45 79.163L200.312 81.5154L202.174 83.8678L203.12 83.1188L201.258 80.7664ZM200.312 81.5154L198.45 79.163C197.638 79.8054 196.916 80.5287 196.295 81.3357L198.673 83.1646L201.051 84.9935C201.354 84.6001 201.724 84.2239 202.174 83.8678L200.312 81.5154ZM198.673 83.1646L196.295 81.3357L195.603 82.2361L197.981 84.0649L200.359 85.8938L201.051 84.9935L198.673 83.1646ZM197.981 84.0649L195.603 82.2361L194.911 83.1364L197.289 84.9652L199.667 86.7941L200.359 85.8938L197.981 84.0649ZM197.289 84.9652L194.911 83.1364C194.325 83.8984 193.82 84.7143 193.398 85.5811L196.095 86.8952L198.791 88.2092C199.038 87.7031 199.33 87.2325 199.667 86.7941L197.289 84.9652ZM196.095 86.8952L193.398 85.5811L192.896 86.6108L195.593 87.9248L198.29 89.2388L198.791 88.2092L196.095 86.8952ZM195.593 87.9248L192.896 86.6108L192.394 87.6404L195.091 88.9544L197.788 90.2684L198.29 89.2388L195.593 87.9248ZM195.091 88.9544L192.394 87.6404C191.844 88.769 191.589 89.98 191.619 91.2294L194.618 91.1575L197.617 91.0855C197.609 90.7704 197.669 90.5127 197.788 90.2684L195.091 88.9544ZM194.618 91.1575L191.619 91.2294L191.647 92.4028L194.646 92.3309L197.645 92.259L197.617 91.0855L194.618 91.1575ZM194.646 92.3309L191.647 92.4028L191.675 93.5762L194.674 93.5043L197.673 93.4324L197.645 92.259L194.646 92.3309ZM194.674 93.5043L191.675 93.5762C191.686 94.0593 191.626 94.4947 191.507 94.8967L194.382 95.7528L197.257 96.6088C197.564 95.5774 197.699 94.5139 197.673 93.4324L194.674 93.5043ZM194.382 95.7528L191.507 94.8967L191.187 95.9717L194.062 96.8278L196.937 97.6839L197.257 96.6088L194.382 95.7528ZM194.062 96.8278L191.187 95.9717L190.867 97.0468L193.742 97.9028L196.617 98.7589L196.937 97.6839L194.062 96.8278ZM193.742 97.9028L190.867 97.0468C190.526 98.1916 190.447 99.3699 190.627 100.549L193.592 100.097L196.558 99.6457C196.51 99.3322 196.531 99.0474 196.617 98.7589L193.742 97.9028ZM193.592 100.097L190.627 100.549L190.797 101.669L193.763 101.217L196.729 100.765L196.558 99.6457L193.592 100.097ZM193.763 101.217L190.797 101.669L190.968 102.788L193.933 102.337L196.899 101.885L196.729 100.765L193.763 101.217ZM193.933 102.337L190.968 102.788C191.113 103.741 191.355 104.67 191.693 105.574L194.503 104.523L197.313 103.472C197.119 102.954 196.982 102.426 196.899 101.885L193.933 102.337ZM194.503 104.523L191.693 105.574L192.092 106.64L194.902 105.589L197.712 104.538L197.313 103.472L194.503 104.523ZM194.902 105.589L192.092 106.64L192.491 107.707L195.301 106.656L198.111 105.604L197.712 104.538L194.902 105.589ZM195.301 106.656L192.491 107.707C192.984 109.026 193.85 110.088 194.968 110.881L196.703 108.433L198.438 105.985C198.218 105.829 198.149 105.707 198.111 105.604L195.301 106.656ZM196.703 108.433L194.968 110.881L195.972 111.592L197.706 109.144L199.441 106.696L198.438 105.985L196.703 108.433ZM197.706 109.144L195.972 111.592L196.975 112.303L198.71 109.855L200.444 107.407L199.441 106.696L197.706 109.144ZM198.71 109.855L196.975 112.303C197.289 112.526 197.477 112.753 197.601 112.986L200.251 111.58L202.901 110.175C202.308 109.055 201.468 108.133 200.444 107.407L198.71 109.855ZM200.251 111.58L197.601 112.986L198.139 114L200.789 112.595L203.439 111.189L202.901 110.175L200.251 111.58ZM200.789 112.595L198.139 114L198.677 115.015L201.327 113.609L203.977 112.204L203.439 111.189L200.789 112.595ZM201.327 113.609L198.677 115.015C198.878 115.395 199.02 115.811 199.097 116.279L202.057 115.791L205.017 115.304C204.838 114.215 204.493 113.176 203.977 112.204L201.327 113.609ZM202.057 115.791L199.097 116.279L199.289 117.447L202.25 116.959L205.21 116.472L205.017 115.304L202.057 115.791ZM202.25 116.959L199.289 117.447L199.482 118.615L202.442 118.127L205.402 117.64L205.21 116.472L202.25 116.959ZM202.442 118.127L199.482 118.615C199.627 119.499 199.817 120.354 200.052 121.179L202.937 120.356L205.822 119.533C205.654 118.944 205.513 118.314 205.402 117.64L202.442 118.127ZM202.937 120.356L200.052 121.179L200.355 122.24L203.24 121.417L206.125 120.594L205.822 119.533L202.937 120.356ZM203.24 121.417L200.355 122.24L200.657 123.301L203.542 122.478L206.427 121.655L206.125 120.594L203.24 121.417ZM203.542 122.478L200.657 123.301C200.72 123.52 200.718 123.689 200.675 123.862L203.588 124.581L206.5 125.3C206.801 124.083 206.768 122.851 206.427 121.655L203.542 122.478ZM203.588 124.581L200.675 123.862L200.418 124.904L203.33 125.623L206.243 126.342L206.5 125.3L203.588 124.581ZM203.33 125.623L200.418 124.904L200.16 125.946L203.073 126.665L205.985 127.384L206.243 126.342L203.33 125.623ZM203.073 126.665L200.16 125.946C200.099 126.192 199.998 126.387 199.844 126.566L202.126 128.515L204.407 130.463C205.173 129.566 205.703 128.527 205.985 127.384L203.073 126.665ZM202.126 128.515L199.844 126.566L199.154 127.374L201.436 129.322L203.717 131.271L204.407 130.463L202.126 128.515ZM201.436 129.322L199.154 127.374L198.465 128.182L200.746 130.13L203.027 132.078L203.717 131.271L201.436 129.322ZM200.746 130.13L198.465 128.182C198.095 128.615 197.674 129.047 197.198 129.476L199.209 131.703L201.219 133.929C201.873 133.339 202.477 132.722 203.027 132.078L200.746 130.13ZM199.209 131.703L197.198 129.476L196.351 130.241L198.362 132.468L200.372 134.694L201.219 133.929L199.209 131.703ZM198.362 132.468L196.351 130.241L195.504 131.006L197.515 133.232L199.525 135.459L200.372 134.694L198.362 132.468ZM197.515 133.232L195.504 131.006C195.278 131.21 195.034 131.345 194.741 131.43L195.571 134.313L196.401 137.196C197.57 136.859 198.622 136.275 199.525 135.459L197.515 133.232ZM195.571 134.313L194.741 131.43L193.644 131.745L194.474 134.628L195.304 137.511L196.401 137.196L195.571 134.313ZM194.474 134.628L193.644 131.745L192.548 132.061L193.377 134.944L194.207 137.827L195.304 137.511L194.474 134.628ZM193.377 134.944L192.548 132.061C191.269 132.429 190.167 133.127 189.273 134.093L191.475 136.13L193.677 138.167C193.857 137.973 194.023 137.88 194.207 137.827L193.377 134.944ZM191.475 136.13L189.273 134.093L188.468 134.963L190.67 137L192.872 139.038L193.677 138.167L191.475 136.13ZM190.67 137L188.468 134.963L187.663 135.833L189.865 137.871L192.066 139.908L192.872 139.038L190.67 137ZM189.865 137.871L187.663 135.833C187.428 136.087 187.204 136.225 186.98 136.307L188.012 139.124L189.043 141.942C190.216 141.512 191.228 140.815 192.066 139.908L189.865 137.871ZM188.012 139.124L186.98 136.307L185.933 136.691L186.964 139.508L187.996 142.325L189.043 141.942L188.012 139.124ZM186.964 139.508L185.933 136.691L184.886 137.074L185.917 139.891L186.948 142.708L187.996 142.325L186.964 139.508ZM185.917 139.891L184.886 137.074C183.57 137.556 182.485 138.424 181.744 139.635L184.301 141.202L186.859 142.77C186.87 142.751 186.878 142.743 186.879 142.741C186.881 142.739 186.881 142.739 186.88 142.74C186.878 142.741 186.881 142.739 186.889 142.735C186.898 142.73 186.916 142.72 186.948 142.708L185.917 139.891ZM184.301 141.202L181.744 139.635L181.175 140.562L183.733 142.129L186.291 143.697L186.859 142.77L184.301 141.202ZM183.733 142.129L181.175 140.562L180.607 141.489L183.165 143.057L185.723 144.624L186.291 143.697L183.733 142.129ZM183.165 143.057L180.607 141.489C180.101 142.315 179.692 143.207 179.369 144.153L182.209 145.121L185.048 146.089C185.243 145.519 185.471 145.035 185.723 144.624L183.165 143.057ZM182.209 145.121L179.369 144.153L178.982 145.291L181.821 146.259L184.661 147.227L185.048 146.089L182.209 145.121ZM181.821 146.259L178.982 145.291L178.594 146.428L181.433 147.396L184.273 148.364L184.661 147.227L181.821 146.259ZM181.433 147.396L178.594 146.428C178.079 147.939 178.177 149.508 178.903 150.945L181.581 149.592L184.258 148.239C184.251 148.225 184.253 148.226 184.258 148.243C184.263 148.26 184.268 148.284 184.27 148.313C184.272 148.341 184.27 148.364 184.268 148.377C184.266 148.39 184.265 148.386 184.273 148.364L181.433 147.396ZM181.581 149.592L178.903 150.945L179.438 152.004L182.116 150.651L184.793 149.298L184.258 148.239L181.581 149.592ZM182.116 150.651L179.438 152.004L179.973 153.063L182.651 151.71L185.328 150.356L184.793 149.298L182.116 150.651ZM182.651 151.71L179.973 153.063C180.382 153.87 180.835 154.653 181.334 155.411L183.84 153.763L186.347 152.115C185.973 151.546 185.634 150.96 185.328 150.356L182.651 151.71ZM183.84 153.763L181.334 155.411L181.988 156.406L184.494 154.758L187.001 153.109L186.347 152.115L183.84 153.763ZM184.494 154.758L181.988 156.406L182.642 157.401L185.148 155.752L187.655 154.104L187.001 153.109L184.494 154.758ZM185.148 155.752L182.642 157.401C182.653 157.417 182.651 157.418 182.645 157.403C182.638 157.387 182.63 157.363 182.625 157.332C182.619 157.301 182.617 157.274 182.618 157.254C182.618 157.235 182.621 157.232 182.617 157.247L185.545 157.9L188.473 158.554C188.823 156.986 188.534 155.44 187.655 154.104L185.148 155.752ZM185.545 157.9L182.617 157.247L182.36 158.4L185.288 159.053L188.215 159.707L188.473 158.554L185.545 157.9ZM185.288 159.053L182.36 158.4L182.102 159.553L185.03 160.207L187.958 160.86L188.215 159.707L185.288 159.053ZM185.03 160.207L182.102 159.553C181.896 160.476 181.759 161.433 181.687 162.419L184.679 162.638L187.671 162.856C187.724 162.138 187.821 161.474 187.958 160.86L185.03 160.207ZM184.679 162.638L181.687 162.419L181.594 163.697L184.586 163.916L187.578 164.134L187.671 162.856L184.679 162.638ZM184.586 163.916L181.594 163.697L181.501 164.975L184.493 165.194L187.485 165.412L187.578 164.134L184.586 163.916ZM184.493 165.194L181.501 164.975C181.504 164.926 181.543 164.63 181.811 164.309C182.08 163.986 182.37 163.891 182.43 163.876L183.167 166.784L183.904 169.692C184.785 169.469 185.708 169.004 186.419 168.151C187.129 167.3 187.419 166.313 187.485 165.412L184.493 165.194ZM183.167 166.784L182.43 163.876L181.197 164.188L181.934 167.096L182.671 170.004L183.904 169.692L183.167 166.784ZM181.934 167.096L181.197 164.188L179.964 164.5L180.701 167.408L181.438 170.317L182.671 170.004L181.934 167.096ZM180.701 167.408L179.964 164.5C179.739 164.557 179.578 164.543 179.393 164.471L178.302 167.265L177.21 170.06C178.58 170.595 180.02 170.676 181.438 170.317L180.701 167.408ZM178.302 167.265L179.393 164.471L178.226 164.015L177.135 166.81L176.044 169.604L177.21 170.06L178.302 167.265ZM177.135 166.81L178.226 164.015L177.059 163.56L175.968 166.354L174.877 169.149L176.044 169.604L177.135 166.81ZM175.968 166.354L177.059 163.56C175.426 162.922 173.726 163.061 172.218 163.911L173.691 166.524L175.165 169.138C175.184 169.127 175.18 169.131 175.155 169.139C175.128 169.148 175.089 169.157 175.04 169.161C174.99 169.164 174.946 169.161 174.913 169.156C174.879 169.151 174.867 169.145 174.877 169.149L175.968 166.354ZM173.691 166.524L172.218 163.911L171.108 164.537L172.581 167.15L174.054 169.764L175.165 169.138L173.691 166.524ZM172.581 167.15L171.108 164.537L169.997 165.163L171.471 167.776L172.944 170.39L174.054 169.764L172.581 167.15ZM171.471 167.776L169.997 165.163C169.958 165.185 169.938 165.192 169.936 165.193C169.935 165.194 169.947 165.189 169.97 165.186C169.994 165.183 170.02 165.183 170.043 165.185C170.065 165.187 170.076 165.19 170.072 165.189L169.222 168.066L168.372 170.943C169.97 171.415 171.555 171.173 172.944 170.39L171.471 167.776ZM169.222 168.066L170.072 165.189L168.933 164.852L168.083 167.729L167.233 170.606L168.372 170.943L169.222 168.066ZM168.083 167.729L168.933 164.852L167.794 164.516L166.944 167.393L166.094 170.27L167.233 170.606L168.083 167.729ZM166.944 167.393L167.794 164.516C166.247 164.059 164.671 164.243 163.272 165.062L164.788 167.652L166.303 170.241C166.313 170.235 166.307 170.24 166.284 170.247C166.261 170.255 166.229 170.263 166.192 170.268C166.156 170.272 166.124 170.272 166.103 170.27C166.082 170.268 166.078 170.265 166.094 170.27L166.944 167.393ZM164.788 167.652L163.272 165.062L162.255 165.658L163.771 168.247L165.286 170.836L166.303 170.241L164.788 167.652ZM163.771 168.247L162.255 165.658L161.238 166.253L162.754 168.842L164.269 171.431L165.286 170.836L163.771 168.247ZM162.754 168.842L161.238 166.253C161.215 166.266 161.167 166.308 160.94 166.272L160.468 169.235L159.995 172.197C161.46 172.431 162.936 172.211 164.269 171.431L162.754 168.842ZM160.468 169.235L160.94 166.272L159.671 166.07L159.198 169.032L158.726 171.995L159.995 172.197L160.468 169.235ZM159.198 169.032L159.671 166.07L158.402 165.867L157.929 168.83L157.457 171.792L158.726 171.995L159.198 169.032ZM157.929 168.83L158.402 165.867C157.524 165.727 156.503 165.775 155.513 166.262C154.513 166.753 153.844 167.544 153.424 168.36L156.092 169.732L158.759 171.105C158.718 171.185 158.545 171.457 158.158 171.647C157.78 171.832 157.488 171.797 157.457 171.792L157.929 168.83ZM156.092 169.732L153.424 168.36L152.855 169.465L155.523 170.837L158.19 172.21L158.759 171.105L156.092 169.732ZM155.523 170.837L152.855 169.465L152.287 170.57L154.954 171.943L157.621 173.315L158.19 172.21L155.523 170.837ZM154.954 171.943L152.287 170.57C152.021 171.085 151.745 171.463 151.477 171.741L153.637 173.824L155.796 175.906C156.526 175.149 157.128 174.273 157.621 173.315L154.954 171.943ZM153.637 173.824L151.477 171.741L150.729 172.517L152.888 174.6L155.047 176.683L155.796 175.906L153.637 173.824ZM152.888 174.6L150.729 172.517L149.98 173.294L152.139 175.376L154.298 177.459L155.047 176.683L152.888 174.6ZM152.139 175.376L149.98 173.294C149.309 173.989 148.725 174.766 148.224 175.612L150.806 177.14L153.387 178.669C153.666 178.198 153.971 177.798 154.298 177.459L152.139 175.376ZM150.806 177.14L148.224 175.612L147.639 176.6L150.221 178.128L152.802 179.657L153.387 178.669L150.806 177.14ZM150.221 178.128L147.639 176.6L147.054 177.588L149.636 179.116L152.217 180.645L152.802 179.657L150.221 178.128ZM149.636 179.116L147.054 177.588C146.553 178.434 146.145 179.333 145.829 180.278L148.673 181.231L151.518 182.184C151.705 181.626 151.939 181.115 152.217 180.645L149.636 179.116ZM148.673 181.231L145.829 180.278L145.451 181.405L148.296 182.358L151.14 183.311L151.518 182.184L148.673 181.231ZM148.296 182.358L145.451 181.405L145.073 182.532L147.918 183.485L150.762 184.438L151.14 183.311L148.296 182.358ZM147.918 183.485L145.073 182.532C144.617 183.894 144.614 185.298 145.022 186.656L147.895 185.793L150.768 184.931C150.703 184.713 150.715 184.578 150.762 184.438L147.918 183.485ZM147.895 185.793L145.022 186.656L145.376 187.837L148.25 186.974L151.123 186.112L150.768 184.931L147.895 185.793ZM148.25 186.974L145.376 187.837L145.731 189.018L148.604 188.156L151.478 187.293L151.123 186.112L148.25 186.974ZM148.604 188.156L145.731 189.018C145.79 189.216 145.794 189.392 145.719 189.626L148.578 190.535L151.437 191.444C151.87 190.081 151.891 188.671 151.478 187.293L148.604 188.156ZM148.578 190.535L145.719 189.626L145.338 190.824L148.197 191.733L151.057 192.642L151.437 191.444L148.578 190.535ZM148.197 191.733L145.338 190.824L144.958 192.022L147.817 192.931L150.676 193.84L151.057 192.642L148.197 191.733ZM147.817 192.931L144.958 192.022C144.962 192.01 144.974 191.975 145.003 191.929C145.031 191.881 145.068 191.836 145.108 191.796C145.193 191.713 145.236 191.715 145.146 191.747L146.126 194.582L147.106 197.417C148.769 196.843 150.103 195.643 150.676 193.84L147.817 192.931ZM146.126 194.582L145.146 191.747L143.835 192.2L144.816 195.035L145.796 197.87L147.106 197.417L146.126 194.582ZM144.816 195.035L143.835 192.2L142.525 192.652L143.505 195.488L144.486 198.323L145.796 197.87L144.816 195.035ZM143.505 195.488L142.525 192.652C142.414 192.691 142.421 192.668 142.513 192.676C142.558 192.679 142.607 192.689 142.655 192.706C142.703 192.722 142.736 192.74 142.752 192.75L141.16 195.292L139.567 197.835C141.136 198.817 142.885 198.877 144.486 198.323L143.505 195.488ZM141.16 195.292L142.752 192.75L141.716 192.101L140.124 194.644L138.532 197.186L139.567 197.835L141.16 195.292ZM140.124 194.644L141.716 192.101L140.681 191.453L139.088 193.995L137.496 196.538L138.532 197.186L140.124 194.644ZM139.088 193.995L140.681 191.453C140.031 191.046 139.42 190.641 138.848 190.24L137.125 192.695L135.401 195.151C136.066 195.617 136.765 196.08 137.496 196.538L139.088 193.995ZM137.125 192.695L138.848 190.24L137.92 189.588L136.196 192.044L134.473 194.5L135.401 195.151L137.125 192.695ZM136.196 192.044L137.92 189.588L136.991 188.937L135.268 191.393L133.545 193.849L134.473 194.5L136.196 192.044ZM135.268 191.393L136.991 188.937C136.005 188.245 134.902 187.794 133.721 187.58L133.184 190.531L132.647 193.483C133.007 193.548 133.294 193.673 133.545 193.849L135.268 191.393ZM133.184 190.531L133.721 187.58L132.564 187.369L132.028 190.321L131.491 193.273L132.647 193.483L133.184 190.531ZM132.028 190.321L132.564 187.369L131.408 187.159L130.871 190.111L130.335 193.062L131.491 193.273L132.028 190.321ZM130.871 190.111L131.408 187.159C130.918 187.07 130.493 186.922 130.116 186.725L128.727 189.384L127.338 192.043C128.278 192.535 129.283 192.871 130.335 193.062L130.871 190.111ZM128.727 189.384L130.116 186.725L129.128 186.209L127.738 188.868L126.349 191.527L127.338 192.043L128.727 189.384ZM127.738 188.868L129.128 186.209L128.139 185.693L126.75 188.352L125.361 191.011L126.349 191.527L127.738 188.868ZM126.75 188.352L128.139 185.693C127.572 185.396 127.001 185.061 126.428 184.685L124.784 187.194L123.14 189.704C123.87 190.182 124.611 190.619 125.361 191.011L126.75 188.352ZM124.784 187.194L126.428 184.685L125.449 184.044L123.805 186.554L122.161 189.063L123.14 189.704L124.784 187.194ZM123.805 186.554L125.449 184.044L124.471 183.403L122.827 185.913L121.183 188.422L122.161 189.063L123.805 186.554ZM122.827 185.913L124.471 183.403C123.379 182.688 122.155 182.283 120.845 182.219L120.699 185.216L120.553 188.212C120.777 188.223 120.97 188.283 121.183 188.422L122.827 185.913ZM120.699 185.216L120.845 182.219L119.696 182.163L119.55 185.16L119.403 188.156L120.553 188.212L120.699 185.216ZM119.55 185.16L119.696 182.163L118.546 182.107L118.4 185.103L118.254 188.1L119.403 188.156L119.55 185.16ZM118.4 185.103L118.546 182.107C117.729 182.067 116.914 182.048 116.103 182.051L116.112 185.051L116.12 188.051C116.827 188.049 117.538 188.065 118.254 188.1L118.4 185.103ZM116.112 185.051L116.103 182.051L114.964 182.054L114.973 185.054L114.982 188.054L116.12 188.051L116.112 185.051ZM114.973 185.054L114.964 182.054L113.826 182.057L113.835 185.057L113.843 188.057L114.982 188.054L114.973 185.054ZM113.835 185.057L113.826 182.057C112.736 182.061 111.669 182.242 110.639 182.599L111.622 185.433L112.605 188.267C113.007 188.128 113.416 188.059 113.843 188.057L113.835 185.057ZM111.622 185.433L110.639 182.599L109.565 182.971L110.548 185.806L111.531 188.64L112.605 188.267L111.622 185.433ZM110.548 185.806L109.565 182.971L108.491 183.344L109.474 186.178L110.458 189.013L111.531 188.64L110.548 185.806ZM109.474 186.178L108.491 183.344C107.344 183.742 106.328 184.38 105.47 185.236L107.587 187.361L109.704 189.487C109.93 189.261 110.173 189.111 110.458 189.013L109.474 186.178ZM107.587 187.361L105.47 185.236L104.656 186.047L106.773 188.172L108.89 190.297L109.704 189.487L107.587 187.361ZM106.773 188.172L104.656 186.047L103.842 186.857L105.959 188.983L108.077 191.108L108.89 190.297L106.773 188.172ZM105.959 188.983L103.842 186.857C103.776 186.923 103.668 187.007 103.388 187.056L103.908 190.011L104.428 192.966C105.798 192.724 107.058 192.123 108.077 191.108L105.959 188.983ZM103.908 190.011L103.388 187.056L102.15 187.274L102.67 190.229L103.19 193.183L104.428 192.966L103.908 190.011ZM102.67 190.229L102.15 187.274L100.912 187.492L101.433 190.447L101.953 193.401L103.19 193.183L102.67 190.229ZM101.433 190.447L100.912 187.492C99.3979 187.759 98.0505 188.52 97.0924 189.811L99.5015 191.599L101.911 193.387C101.915 193.381 101.912 193.385 101.902 193.395C101.891 193.404 101.879 193.413 101.868 193.42C101.857 193.426 101.855 193.426 101.865 193.423C101.876 193.419 101.903 193.41 101.953 193.401L101.433 190.447ZM99.5015 191.599L97.0924 189.811L96.3991 190.745L98.8082 192.533L101.217 194.321L101.911 193.387L99.5015 191.599ZM98.8082 192.533L96.3991 190.745L95.7057 191.68L98.1149 193.468L100.524 195.255L101.217 194.321L98.8082 192.533ZM98.1149 193.468L95.7057 191.68C95.1028 192.492 94.5973 193.373 94.1858 194.313L96.9342 195.516L99.6827 196.718C99.9209 196.174 100.202 195.688 100.524 195.255L98.1149 193.468ZM96.9342 195.516L94.1858 194.313L93.6984 195.427L96.4469 196.629L99.1953 197.832L99.6827 196.718L96.9342 195.516ZM96.4469 196.629L93.6984 195.427L93.2111 196.541L95.9595 197.743L98.708 198.946L99.1953 197.832L96.4469 196.629ZM95.9595 197.743L93.2111 196.541C93.2001 196.566 93.195 196.572 93.2 196.564C93.2053 196.557 93.217 196.541 93.2354 196.524C93.2538 196.506 93.2717 196.493 93.2852 196.484C93.2982 196.476 93.2999 196.477 93.2843 196.483L94.3583 199.284L95.4323 202.085C96.9404 201.507 98.0682 200.408 98.708 198.946L95.9595 197.743ZM94.3583 199.284L93.2843 196.483L92.1703 196.91L93.2443 199.711L94.3183 202.512L95.4323 202.085L94.3583 199.284ZM93.2443 199.711L92.1703 196.91L91.0564 197.337L92.1304 200.138L93.2044 202.94L94.3183 202.512L93.2443 199.711ZM92.1304 200.138L91.0564 197.337C90.4116 197.584 89.8255 197.77 89.2956 197.901L90.0163 200.813L90.7369 203.725C91.5406 203.526 92.3639 203.262 93.2044 202.94L92.1304 200.138ZM90.0163 200.813L89.2956 197.901L88.2955 198.148L89.0162 201.06L89.7368 203.973L90.7369 203.725L90.0163 200.813ZM89.0162 201.06L88.2955 198.148L87.2954 198.396L88.0161 201.308L88.7367 204.22L89.7368 203.973L89.0162 201.06ZM88.0161 201.308L87.2954 198.396C86.6835 198.547 86.0306 198.69 85.3359 198.825L85.905 201.77L86.4741 204.716C87.2606 204.564 88.0151 204.399 88.7367 204.22L88.0161 201.308ZM85.905 201.77L85.3359 198.825L84.2249 199.039L84.794 201.985L85.3631 204.93L86.4741 204.716L85.905 201.77ZM84.794 201.985L84.2249 199.039L83.1139 199.254L83.683 202.199L84.2521 205.145L85.3631 204.93L84.794 201.985ZM83.683 202.199L83.1139 199.254C83.2355 199.23 83.5537 199.207 83.9295 199.377C84.2948 199.542 84.4601 199.775 84.4905 199.824L81.9469 201.414L79.4033 203.005C79.8504 203.72 80.5134 204.417 81.4575 204.844C82.4119 205.276 83.3898 205.312 84.2521 205.145L83.683 202.199ZM81.9469 201.414L84.4905 199.824L83.8654 198.824L81.3218 200.415L78.7782 202.005L79.4033 203.005L81.9469 201.414ZM81.3218 200.415L83.8654 198.824L83.2402 197.825L80.6967 199.415L78.1531 201.006L78.7782 202.005L81.3218 200.415ZM80.6967 199.415L83.2402 197.825C82.8351 197.177 82.4455 196.538 82.0714 195.908L79.4921 197.44L76.9129 198.972C77.3113 199.643 77.7247 200.321 78.1531 201.006L80.6967 199.415ZM79.4921 197.44L82.0714 195.908L81.492 194.933L78.9127 196.465L76.3335 197.997L76.9129 198.972L79.4921 197.44ZM78.9127 196.465L81.492 194.933L80.9126 193.957L78.3333 195.49L75.7541 197.022L76.3335 197.997L78.9127 196.465ZM78.3333 195.49L80.9126 193.957C80.5841 193.404 80.2897 192.838 80.0289 192.257L77.2922 193.486L74.5555 194.715C74.9103 195.505 75.31 196.274 75.7541 197.022L78.3333 195.49ZM77.2922 193.486L80.0289 192.257L79.5672 191.229L76.8305 192.458L74.0938 193.687L74.5555 194.715L77.2922 193.486ZM76.8305 192.458L79.5672 191.229L79.1055 190.201L76.3688 191.43L73.6321 192.659L74.0938 193.687L76.8305 192.458ZM76.3688 191.43L79.1055 190.201C78.8323 189.593 78.5844 188.972 78.3618 188.339L75.5316 189.333L72.7013 190.328C72.9794 191.119 73.2896 191.896 73.6321 192.659L76.3688 191.43ZM75.5316 189.333L78.3618 188.339L77.9863 187.27L75.1561 188.265L72.3258 189.26L72.7013 190.328L75.5316 189.333ZM75.1561 188.265L77.9863 187.27L77.6108 186.202L74.7805 187.197L71.9503 188.192L72.3258 189.26L75.1561 188.265ZM74.7805 187.197L77.6108 186.202C77.256 185.192 76.751 184.258 76.0999 183.409L73.7199 185.236L71.3398 187.062C71.6023 187.404 71.8045 187.777 71.9503 188.192L74.7805 187.197ZM73.7199 185.236L76.0999 183.409L75.4147 182.516L73.0347 184.343L70.6546 186.169L71.3398 187.062L73.7199 185.236ZM73.0347 184.343L75.4147 182.516L74.7296 181.623L72.3495 183.45L69.9694 185.276L70.6546 186.169L73.0347 184.343ZM72.3495 183.45L74.7296 181.623C74.4313 181.235 74.1578 180.774 73.9179 180.229L71.1716 181.436L68.4254 182.644C68.8423 183.592 69.354 184.474 69.9694 185.276L72.3495 183.45ZM71.1716 181.436L73.9179 180.229L73.4253 179.108L70.679 180.316L67.9328 181.523L68.4254 182.644L71.1716 181.436ZM70.679 180.316L73.4253 179.108L72.9326 177.988L70.1864 179.195L67.4402 180.403L67.9328 181.523L70.679 180.316ZM70.1864 179.195L72.9326 177.988C72.5697 177.163 71.9842 176.382 71.1152 175.825C70.2553 175.274 69.3186 175.069 68.4532 175.057L68.4101 178.057L68.3671 181.056C68.3574 181.056 68.1447 181.048 67.8769 180.876C67.5999 180.699 67.4747 180.482 67.4402 180.403L70.1864 179.195ZM68.4101 178.057L68.4532 175.057L67.1695 175.039L67.1265 178.038L67.0835 181.038L68.3671 181.056L68.4101 178.057ZM67.1265 178.038L67.1695 175.039L65.8859 175.02L65.8429 178.02L65.7998 181.02L67.0835 181.038L67.1265 178.038ZM65.8429 178.02L65.8859 175.02C65.4614 175.014 65.2001 174.925 65.0243 174.827L63.5654 177.448L62.1065 180.07C63.2557 180.709 64.5128 181.001 65.7998 181.02L65.8429 178.02ZM63.5654 177.448L65.0243 174.827L64.0304 174.274L62.5716 176.895L61.1127 179.517L62.1065 180.07L63.5654 177.448ZM62.5716 176.895L64.0304 174.274L63.0366 173.721L61.5778 176.342L60.1189 178.964L61.1127 179.517L62.5716 176.895ZM61.5778 176.342L63.0366 173.721C61.7491 173.004 60.3168 172.782 58.8716 173.077L59.4716 176.016L60.0717 178.956C60.0967 178.951 60.1085 178.95 60.1091 178.95C60.1094 178.95 60.104 178.95 60.0954 178.949C60.0868 178.948 60.082 178.946 60.0828 178.946C60.0839 178.947 60.0958 178.951 60.1189 178.964L61.5778 176.342ZM59.4716 176.016L58.8716 173.077L57.7593 173.304L58.3593 176.243L58.9593 179.183L60.0717 178.956L59.4716 176.016ZM58.3593 176.243L57.7593 173.304L56.647 173.531L57.247 176.47L57.847 179.41L58.9593 179.183L58.3593 176.243ZM57.247 176.47L56.647 173.531C55.7652 173.711 54.9055 173.952 54.0695 174.255L55.0923 177.075L56.1152 179.896C56.669 179.695 57.2457 179.533 57.847 179.41L57.247 176.47ZM55.0923 177.075L54.0695 174.255L53.0271 174.633L54.05 177.454L55.0728 180.274L56.1152 179.896L55.0923 177.075ZM54.05 177.454L53.0271 174.633L51.9848 175.011L53.0076 177.832L54.0304 180.652L55.0728 180.274L54.05 177.454ZM53.0076 177.832L51.9848 175.011C51.0615 175.346 50.1821 175.791 49.3479 176.336L50.9894 178.848L52.631 181.359C53.0978 181.053 53.5639 180.821 54.0304 180.652L53.0076 177.832ZM50.9894 178.848L49.3479 176.336L48.372 176.974L50.0136 179.485L51.6552 181.996L52.631 181.359L50.9894 178.848ZM50.0136 179.485L48.372 176.974L47.3962 177.612L49.0378 180.123L50.6793 182.634L51.6552 181.996L50.0136 179.485ZM49.0378 180.123L47.3962 177.612C46.8595 177.963 46.3176 178.266 45.7704 178.522L47.0429 181.239L48.3155 183.955C49.127 183.575 49.915 183.134 50.6793 182.634L49.0378 180.123ZM47.0429 181.239L45.7704 178.522L44.7513 178.999L46.0239 181.716L47.2964 184.433L48.3155 183.955L47.0429 181.239ZM46.0239 181.716L44.7513 178.999L43.7323 179.477L45.0049 182.193L46.2774 184.91L47.2964 184.433L46.0239 181.716ZM45.0049 182.193L43.7323 179.477C43.5987 179.539 43.4079 179.591 43.0777 179.555L42.7558 182.538L42.4339 185.521C43.7437 185.662 45.0523 185.484 46.2774 184.91L45.0049 182.193ZM42.7558 182.538L43.0777 179.555L41.8477 179.422L41.5258 182.405L41.2039 185.388L42.4339 185.521L42.7558 182.538ZM41.5258 182.405L41.8477 179.422L40.6177 179.29L40.2958 182.272L39.9738 185.255L41.2039 185.388L41.5258 182.405ZM40.2958 182.272L40.6177 179.29C39.2781 179.145 37.96 179.346 36.7258 179.912L37.9749 182.639L39.224 185.367C39.4443 185.266 39.6734 185.223 39.9738 185.255L40.2958 182.272ZM37.9749 182.639L36.7258 179.912L35.635 180.411L36.8841 183.139L38.1332 185.866L39.224 185.367L37.9749 182.639ZM36.8841 183.139L35.635 180.411L34.5443 180.911L35.7934 183.638L37.0424 186.366L38.1332 185.866L36.8841 183.139ZM35.7934 183.638L34.5443 180.911C34.5491 180.908 34.5804 180.894 34.6358 180.877C34.6908 180.86 34.782 180.835 34.9045 180.819C35.1505 180.786 35.5701 180.781 36.0499 180.976C37.1493 181.422 37.3933 182.362 37.4193 182.485L34.4843 183.106L31.5493 183.727C31.7209 184.538 32.2558 185.91 33.7915 186.534C35.1662 187.093 36.4238 186.649 37.0424 186.366L35.7934 183.638ZM34.4843 183.106L37.4193 182.485L37.2011 181.454L34.2661 182.075L31.3311 182.696L31.5493 183.727L34.4843 183.106ZM34.2661 182.075L37.2011 181.454L36.9828 180.423L34.0478 181.044L31.1128 181.665L31.3311 182.696L34.2661 182.075ZM34.0478 181.044L36.9828 180.423C36.885 179.96 36.8428 179.502 36.8539 179.043L33.8548 178.97L30.8557 178.898C30.8332 179.828 30.9196 180.752 31.1128 181.665L34.0478 181.044ZM33.8548 178.97L36.8539 179.043L36.8791 178.001L33.88 177.928L30.8809 177.856L30.8557 178.898L33.8548 178.97ZM33.88 177.928L36.8791 178.001L36.9043 176.959L33.9052 176.886L30.9061 176.814L30.8809 177.856L33.88 177.928ZM33.9052 176.886L36.9043 176.959C36.9277 175.99 36.8184 175.006 36.6042 174.017L33.6722 174.652L30.7401 175.287C30.8703 175.888 30.9162 176.393 30.9061 176.814L33.9052 176.886ZM33.6722 174.652L36.6042 174.017L36.346 172.825L33.4139 173.46L30.4819 174.094L30.7401 175.287L33.6722 174.652ZM33.4139 173.46L36.346 172.825L36.0877 171.632L33.1557 172.267L30.2237 172.902L30.4819 174.094L33.4139 173.46ZM33.1557 172.267L36.0877 171.632C36.0523 171.469 36.0731 171.411 36.1077 171.341L33.4137 170.021L30.7197 168.701C30.066 170.035 29.9147 171.476 30.2237 172.902L33.1557 172.267ZM33.4137 170.021L36.1077 171.341L36.624 170.287L33.93 168.967L31.236 167.647L30.7197 168.701L33.4137 170.021ZM33.93 168.967L36.624 170.287L37.1403 169.234L34.4462 167.914L31.7522 166.594L31.236 167.647L33.93 168.967ZM34.4462 167.914L37.1403 169.234C37.6113 168.272 37.9369 167.261 38.1101 166.207L35.1498 165.721L32.1896 165.234C32.113 165.699 31.9695 166.15 31.7522 166.594L34.4462 167.914ZM35.1498 165.721L38.1101 166.207L38.2974 165.068L35.3372 164.581L32.3769 164.095L32.1896 165.234L35.1498 165.721ZM35.3372 164.581L38.2974 165.068L38.4847 163.929L35.5245 163.442L32.5642 162.955L32.3769 164.095L35.3372 164.581ZM35.5245 163.442L38.4847 163.929C38.7022 162.606 38.5428 161.299 38.0367 160.068L35.2621 161.209L32.4875 162.35C32.581 162.577 32.5965 162.759 32.5642 162.955L35.5245 163.442ZM35.2621 161.209L38.0367 160.068L37.5869 158.974L34.8123 160.115L32.0377 161.256L32.4875 162.35L35.2621 161.209ZM34.8123 160.115L37.5869 158.974L37.1371 157.88L34.3625 159.021L31.5879 160.162L32.0377 161.256L34.8123 160.115ZM34.3625 159.021L37.1371 157.88C36.8498 157.182 36.5868 156.509 36.3476 155.862L33.5338 156.903L30.7201 157.943C30.9861 158.663 31.2755 159.402 31.5879 160.162L34.3625 159.021ZM33.5338 156.903L36.3476 155.862L35.9687 154.837L33.1549 155.878L30.3411 156.918L30.7201 157.943L33.5338 156.903ZM33.1549 155.878L35.9687 154.837L35.5898 153.813L32.776 154.853L29.9622 155.894L30.3411 156.918L33.1549 155.878ZM32.776 154.853L35.5898 153.813C35.207 152.778 34.6433 151.84 33.9116 151.014L31.6662 153.004L29.4209 154.993C29.6636 155.267 29.8397 155.563 29.9622 155.894L32.776 154.853ZM31.6662 153.004L33.9116 151.014L33.1807 150.189L30.9354 152.179L28.69 154.169L29.4209 154.993L31.6662 153.004ZM30.9354 152.179L33.1807 150.189L32.4499 149.365L30.2046 151.354L27.9592 153.344L28.69 154.169L30.9354 152.179ZM30.2046 151.354L32.4499 149.365C31.7914 148.621 31.0444 147.97 30.2168 147.411L28.5368 149.896L26.8568 152.382C27.2784 152.667 27.6432 152.987 27.9592 153.344L30.2046 151.354ZM28.5368 149.896L30.2168 147.411L29.2799 146.777L27.5999 149.263L25.9199 151.748L26.8568 152.382L28.5368 149.896ZM27.5999 149.263L29.2799 146.777L28.3429 146.144L26.663 148.63L24.983 151.115L25.9199 151.748L27.5999 149.263ZM26.663 148.63L28.3429 146.144C27.5274 145.593 26.6554 145.139 25.7321 144.783L24.6523 147.582L23.5725 150.381C24.0808 150.577 24.5493 150.822 24.983 151.115L26.663 148.63ZM24.6523 147.582L25.7321 144.783L24.6583 144.369L23.5785 147.168L22.4987 149.967L23.5725 150.381L24.6523 147.582ZM23.5785 147.168L24.6583 144.369L23.5845 143.955L22.5047 146.753L21.4249 149.552L22.4987 149.967L23.5785 147.168ZM22.5047 146.753L23.5845 143.955C22.4247 143.507 21.2091 143.347 19.9776 143.453L20.2332 146.442L20.4888 149.431C20.8542 149.4 21.153 149.448 21.4249 149.552L22.5047 146.753ZM20.2332 146.442L19.9776 143.453L18.7799 143.555L19.0355 146.544L19.2911 149.533L20.4888 149.431L20.2332 146.442ZM19.0355 146.544L18.7799 143.555L17.5822 143.657L17.8378 146.647L18.0934 149.636L19.2911 149.533L19.0355 146.544ZM17.8378 146.647L17.5822 143.657C17.4913 143.665 17.4472 143.656 17.4317 143.652C17.4172 143.648 17.3872 143.639 17.3338 143.604L15.6655 146.097L13.9973 148.59C15.2286 149.414 16.6345 149.76 18.0934 149.636L17.8378 146.647ZM15.6655 146.097L17.3338 143.604L16.3592 142.951L14.691 145.445L13.0227 147.938L13.9973 148.59L15.6655 146.097ZM14.691 145.445L16.3592 142.951L15.3847 142.299L13.7164 144.793L12.0482 147.286L13.0227 147.938L14.691 145.445ZM13.7164 144.793L15.3847 142.299C14.7433 141.87 14.1325 141.457 13.5521 141.059L11.8565 143.534L10.1609 146.009C10.761 146.42 11.3902 146.846 12.0482 147.286L13.7164 144.793ZM11.8565 143.534L13.5521 141.059L12.6667 140.453L10.9712 142.928L9.27558 145.402L10.1609 146.009L11.8565 143.534ZM10.9712 142.928L12.6667 140.453L11.7814 139.846L10.0858 142.321L8.39022 144.796L9.27558 145.402L10.9712 142.928ZM10.0858 142.321L11.7814 139.846C11.1484 139.412 10.4786 138.978 9.77284 138.542L8.19639 141.094L6.61994 143.647C7.25291 144.038 7.8427 144.421 8.39022 144.796L10.0858 142.321ZM8.19639 141.094L9.77284 138.542L8.76878 137.922L7.19233 140.474L5.61588 143.027L6.61994 143.647L8.19639 141.094ZM7.19233 140.474L8.76878 137.922L7.76472 137.302L6.18827 139.854L4.61183 142.406L5.61588 143.027L7.19233 140.474ZM6.18827 139.854L7.76472 137.302C7.83219 137.343 8.34107 137.685 8.51932 138.472C8.69503 139.247 8.3909 139.76 8.36377 139.804L5.81736 138.217L3.27095 136.631C2.82173 137.353 2.36837 138.477 2.66772 139.798C2.9696 141.13 3.87499 141.951 4.61183 142.406L6.18827 139.854ZM5.81736 138.217L8.36377 139.804L8.99691 138.787L6.4505 137.201L3.9041 135.615L3.27095 136.631L5.81736 138.217ZM6.4505 137.201L8.99691 138.787L9.63006 137.771L7.08365 136.185L4.53724 134.598L3.9041 135.615L6.4505 137.201ZM7.08365 136.185L9.63006 137.771C10.2536 136.77 10.673 135.679 10.8795 134.518L7.92593 133.993L4.97231 133.467C4.90004 133.873 4.75791 134.244 4.53724 134.598L7.08365 136.185ZM7.92593 133.993L10.8795 134.518L11.0887 133.343L8.13506 132.817L5.18145 132.292L4.97231 133.467L7.92593 133.993ZM8.13506 132.817L11.0887 133.343L11.2978 132.167L8.3442 131.642L5.39058 131.116L5.18145 132.292L8.13506 132.817ZM8.3442 131.642L11.2978 132.167C11.3377 131.943 11.4095 131.826 11.5072 131.725L9.3477 129.643L7.18824 127.56C6.22675 128.557 5.62955 129.773 5.39058 131.116L8.3442 131.642ZM9.3477 129.643L11.5072 131.725L12.3015 130.901L10.1421 128.819L7.98261 126.736L7.18824 127.56L9.3477 129.643ZM10.1421 128.819L12.3015 130.901L13.0959 130.078L10.9364 127.995L8.77697 125.913L7.98261 126.736L10.1421 128.819ZM10.9364 127.995L13.0959 130.078C13.6209 129.533 14.1545 128.983 14.6966 128.428L12.5504 126.332L10.4043 124.236C9.85351 124.8 9.31108 125.359 8.77697 125.913L10.9364 127.995ZM12.5504 126.332L14.6966 128.428L15.5162 127.589L13.37 125.493L11.2239 123.397L10.4043 124.236L12.5504 126.332ZM13.37 125.493L15.5162 127.589L16.3358 126.75L14.1896 124.654L12.0435 122.558L11.2239 123.397L13.37 125.493ZM14.1896 124.654L16.3358 126.75C17.4021 125.658 17.9862 124.29 18.076 122.789L15.0814 122.61L12.0868 122.431C12.0843 122.472 12.0795 122.498 12.0766 122.51C12.0739 122.522 12.072 122.525 12.0727 122.524C12.0734 122.522 12.0738 122.522 12.0719 122.525C12.0698 122.528 12.0619 122.539 12.0435 122.558L14.1896 124.654ZM15.0814 122.61L18.076 122.789L18.1482 121.584L15.1535 121.405L12.1589 121.226L12.0868 122.431L15.0814 122.61ZM15.1535 121.405L18.1482 121.584L18.2203 120.38L15.2257 120.2L12.231 120.021L12.1589 121.226L15.1535 121.405ZM15.2257 120.2L18.2203 120.38C18.2553 119.795 18.35 119.283 18.4905 118.83L15.6255 117.94L12.7605 117.05C12.4641 118.005 12.2922 118.999 12.231 120.021L15.2257 120.2ZM15.6255 117.94L18.4905 118.83L18.8182 117.775L15.9532 116.885L13.0883 115.995L12.7605 117.05L15.6255 117.94ZM15.9532 116.885L18.8182 117.775L19.1459 116.72L16.2809 115.83L13.416 114.94L13.0883 115.995L15.9532 116.885ZM16.2809 115.83L19.1459 116.72C19.466 115.69 19.6051 114.628 19.5611 113.55L16.5636 113.672L13.5661 113.795C13.5821 114.187 13.5328 114.564 13.416 114.94L16.2809 115.83ZM16.5636 113.672L19.5611 113.55L19.516 112.447L16.5185 112.569L13.521 112.692L13.5661 113.795L16.5636 113.672ZM16.5185 112.569L19.516 112.447L19.471 111.344L16.4735 111.466L13.476 111.589L13.521 112.692L16.5185 112.569ZM16.4735 111.466L19.471 111.344C19.427 110.267 19.2028 109.221 18.7983 108.223L16.0177 109.349L13.2372 110.475C13.3803 110.829 13.4599 111.195 13.476 111.589L16.4735 111.466ZM16.0177 109.349L18.7983 108.223L18.3876 107.209L15.607 108.335L12.8265 109.462L13.2372 110.475L16.0177 109.349ZM15.607 108.335L18.3876 107.209L17.9769 106.195L15.1963 107.321L12.4158 108.448L12.8265 109.462L15.607 108.335ZM15.1963 107.321L17.9769 106.195C17.7914 105.737 17.6495 105.234 17.5581 104.677L14.5977 105.163L11.6373 105.649C11.7965 106.618 12.0536 107.554 12.4158 108.448L15.1963 107.321ZM14.5977 105.163L17.5581 104.677L17.3701 103.532L14.4098 104.018L11.4494 104.504L11.6373 105.649L14.5977 105.163ZM14.4098 104.018L17.3701 103.532L17.1822 102.388L14.2219 102.874L11.2615 103.36L11.4494 104.504L14.4098 104.018ZM14.2219 102.874L17.1822 102.388C16.9328 100.868 16.1545 99.5754 14.9386 98.6399L13.1093 101.018L11.28 103.395C11.299 103.41 11.3036 103.416 11.2994 103.412C11.295 103.407 11.2862 103.396 11.2767 103.38C11.2671 103.364 11.2612 103.35 11.2584 103.342C11.2557 103.335 11.2581 103.339 11.2615 103.36L14.2219 102.874ZM13.1093 101.018L14.9386 98.6399L14.0139 97.9286L12.1846 100.306L10.3553 102.684L11.28 103.395L13.1093 101.018ZM12.1846 100.306L14.0139 97.9286L13.0892 97.2172L11.2599 99.5949L9.43063 101.973L10.3553 102.684L12.1846 100.306ZM11.2599 99.5949L13.0892 97.2172C12.5831 96.8279 12.1118 96.4094 11.6739 95.9615L9.52892 98.0589L7.38394 100.156C8.02113 100.808 8.70379 101.413 9.43063 101.973L11.2599 99.5949ZM9.52892 98.0589L11.6739 95.9615L10.8676 95.1369L8.7226 97.2343L6.57762 99.3317L7.38394 100.156L9.52892 98.0589ZM8.7226 97.2343L10.8676 95.1369L10.0613 94.3123L7.91628 96.4097L5.7713 98.5071L6.57762 99.3317L8.7226 97.2343ZM7.91628 96.4097L10.0613 94.3123C10.0236 94.2738 9.95864 94.2054 9.92688 93.9557L6.95086 94.3343L3.97484 94.7129C4.15522 96.1309 4.73384 97.4461 5.7713 98.5071L7.91628 96.4097ZM6.95086 94.3343L9.92688 93.9557L9.76777 92.7049L6.79175 93.0835L3.81573 93.4621L3.97484 94.7129L6.95086 94.3343ZM6.79175 93.0835L9.76777 92.7049L9.60867 91.4542L6.63265 91.8327L3.65663 92.2113L3.81573 93.4621L6.79175 93.0835ZM6.63265 91.8327L9.60867 91.4542C9.43802 90.1127 8.93908 88.8604 8.07406 87.7867L5.7379 89.6688L3.40174 91.5509C3.51758 91.6947 3.61513 91.8851 3.65663 92.2113L6.63265 91.8327ZM5.7379 89.6688L8.07406 87.7867L7.33842 86.8736L5.00226 88.7557L2.66609 90.6378L3.40174 91.5509L5.7379 89.6688ZM5.00226 88.7557L7.33842 86.8736L6.60278 85.9605L4.26661 87.8426L1.93045 89.7247L2.66609 90.6378L5.00226 88.7557ZM4.26661 87.8426L6.60278 85.9605C6.64309 86.0105 6.76243 86.1887 6.80219 86.478C6.8418 86.7662 6.77502 86.9654 6.75327 87.0166L3.99195 85.844L1.23062 84.6714C0.901557 85.4462 0.726894 86.3404 0.85806 87.2948C0.989373 88.2503 1.39971 89.0659 1.93045 89.7247L4.26661 87.8426ZM3.99195 85.844L6.75327 87.0166L7.21425 85.9311L4.45292 84.7585L1.69159 83.5858L1.23062 84.6714L3.99195 85.844ZM4.45292 84.7585L7.21425 85.9311L7.67522 84.8456L4.9139 83.673L2.15257 82.5003L1.69159 83.5858L4.45292 84.7585ZM4.9139 83.673L7.67522 84.8456C7.73877 84.696 7.80141 84.6324 7.90801 84.5687L6.36938 81.9933L4.83075 79.4179C3.61133 80.1465 2.70366 81.2026 2.15257 82.5003L4.9139 83.673ZM6.36938 81.9933L7.90801 84.5687L8.90251 83.9745L7.36388 81.3992L5.82525 78.8238L4.83075 79.4179L6.36938 81.9933ZM7.36388 81.3992L8.90251 83.9745L9.89702 83.3804L8.35839 80.805L6.81976 78.2296L5.82525 78.8238L7.36388 81.3992ZM8.35839 80.805L9.89702 83.3804C10.0595 83.2833 10.253 83.2186 10.5534 83.2212L10.5789 80.2213L10.6045 77.2214C9.27019 77.21 7.98331 77.5345 6.81976 78.2296L8.35839 80.805ZM10.5789 80.2213L10.5534 83.2212L11.7794 83.2316L11.805 80.2318L11.8305 77.2319L10.6045 77.2214L10.5789 80.2213ZM11.805 80.2318L11.7794 83.2316L13.0055 83.2421L13.031 80.2422L13.0566 77.2423L11.8305 77.2319L11.805 80.2318ZM13.031 80.2422L13.0055 83.2421C14.7838 83.2572 16.3277 82.4807 17.3965 81.0931L15.0198 79.2624L12.6431 77.4318C12.6328 77.4451 12.6856 77.3753 12.8154 77.3113C12.8752 77.2819 12.933 77.263 12.9819 77.2525C13.0297 77.2421 13.0569 77.2423 13.0566 77.2423L13.031 80.2422ZM15.0198 79.2624L17.3965 81.0931L18.1592 80.1028L15.7825 78.2722L13.4058 76.4415L12.6431 77.4318L15.0198 79.2624ZM15.7825 78.2722L18.1592 80.1028L18.9219 79.1126L16.5452 77.282L14.1685 75.4513L13.4058 76.4415L15.7825 78.2722ZM16.5452 77.282L18.9219 79.1126C19.2835 78.6431 19.6273 78.3146 19.9405 78.087L18.1766 75.6603L16.4127 73.2337C15.5677 73.8479 14.8239 74.6005 14.1685 75.4513L16.5452 77.282ZM18.1766 75.6603L19.9405 78.087L20.8091 77.4556L19.0453 75.0289L17.2814 72.6023L16.4127 73.2337L18.1766 75.6603ZM19.0453 75.0289L20.8091 77.4556L21.6778 76.8242L19.9139 74.3975L18.1501 71.9709L17.2814 72.6023L19.0453 75.0289ZM19.9139 74.3975L21.6778 76.8242C22.6037 76.1512 23.3597 75.3047 23.9176 74.3013L21.2956 72.8435L18.6737 71.3856C18.5475 71.6125 18.3823 71.802 18.1501 71.9709L19.9139 74.3975ZM21.2956 72.8435L23.9176 74.3013L24.4306 73.3786L21.8087 71.9208L19.1867 70.4629L18.6737 71.3856L21.2956 72.8435ZM21.8087 71.9208L24.4306 73.3786L24.9437 72.456L22.3217 70.9981L19.6998 69.5402L19.1867 70.4629L21.8087 71.9208ZM22.3217 70.9981L24.9437 72.456C25.1104 72.1561 25.3673 71.8197 25.7605 71.4562L23.7241 69.2533L21.6876 67.0504C20.895 67.783 20.2171 68.6098 19.6998 69.5402L22.3217 70.9981ZM23.7241 69.2533L25.7605 71.4562L26.6499 70.634L24.6134 68.4311L22.5769 66.2282L21.6876 67.0504L23.7241 69.2533ZM24.6134 68.4311L26.6499 70.634L27.5392 69.8119L25.5027 67.609L23.4662 65.4061L22.5769 66.2282L24.6134 68.4311ZM25.5027 67.609L27.5392 69.8119C28.551 68.8765 29.2584 67.7048 29.5767 66.3413L26.6552 65.6594L23.7337 64.9775C23.7011 65.1172 23.6402 65.2453 23.4662 65.4061L25.5027 67.609ZM26.6552 65.6594L29.5767 66.3413L29.8398 65.2138L26.9184 64.5319L23.9969 63.85L23.7337 64.9775L26.6552 65.6594ZM26.9184 64.5319L29.8398 65.2138L30.103 64.0864L27.1815 63.4044L24.2601 62.7225L23.9969 63.85L26.9184 64.5319ZM27.1815 63.4044L30.103 64.0864C30.4555 62.5762 30.213 61.1011 29.5375 59.7815L26.867 61.1484L24.1965 62.5153C24.2535 62.6265 24.262 62.6824 24.2632 62.6909C24.264 62.6968 24.2639 62.699 24.2639 62.6999C24.2638 62.701 24.2635 62.7078 24.2601 62.7225L27.1815 63.4044ZM26.867 61.1484L29.5375 59.7815L28.9598 58.6528L26.2893 60.0198L23.6188 61.3867L24.1965 62.5153L26.867 61.1484ZM26.2893 60.0198L28.9598 58.6528L28.3821 57.5242L25.7116 58.8912L23.0411 60.2581L23.6188 61.3867L26.2893 60.0198ZM25.7116 58.8912L28.3821 57.5242C28.2676 57.3006 28.2918 57.2261 28.2964 57.2025L25.3502 56.6366L22.4041 56.0707C22.1202 57.5483 22.3854 58.9769 23.0411 60.2581L25.7116 58.8912ZM25.3502 56.6366L28.2964 57.2025L28.5126 56.0766L25.5665 55.5107L22.6204 54.9447L22.4041 56.0707L25.3502 56.6366ZM25.5665 55.5107L28.5126 56.0766L28.7289 54.9507L25.7828 54.3848L22.8366 53.8188L22.6204 54.9447L25.5665 55.5107ZM25.7828 54.3848L28.7289 54.9507C28.9076 54.0205 29.0009 53.078 29.0098 52.1257L26.0099 52.0976L23.0101 52.0696C23.0045 52.6655 22.9463 53.2478 22.8366 53.8188L25.7828 54.3848ZM26.0099 52.0976L29.0098 52.1257L29.0207 50.9645L26.0208 50.9365L23.0209 50.9084L23.0101 52.0696L26.0099 52.0976ZM26.0208 50.9365L29.0207 50.9645L29.0315 49.8034L26.0316 49.7753L23.0318 49.7472L23.0209 50.9084L26.0208 50.9365ZM26.0316 49.7753L29.0315 49.8034C29.0419 48.6913 28.867 47.602 28.5071 46.5502L25.6686 47.5213L22.8301 48.4924C22.9688 48.8977 23.0359 49.3111 23.0318 49.7472L26.0316 49.7753ZM25.6686 47.5213L28.5071 46.5502L28.1332 45.4573L25.2947 46.4284L22.4563 47.3995L22.8301 48.4924L25.6686 47.5213ZM25.2947 46.4284L28.1332 45.4573L27.7593 44.3645L24.9209 45.3356L22.0824 46.3067L22.4563 47.3995L25.2947 46.4284ZM24.9209 45.3356L27.7593 44.3645C27.7483 44.3323 27.7441 44.3118 27.7424 44.3017C27.7408 44.2919 27.7409 44.2875 27.7409 44.2866C27.7409 44.2856 27.7409 44.2818 27.7426 44.2731C27.7444 44.2641 27.7488 44.2452 27.76 44.2153L24.9499 43.1649L22.1398 42.1144C21.6271 43.4859 21.6093 44.924 22.0824 46.3067L24.9209 45.3356ZM24.9499 43.1649L27.76 44.2153L28.1629 43.1374L25.3528 42.087L22.5427 41.0366L22.1398 42.1144L24.9499 43.1649ZM25.3528 42.087L28.1629 43.1374L28.5658 42.0596L25.7557 41.0092L22.9456 39.9588L22.5427 41.0366L25.3528 42.087ZM25.7557 41.0092L28.5658 42.0596C28.9232 41.1035 29.1564 40.1132 29.2663 39.095L26.2836 38.773L23.301 38.451C23.2441 38.9773 23.1254 39.4778 22.9456 39.9588L25.7557 41.0092ZM26.2836 38.773L29.2663 39.095L29.3914 37.9367L26.4087 37.6147L23.426 37.2926L23.301 38.451L26.2836 38.773ZM26.4087 37.6147L29.3914 37.9367L29.5164 36.7783L26.5338 36.4563L23.5511 36.1343L23.426 37.2926L26.4087 37.6147ZM26.5338 36.4563L29.5164 36.7783C29.5157 36.7854 29.5118 36.813 29.498 36.8546C29.4839 36.8969 29.4631 36.9425 29.4361 36.9864C29.3779 37.0809 29.3293 37.1069 29.3641 37.0832L27.672 34.6059L25.98 32.1286C24.6237 33.055 23.7343 34.4378 23.5511 36.1343L26.5338 36.4563ZM27.672 34.6059L29.3641 37.0832L30.3773 36.3912L28.6853 33.9139L26.9932 31.4366L25.98 32.1286L27.672 34.6059ZM28.6853 33.9139L30.3773 36.3912L31.3905 35.6992L29.6985 33.2218L28.0064 30.7445L26.9932 31.4366L28.6853 33.9139ZM29.6985 33.2218L31.3905 35.6992C31.3924 35.6979 31.3196 35.7447 31.1878 35.764C31.0569 35.7831 30.9798 35.7587 30.9932 35.7629L31.8926 32.9009L32.7919 30.0389C31.1366 29.5187 29.4489 29.7593 28.0064 30.7445L29.6985 33.2218ZM31.8926 32.9009L30.9932 35.7629L32.174 36.134L33.0734 33.272L33.9728 30.41L32.7919 30.0389L31.8926 32.9009ZM33.0734 33.272L32.174 36.134L33.3549 36.5051L34.2543 33.6431L35.1537 30.7811L33.9728 30.41L33.0734 33.272ZM34.2543 33.6431L33.3549 36.5051C34.5762 36.8889 35.8484 36.9897 37.1248 36.7442L36.5582 33.7982L35.9916 30.8522C35.7706 30.8947 35.5068 30.892 35.1537 30.7811L34.2543 33.6431ZM36.5582 33.7982L37.1248 36.7442L38.2478 36.5282L37.6812 33.5822L37.1146 30.6362L35.9916 30.8522L36.5582 33.7982ZM37.6812 33.5822L38.2478 36.5282L39.3708 36.3122L38.8042 33.3662L38.2376 30.4202L37.1146 30.6362L37.6812 33.5822ZM38.8042 33.3662L39.3708 36.3122C39.6338 36.2616 39.8859 36.2724 40.1693 36.3582L41.0392 33.4871L41.9091 30.616C40.7099 30.2526 39.472 30.1828 38.2376 30.4202L38.8042 33.3662ZM41.0392 33.4871L40.1693 36.3582L41.2812 36.6951L42.1511 33.824L43.021 30.9529L41.9091 30.616L41.0392 33.4871ZM42.1511 33.824L41.2812 36.6951L42.3931 37.032L43.263 34.1609L44.1329 31.2898L43.021 30.9529L42.1511 33.824ZM43.263 34.1609L42.3931 37.032C43.5123 37.3711 44.6652 37.4838 45.8289 37.3626L45.518 34.3787L45.2072 31.3949C44.8467 31.4324 44.4963 31.3999 44.1329 31.2898L43.263 34.1609ZM45.518 34.3787L45.8289 37.3626L46.972 37.2435L46.6611 34.2596L46.3503 31.2758L45.2072 31.3949L45.518 34.3787ZM46.6611 34.2596L46.972 37.2435L48.1151 37.1244L47.8043 34.1405L47.4934 31.1567L46.3503 31.2758L46.6611 34.2596ZM47.8043 34.1405L48.1151 37.1244C49.1007 37.0217 50.0649 36.8101 51.0037 36.4909L50.0379 33.6506L49.0721 30.8103C48.5569 30.9855 48.032 31.1006 47.4934 31.1567L47.8043 34.1405ZM50.0379 33.6506L51.0037 36.4909L52.0942 36.1201L51.1284 33.2798L50.1627 30.4395L49.0721 30.8103L50.0379 33.6506ZM51.1284 33.2798L52.0942 36.1201L53.1848 35.7493L52.219 32.909L51.2532 30.0687L50.1627 30.4395L51.1284 33.2798ZM52.219 32.909L53.1848 35.7493C53.5111 35.6383 53.8924 35.5815 54.3593 35.6114L54.5506 32.6175L54.7419 29.6236C53.554 29.5477 52.3809 29.6852 51.2532 30.0687L52.219 32.909ZM54.5506 32.6175L54.3593 35.6114L55.6003 35.6907L55.7917 32.6968L55.983 29.7029L54.7419 29.6236L54.5506 32.6175ZM55.7917 32.6968L55.6003 35.6907L56.8414 35.77L57.0327 32.7761L57.224 29.7822L55.983 29.7029L55.7917 32.6968ZM57.0327 32.7761L56.8414 35.77C57.7114 35.8256 58.6325 35.6855 59.5043 35.2373C60.3737 34.7902 61.0207 34.1258 61.4826 33.3977L58.9494 31.7905L56.4162 30.1834C56.4277 30.1652 56.53 30.0199 56.7606 29.9014C56.9934 29.7817 57.1815 29.7795 57.224 29.7822L57.0327 32.7761ZM58.9494 31.7905L61.4826 33.3977L62.1581 32.3329L59.625 30.7257L57.0918 29.1185L56.4162 30.1834L58.9494 31.7905ZM59.625 30.7257L62.1581 32.3329L62.8337 31.268L60.3006 29.6609L57.7674 28.0537L57.0918 29.1185L59.625 30.7257ZM60.3006 29.6609L62.8337 31.268C63.1959 30.6972 63.553 30.2401 63.897 29.8785L61.7238 27.8104L59.5506 25.7422C58.8978 26.4282 58.306 27.2047 57.7674 28.0537L60.3006 29.6609ZM61.7238 27.8104L63.897 29.8785L64.6447 29.0929L62.4715 27.0248L60.2983 24.9566L59.5506 25.7422L61.7238 27.8104ZM62.4715 27.0248L64.6447 29.0929L65.3923 28.3073L63.2191 26.2391L61.0459 24.171L60.2983 24.9566L62.4715 27.0248ZM63.2191 26.2391L65.3923 28.3073C65.8655 27.8101 66.3702 27.2981 66.9069 26.7712L64.8053 24.6304L62.7037 22.4895C62.1224 23.0601 61.5697 23.6206 61.0459 24.171L63.2191 26.2391ZM64.8053 24.6304L66.9069 26.7712L67.7454 25.9481L65.6438 23.8072L63.5423 21.6663L62.7037 22.4895L64.8053 24.6304ZM65.6438 23.8072L67.7454 25.9481L68.584 25.1249L66.4824 22.9841L64.3808 20.8432L63.5423 21.6663L65.6438 23.8072ZM66.4824 22.9841L68.584 25.1249C69.713 24.0166 70.4049 22.4757 70.1302 20.6944L67.1652 21.1517L64.2003 21.609C64.1777 21.4622 64.188 21.2633 64.2612 21.0668C64.3288 20.8855 64.4089 20.8156 64.3808 20.8432L66.4824 22.9841ZM67.1652 21.1517L70.1302 20.6944L69.9745 19.6851L67.0096 20.1424L64.0446 20.5997L64.2003 21.609L67.1652 21.1517ZM67.0096 20.1424L69.9745 19.6851L69.8189 18.6759L66.8539 19.1332L63.889 19.5905L64.0446 20.5997L67.0096 20.1424ZM66.8539 19.1332L69.8189 18.6759C69.7712 18.3669 69.8252 18.5051 69.7783 18.8289C69.7635 18.9317 69.6682 19.6624 69.0247 20.3266C68.6458 20.7176 68.123 21.0329 67.4944 21.1552C66.8995 21.271 66.3978 21.1779 66.0709 21.0732L66.9866 18.2163L67.9023 15.3595C67.5273 15.2393 66.9822 15.1424 66.3485 15.2656C65.6811 15.3955 65.1241 15.7299 64.7157 16.1514C64.013 16.8765 63.8772 17.7141 63.8402 17.9697C63.7491 18.5991 63.8329 19.2266 63.889 19.5905L66.8539 19.1332ZM66.9866 18.2163L66.0709 21.0732L66.3592 21.1656L67.2749 18.3087L68.1906 15.4519L67.9023 15.3595L66.9866 18.2163ZM67.2749 18.3087L66.3592 21.1656L66.6475 21.258L67.5632 18.4011L68.4789 15.5443L68.1906 15.4519L67.2749 18.3087ZM67.5632 18.4011L66.6475 21.258C67.766 21.6165 68.7941 21.289 69.4662 20.8024C70.0213 20.4005 70.3257 19.9117 70.4655 19.6628C70.7603 19.138 70.9315 18.5551 71.0407 18.126L68.1334 17.3861L65.2261 16.6461C65.1474 16.9554 65.1296 16.9108 65.2343 16.7244C65.2791 16.6446 65.4882 16.275 65.9477 15.9423C66.2017 15.7584 66.5696 15.5593 67.0461 15.4639C67.5395 15.3651 68.0332 15.4015 68.4789 15.5443L67.5632 18.4011ZM68.1334 17.3861L71.0407 18.126L71.3226 17.0186L68.4152 16.2786L65.5079 15.5387L65.2261 16.6461L68.1334 17.3861Z" fill="#0B380B"/>
<path d="M55.7971 87.1197C56.1228 87.3397 56.522 87.4287 56.911 87.3616C57.3 87.2945 57.6461 87.0777 57.874 86.7578C58.102 86.4379 58.1939 86.04 58.1303 85.6504C58.0668 85.2609 57.8523 84.9126 57.5381 84.6765C55.5077 83.1365 53.3511 81.5022 51.7932 79.8431C51.6634 79.7013 51.5516 79.5707 51.4577 79.4528C51.3641 79.3363 51.2533 79.186 51.1915 79.0865C51.0404 78.8782 51.0367 78.6601 51.0738 78.9248C51.0852 79.0592 51.0118 79.2798 50.9498 79.3618C50.8929 79.4447 50.8958 79.4275 50.96 79.3918C51.0968 79.3081 51.3978 79.1765 51.7424 79.0541C53.1408 78.5621 54.9538 78.1069 56.6664 77.1192C60.5259 75.275 61.7966 69.9391 61.0202 66.4708C59.5649 61.0336 66.3892 61.6541 72.4743 61.4283C75.5961 61.2702 78.9746 61.3307 82.5434 59.3558C86.4597 57.2575 87.2863 52.1501 86.7402 48.8895C86.4306 46.2894 86.2111 43.798 86.4194 41.5988C86.4487 41.3235 86.4806 41.1015 86.5242 40.8701C86.5737 40.6088 86.6297 40.4017 86.6814 40.2507C86.7913 39.8874 86.9454 39.8717 86.6611 40.0654C86.5249 40.1481 86.3535 40.1689 86.3344 40.1653C86.306 40.1635 86.3943 40.1689 86.5308 40.2154C86.8199 40.3073 87.2783 40.5494 87.6941 40.8216C90.953 43.0642 94.1092 46.6285 97.461 49.8237C99.1658 51.4436 100.872 53.0918 103.111 54.5569C104.298 55.2181 105.461 56.2041 108 55.9588C109.28 55.8014 110.512 54.7543 110.968 53.9718C111.558 53.0255 111.721 52.4074 111.926 51.572C112.558 48.5768 113.855 45.1495 115.402 44.3281C116.494 43.4064 119.409 45.1374 121.405 47.4571C125.532 52.1725 128.735 58.2957 130.444 64.4284C130.738 65.572 130.968 66.8217 130.961 67.8526C130.961 68.3724 130.872 68.8509 130.77 69.0578C130.72 69.1631 130.703 69.1766 130.703 69.1877C130.7 69.1972 130.679 69.2279 130.535 69.2383C130.142 69.2487 129.766 69.4079 129.488 69.6883C129.21 69.9686 129.055 70.3458 129.055 70.7383C129.055 71.1309 129.21 71.5081 129.488 71.7883C129.766 72.0687 130.142 72.2279 130.535 72.2383C131.638 72.335 133.038 71.5025 133.49 70.548C134.007 69.6013 134.1 68.7668 134.158 67.978C134.241 66.4461 134.016 64.9986 133.748 63.6703C132.118 56.686 129.158 50.3536 124.567 44.6833C123.365 43.2863 122.05 41.9476 120.264 40.8689C118.589 39.7993 115.667 39.0342 113.299 40.3412C108.927 43.0917 108.304 47.127 107.312 50.4995C107.202 50.9514 107.077 51.2196 106.992 51.3392C106.888 51.4468 107.098 51.227 107.237 51.2212C107.355 51.2102 107.144 51.2195 106.832 51.0826C106.526 50.9587 106.112 50.7256 105.744 50.4811C104.15 49.4172 102.495 47.8436 100.9 46.2857C97.6176 43.1359 94.7721 39.6758 90.413 36.6254C89.7892 36.2271 89.0702 35.795 88.0896 35.4658C87.2373 35.1804 85.6704 34.8742 84.1801 35.7298C81.4604 37.6784 81.7433 39.7281 81.4643 41.0925C81.2063 44.1409 81.5095 46.7182 81.8561 49.5122C82.215 52.2651 81.7836 54.2296 80.0622 55.238C78.2502 56.3572 75.2374 56.6429 72.2875 56.7931C69.2832 56.9771 66.1644 56.8621 62.6755 57.75C60.989 58.2072 58.8317 59.1617 57.643 61.2499C56.4816 63.3327 56.6326 65.416 56.9339 67.1603C57.4971 70.1156 57.0272 72.4981 54.7221 73.868C53.5779 74.5992 52.1526 75.0436 50.4504 75.7079C50.0018 75.8958 49.5597 76.0738 48.9875 76.459C48.7246 76.6414 48.3799 76.918 48.0974 77.3205C47.7853 77.7512 47.5819 78.359 47.5931 78.9185C47.6336 79.9952 48.0641 80.5661 48.3658 81.024C48.6978 81.4866 49.0105 81.8224 49.3632 82.1788C51.419 84.1583 53.6234 85.6256 55.7971 87.1197Z" fill="#0C410C"/>
<path d="M133.423 151.632C133.29 151.262 133.02 150.955 132.666 150.779C132.312 150.604 131.905 150.575 131.532 150.699C131.159 150.824 130.85 151.091 130.672 151.443C130.494 151.795 130.462 152.203 130.577 152.579C131.3 155.012 132.139 157.764 132.165 159.805C132.173 160.086 132.051 160.379 132.129 160.179C132.176 160.075 132.383 159.897 132.515 159.858C132.648 159.813 132.641 159.832 132.567 159.817C132.203 159.772 131.337 159.416 130.574 159.058C128.976 158.32 127.273 157.46 125.294 156.918C123.36 156.377 120.875 156.19 118.67 157.274C116.466 158.338 115.058 160.263 114.127 162.064C112.973 167.17 108.347 159.368 104.993 154.8C103.121 152.264 101.389 149.571 98.2541 147.287C96.7946 146.179 93.7995 145.196 91.4508 146.493C89.2308 147.683 88.2402 149.345 87.3219 150.914C86.1129 153.071 84.9484 155.001 83.5965 156.638C82.936 157.463 82.083 158.115 81.9794 158.101C81.9799 158.099 82.0947 158.071 82.2439 158.099C82.3947 158.124 82.5082 158.197 82.5153 158.205C82.5293 158.234 82.2896 157.955 82.1215 157.606C80.6052 154.2 80.1443 149.046 79.3059 144.377C78.8786 141.975 78.4786 139.585 77.5483 136.98C76.9975 135.715 76.6709 134.248 74.5745 132.82C73.476 132.105 71.7905 132.113 70.8645 132.496C69.7873 132.902 69.2427 133.34 68.5676 133.909C66.2951 135.951 63.2425 137.952 61.4976 137.715C60.0671 137.823 58.7315 134.736 58.48 131.69C57.9147 125.467 58.9325 118.654 61.1423 112.699C61.5872 111.57 62.1355 110.42 62.7564 109.569C63.0701 109.133 63.4274 108.79 63.6399 108.675C63.7476 108.615 63.773 108.615 63.7792 108.606C63.7872 108.6 63.8211 108.586 63.9454 108.664C64.2686 108.887 64.6667 108.981 65.0563 108.918C65.4458 108.855 65.7942 108.642 66.0256 108.325C66.2571 108.008 66.3535 107.611 66.2944 107.221C66.2353 106.831 66.025 106.48 65.7138 106.241C64.8668 105.5 63.2202 105.361 62.2882 105.884C61.3174 106.356 60.7511 106.981 60.233 107.6C59.2621 108.809 58.5957 110.113 58.0207 111.377C55.2581 117.965 53.9205 124.806 54.3024 132.075C54.4537 133.908 54.7313 135.762 55.546 137.68C56.2753 139.529 58.206 141.847 60.8756 142.166C65.9976 142.493 68.8725 139.622 71.654 137.485C71.9175 134.772 73.9298 140.873 74.4418 145.186C75.3033 149.879 75.3583 154.465 77.667 159.877C78.028 160.553 78.4529 161.354 79.4566 162.159C80.3713 162.966 82.228 163.33 83.4307 162.881C85.6877 162.043 86.413 160.939 87.4218 159.832C89.1776 157.675 90.3623 155.614 91.6446 153.296C92.2828 152.096 93.0995 151.12 93.6496 150.859C93.9177 150.728 94.0529 150.702 94.3514 150.745C94.643 150.789 95.0992 150.984 95.5561 151.29C97.5024 152.612 99.4203 155.144 101.221 157.546C103.066 159.999 104.801 162.599 107.173 165.08C108.428 166.23 109.676 167.839 112.636 168.052C114.164 168.073 115.453 167.254 116.233 166.412C116.584 166.046 116.933 165.579 117.186 165.178C117.429 164.796 117.657 164.383 117.873 163.936C119.231 161.025 121.239 159.831 124.356 160.615C125.875 160.964 127.421 161.644 129.134 162.359C130.022 162.701 130.825 163.123 132.243 163.29C132.6 163.315 133.063 163.325 133.624 163.135C134.19 162.95 134.743 162.499 135.041 161.991C135.572 161.059 135.529 160.322 135.535 159.791C135.301 156.595 134.289 154.19 133.423 151.632Z" fill="#0B3D0B"/>
<path d="M160.11 71.834C159.739 71.9566 159.423 72.2146 159.236 72.5607C159.049 72.9067 159.005 73.3108 159.114 73.686C159.223 74.0612 159.477 74.3786 159.821 74.5702C160.165 74.7618 160.569 74.8104 160.948 74.7145C162.757 74.2602 164.464 73.8777 166.138 73.6972C167.059 73.5874 168.208 73.626 168.459 73.7995C168.514 73.8312 168.468 73.8317 168.405 73.7678C168.341 73.7068 168.318 73.6331 168.319 73.6726C168.326 73.7434 168.287 74.1384 168.169 74.5378C167.662 76.2652 166.601 78.3377 165.852 80.5408C165.109 82.7447 164.44 85.3334 165.122 88.1749C165.797 91.0704 168.068 93.255 170.294 94.4738C171.09 94.9089 171.704 95.4736 171.722 95.5869C171.723 95.598 171.682 95.5292 171.666 95.421C171.647 95.3087 171.668 95.1758 171.681 95.1355C171.72 95.0396 171.614 95.2391 171.393 95.4331C170.382 96.3474 168.503 97.2577 166.711 98.0699C163.037 99.7497 159.143 101.083 155.198 103.525C154.375 104.059 153.463 104.71 152.634 105.603C151.808 106.494 150.811 107.972 150.964 109.891C151.667 113.708 153.985 114.535 155.626 115.696C160.542 118.582 166.631 123.078 166.255 126.638C165.593 130.07 157.373 131.399 152.878 129.036C151.473 128.351 150.299 127.345 149.589 126.041C149.404 125.697 149.096 125.43 148.724 125.305C148.351 125.18 147.945 125.206 147.595 125.377C147.244 125.549 146.975 125.853 146.845 126.224C146.715 126.595 146.736 127.002 146.894 127.359C147.794 129.378 149.444 130.976 151.267 132.019C154.392 133.786 157.926 134.326 161.402 133.976C164.678 133.539 169.168 132.42 170.556 127.555C171.358 122.688 168.258 119.678 166.052 117.38C163.614 115.039 160.943 113.192 158.162 111.481C157.444 111.04 156.872 110.618 156.451 110.205C155.995 109.773 155.895 109.42 155.928 109.498C155.935 109.524 155.915 109.554 155.957 109.46C156.003 109.364 156.111 109.198 156.303 108.993C156.659 108.604 157.279 108.129 157.905 107.729C161.021 105.777 164.934 104.327 168.763 102.524C170.713 101.559 172.603 100.796 174.713 98.8774C175.204 98.3816 175.794 97.7527 176.175 96.6641C176.577 95.6015 176.366 94.1222 175.802 93.2421C174.668 91.5199 173.654 91.0944 172.512 90.4259C169.11 88.7722 168.5 85.8236 169.758 81.79C170.312 79.8134 171.216 77.9333 171.828 75.4166C171.955 74.7758 172.107 74.0402 171.935 73.0428C171.817 71.9949 170.76 70.7811 169.824 70.4967C168.064 69.9034 166.839 70.2052 165.676 70.3584C163.7 70.7037 161.962 71.2347 160.11 71.834Z" fill="#0B3D0B"/>
</svg>
