<svg width="100" height="100" viewBox="0 0 100 100" fill="none" xmlns="http://www.w3.org/2000/svg">
<path d="M48.0869 6.2041C49.3118 5.69687 50.6882 5.69687 51.9131 6.2041L79.6152 17.6787C80.8403 18.1862 81.8138 19.1597 82.3213 20.3848L93.7959 48.0869C94.3031 49.3118 94.3031 50.6882 93.7959 51.9131L82.3213 79.6152C81.8138 80.8403 80.8403 81.8138 79.6152 82.3213L51.9131 93.7959C50.6882 94.3031 49.3118 94.3031 48.0869 93.7959L20.3848 82.3213C19.1597 81.8138 18.1862 80.8403 17.6787 79.6152L6.2041 51.9131C5.69687 50.6882 5.69687 49.3118 6.2041 48.0869L17.6787 20.3848C18.1862 19.1597 19.1597 18.1862 20.3848 17.6787L48.0869 6.2041Z" fill="#C5C5C5" stroke="#6B6B6B" stroke-width="10"/>
</svg>
