<svg width="98" height="97" viewBox="0 0 98 97" fill="none" xmlns="http://www.w3.org/2000/svg">
<path d="M47.29 5.94336C48.3946 5.54136 49.6054 5.54136 50.71 5.94336L76.0088 15.1514C77.1133 15.5534 78.0411 16.3317 78.6289 17.3496L92.0908 40.665C92.6786 41.6831 92.8887 42.8765 92.6846 44.0342L88.0088 70.5469C87.8047 71.7045 87.1993 72.7542 86.2988 73.5098L65.6748 90.8145C64.7743 91.57 63.6364 91.9844 62.4609 91.9844H35.5391C34.3636 91.9844 33.2257 91.57 32.3252 90.8145L11.7012 73.5098C10.8007 72.7542 10.1953 71.7045 9.99121 70.5469L5.31543 44.0342C5.1113 42.8765 5.32142 41.6831 5.90918 40.665L19.3711 17.3496C19.9589 16.3317 20.8867 15.5534 21.9912 15.1514L47.29 5.94336Z" fill="#C5C5C5" stroke="#6B6B6B" stroke-width="10"/>
</svg>
