<svg width="205" height="206" viewBox="0 0 205 206" fill="none" xmlns="http://www.w3.org/2000/svg">
<path d="M14.5296 83.7773C36.5828 108.871 -22.9208 124.511 18.8543 138.248C51.5594 149.003 13.7562 186.683 50.9487 180.251C91.8276 173.181 69.9643 218.148 96.7153 195.882C125.101 172.256 137.65 224.528 145.952 185.812C153.187 152.074 196.489 196.632 177.851 156.968C162.045 123.33 223.169 135.31 194.226 110.11C165.283 84.9103 214.254 61.7878 184.05 58.9507C151.561 55.899 181.482 13.0687 153.356 24.4161C128.262 34.5407 142.707 -12.2049 110.858 9.92785C85.2557 27.7203 74.6547 -18.3093 64.1842 18.1529C55.4232 48.6623 25.5511 8.54099 33.0616 40.6639C41.3581 76.1488 -12.1897 53.3742 14.5296 83.7773Z" fill="#5F9944"/>
<path d="M15.1344 136.831L13.8882 140.102L15.1344 136.831ZM12.819 135.629L10.8541 138.525L12.819 135.629ZM10.6683 134.17L12.6333 131.274L10.6683 134.17ZM8.15806 133.031L9.11765 129.665L8.15806 133.031ZM5.28834 132.213L6.24793 128.847L5.28834 132.213ZM3.69081 128.849L0.196099 129.041L3.69081 128.849ZM3.60948 127.371L0.114768 127.564L3.60948 127.371ZM6.8401 120.33L3.39046 119.739L6.8401 120.33ZM7.32089 117.527L10.7705 118.118L7.32089 117.527ZM8.28476 115.019L5.35571 113.103L8.28476 115.019ZM9.00824 113.913L11.9373 115.829L9.00824 113.913ZM11.5056 110.857L9.31388 108.128L11.5056 110.857ZM13.6065 109.17L11.4148 106.441L13.6065 109.17ZM15.6208 107.348L13.1277 104.891L15.6208 107.348ZM16.5846 106.37L19.0777 108.826L16.5846 106.37ZM17.5484 105.391L20.0415 107.848L17.5484 105.391ZM18.5765 103.018L22.0728 103.18L18.5765 103.018ZM18.7051 100.228L15.2089 100.067L18.7051 100.228ZM18.6518 97.5947L15.1675 97.9257L18.6518 97.5947ZM18.5341 96.356L22.0185 96.025L18.5341 96.356ZM18.4165 95.1172L21.9008 94.7863L18.4165 95.1172ZM18.3312 92.5317L21.8302 92.6158L18.3312 92.5317ZM18.3636 91.185L14.8646 91.1009L18.3636 91.185ZM18.3959 89.8383L14.8969 89.7542L18.3959 89.8383ZM17.8151 87.2717L20.9423 85.6999L17.8151 87.2717ZM16.5888 84.832L13.4617 86.4039L16.5888 84.832ZM14.694 82.9328L13.0548 86.0252L14.694 82.9328ZM12.1306 81.574L13.7697 78.4816L12.1306 81.574ZM10.5767 79.5087L14.0112 78.8344L10.5767 79.5087ZM10.0325 76.7367L6.59807 77.411L10.0325 76.7367ZM9.46561 74.2666L6.08824 75.185L9.46561 74.2666ZM8.87604 72.0984L5.49867 73.0168L8.87604 72.0984ZM9.01791 70.2722L6.00135 68.4973L9.01791 70.2722ZM9.89123 68.788L12.9078 70.5629L9.89123 68.788ZM12.4517 66.7149L14.3102 69.6807L12.4517 66.7149ZM13.5136 66.0495L15.3721 69.0153L13.5136 66.0495ZM15.7719 64.7996L14.2357 61.6548L15.7719 64.7996ZM18.1647 63.6307L19.701 66.7756L18.1647 63.6307ZM20.6742 62.8059L20.044 59.3632L20.6742 62.8059ZM23.3001 62.3253L23.9303 65.7681L23.3001 62.3253ZM25.4688 61.0305L22.7511 58.825L25.4688 61.0305ZM27.1803 58.9216L29.898 61.127L27.1803 58.9216ZM29.1668 57.1825L30.9794 60.1766L29.1668 57.1825ZM30.2976 56.4979L32.1102 59.492L30.2976 56.4979ZM31.4284 55.8133L29.6158 52.8193L31.4284 55.8133ZM32.5717 53.809L29.0719 53.7758L32.5717 53.809ZM32.5968 51.1697L36.0966 51.2029L32.5968 51.1697ZM33.1466 48.5527L29.913 47.2134L33.1466 48.5527ZM33.6839 47.2554L36.9176 48.5947L33.6839 47.2554ZM34.2213 45.9581L37.4549 47.2974L34.2213 45.9581ZM34.5537 41.9231L38.0439 41.6619L34.5537 41.9231ZM34.4512 40.5543L30.961 40.8155L34.4512 40.5543ZM33.5275 37.9969L30.6481 39.9866L33.5275 37.9969ZM32.7062 36.8084L29.8268 38.7981L32.7062 36.8084ZM31.8849 35.6199L34.7643 33.6302L31.8849 35.6199ZM31.6189 33.2263L28.4402 31.7616L31.6189 33.2263ZM32.7295 30.8161L35.9083 32.2807L32.7295 30.8161ZM34.1952 29.0404L36.0539 32.006L34.1952 29.0404ZM36.0159 27.8992L37.8746 30.8649L36.0159 27.8992ZM38.1291 27.9019L39.6348 24.7424L38.1291 27.9019ZM40.5347 29.0484L39.029 32.2079L40.5347 29.0484ZM43.1103 29.5535L42.9369 26.0578L43.1103 29.5535ZM45.8558 29.4174L46.0292 32.913L45.8558 29.4174ZM48.5101 29.7116L49.4625 26.3437L48.5101 29.7116ZM51.0732 30.4364L50.1209 33.8044L51.0732 30.4364ZM53.5346 30.2235L52.0006 27.0776L53.5346 30.2235ZM55.8942 29.073L57.4281 32.219L55.8942 29.073ZM57.8784 27.5586L55.2203 25.2817L57.8784 27.5586ZM58.6829 26.6195L61.341 28.8964L58.6829 26.6195ZM59.4873 25.6804L56.8292 23.4035L59.4873 25.6804ZM61.4576 23.8448L63.5911 26.6193L61.4576 23.8448ZM62.6235 22.9482L60.49 20.1737L62.6235 22.9482ZM63.7893 22.0517L65.9229 24.8263L63.7893 22.0517ZM66.7574 14.7601L69.98 16.1256L66.7574 14.7601ZM67.7525 12.4117L70.9751 13.7773L67.7525 12.4117ZM68.6427 10.0222L71.9732 11.0984L68.6427 10.0222ZM69.0354 8.80691L72.3659 9.88305L69.0354 8.80691ZM69.4281 7.59158L66.0977 6.51544L69.4281 7.59158ZM70.8486 5.63564L68.8024 2.79609L70.8486 5.63564ZM71.8763 4.89506L73.9225 7.73459L71.8763 4.89506ZM72.904 4.15445L74.9502 6.99401L72.904 4.15445ZM74.962 4.24008L72.7722 6.97045L74.962 4.24008ZM75.9922 5.06631L78.182 2.33594L75.9922 5.06631ZM77.0224 5.89254L74.8327 8.62291L77.0224 5.89254ZM79.2096 7.28717L80.7529 4.1458L79.2096 7.28717ZM80.3665 7.85557L78.8232 10.9969L80.3665 7.85557ZM81.5235 8.42396L83.0668 5.2826L81.5235 8.42396ZM84.0832 9.22122L83.5197 12.6755L84.0832 9.22122ZM86.8888 9.67893L87.4524 6.2246L86.8888 9.67893ZM89.4654 10.361L90.726 7.09591L89.4654 10.361ZM90.6391 10.8142L89.3784 14.0793L90.6391 10.8142ZM91.8129 11.2674L90.5522 14.5325L91.8129 11.2674ZM94.1187 12.7529L91.7603 15.339L94.1187 12.7529ZM96.3827 14.8175L94.0243 17.4036L96.3827 14.8175ZM98.8833 15.4814L97.9735 12.1017L98.8833 15.4814ZM101.621 14.7445L102.53 18.1242L101.621 14.7445ZM104.264 13.9199L105.443 17.2151L104.264 13.9199ZM106.813 13.0074L105.633 9.7122L106.813 13.0074ZM109.194 11.7732L107.181 8.90997L109.194 11.7732ZM110.3 10.9951L112.313 13.8584L110.3 10.9951ZM111.407 10.2171L113.42 13.0803L111.407 10.2171ZM113.421 8.38631L110.769 6.10192L113.421 8.38631ZM115.235 6.28071L112.583 3.99632L115.235 6.28071ZM117.462 4.8658L118.388 8.24115L117.462 4.8658ZM118.782 4.50369L117.857 1.12832L118.782 4.50369ZM120.103 4.14157L119.177 0.766204L120.103 4.14157ZM122.796 3.6905L122.569 0.197827L122.796 3.6905ZM125.541 3.51258L125.767 7.00526L125.541 3.51258ZM127.708 4.50369L124.889 6.57767L127.708 4.50369ZM129.297 6.66383L132.117 4.58986L129.297 6.66383ZM130.921 8.68298L133.545 6.36632L130.921 8.68298ZM132.58 10.5612L135.203 8.2445L132.58 10.5612ZM134.179 12.5875L131.322 14.6097L134.179 12.5875ZM134.948 13.6748L132.091 15.697L134.948 13.6748ZM135.718 14.7621L138.575 12.7399L135.718 14.7621ZM137.285 16.8756L134.521 19.023L137.285 16.8756ZM138.082 17.9019L140.846 15.7545L138.082 17.9019ZM138.88 18.9282L141.643 16.7807L138.88 18.9282ZM140.149 21.2845L143.447 20.1146L140.149 21.2845ZM141.092 23.9446L137.793 25.1145L141.092 23.9446ZM142.932 25.0044L143.61 28.438L142.932 25.0044ZM145.667 24.4638L144.989 21.0302L145.667 24.4638ZM148.386 24.5631L147.462 27.939L148.386 24.5631ZM151.087 25.3022L150.163 28.6781L151.087 25.3022ZM156.219 24.5491L157.215 27.9043L156.219 24.5491ZM158.731 23.6094L160.172 26.7991L158.731 23.6094ZM161.235 22.4785L159.794 19.2889L161.235 22.4785ZM163.489 22.8699L165.905 20.3378L163.489 22.8699ZM164.492 23.8267L166.908 21.2946L164.492 23.8267ZM165.494 24.7836L163.078 27.3157L165.494 24.7836ZM166.393 27.0808L162.903 26.8089L166.393 27.0808ZM166.184 29.7617L169.673 30.0336L166.184 29.7617ZM166.591 32.4008L169.847 31.1177L166.591 32.4008ZM167.614 34.9981L164.358 36.2812L167.614 34.9981ZM167.934 37.609L164.471 37.101L167.934 37.609ZM167.741 38.9212L171.204 39.4291L167.741 38.9212ZM167.549 40.2333L171.012 40.7413L167.549 40.2333ZM167.693 42.8028L164.313 43.7098L167.693 42.8028ZM168.031 44.0601L164.65 44.9671L168.031 44.0601ZM168.368 45.3174L171.749 44.4105L168.368 45.3174ZM169.252 47.694L172.397 46.1591L169.252 47.694ZM169.798 48.8132L166.652 50.3481L169.798 48.8132ZM170.344 49.9324L173.489 48.3975L170.344 49.9324ZM171.575 52.1115L168.636 54.0115L171.575 52.1115ZM172.945 54.2312L175.885 52.3312L172.945 54.2312ZM174.686 56.1722L176.929 53.485L174.686 56.1722ZM175.742 57.0534L173.5 59.7407L175.742 57.0534ZM176.798 57.9346L174.556 60.6218L176.798 57.9346ZM179.185 59.1188L178.408 62.5314L179.185 59.1188ZM181.847 59.7248L181.07 63.1375L181.847 59.7248ZM184.597 59.6167L185.571 62.9785L184.597 59.6167ZM187.437 58.7944L186.463 55.4325L187.437 58.7944ZM190.066 59.1494L188.194 62.1065L190.066 59.1494ZM192.486 60.6816L194.359 57.7245L192.486 60.6816ZM193.603 62.7472L197.094 62.9984L193.603 62.7472ZM193.509 64.0467L190.018 63.7956L193.509 64.0467ZM193.416 65.3462L189.925 65.0951L193.416 65.3462ZM193.26 68.0395L196.756 68.1962L193.26 68.0395ZM193.198 69.4333L189.701 69.2766L193.198 69.4333ZM193.135 70.8271L196.632 70.9837L193.135 70.8271ZM191.913 73.1017L189.796 70.3147L191.913 73.1017ZM189.594 74.8633L191.711 77.6503L189.594 74.8633ZM188.14 77.0693L184.724 76.31L188.14 77.0693ZM187.846 78.3944L184.429 77.6351L187.846 78.3944ZM187.551 79.7195L190.968 80.4787L187.551 79.7195ZM186.422 82.1761L189.239 84.2535L186.422 82.1761ZM185.588 83.3076L182.771 81.2302L185.588 83.3076ZM184.753 84.439L187.57 86.5165L184.753 84.439ZM185.664 89.8184L188.902 88.488L185.664 89.8184ZM185.687 92.5869L188.921 93.9246L185.687 92.5869ZM185.127 93.9394L181.893 92.6017L185.127 93.9394ZM184.568 95.292L187.802 96.6298L184.568 95.292ZM184.701 97.8289L187.722 96.0614L184.701 97.8289ZM186.087 100.198L183.066 101.965L186.087 100.198ZM187.336 102.627L184.14 104.053L187.336 102.627ZM188.447 105.116L191.643 103.689L188.447 105.116ZM189.987 107.276L192.37 104.713L189.987 107.276ZM190.972 108.192L188.589 110.755L190.972 108.192ZM191.957 109.107L194.34 106.543L191.957 109.107ZM194.067 110.77L196.003 107.853L194.067 110.77ZM196.319 112.264L194.384 115.18L196.319 112.264ZM198.187 114.084L201.066 112.094L198.187 114.084ZM198.928 115.157L196.049 117.147L198.928 115.157ZM199.67 116.23L196.791 118.22L199.67 116.23ZM200.503 118.437L197.015 118.718L200.503 118.437ZM200.595 119.57L204.083 119.289L200.595 119.57ZM200.686 120.704L197.198 120.986L200.686 120.704ZM200.25 122.789L203.31 124.488L200.25 122.789ZM199.194 124.691L196.134 122.991L199.194 124.691ZM197.63 126.44L199.768 129.211L197.63 126.44ZM195.559 128.038L193.421 125.267L195.559 128.038ZM193.16 129.008L193.597 132.481L193.16 129.008ZM190.432 129.351L189.996 125.878L190.432 129.351ZM187.903 130.188L189.639 133.227L187.903 130.188ZM183.3 132.976L185.336 135.823L183.3 132.976ZM181.084 134.56L179.048 131.713L181.084 134.56ZM178.943 136.319L176.552 133.763L178.943 136.319ZM176.874 138.253L174.484 135.697L176.874 138.253ZM175.696 140.638L172.214 140.283L175.696 140.638ZM175.407 143.473L178.889 143.828L175.407 143.473ZM175.462 146.17L172.004 146.71L175.462 146.17ZM175.862 148.728L179.32 148.188L175.862 148.728ZM176.078 151.376L179.578 151.333L176.078 151.376ZM176.112 154.115L172.612 154.158L176.112 154.115ZM176.892 156.613L179.791 154.651L176.892 156.613ZM177.656 157.741L174.758 159.703L177.656 157.741ZM178.42 158.87L175.521 160.832L178.42 158.87ZM179.814 161.174L176.729 162.828L179.814 161.174ZM181.074 163.525L184.159 161.872L181.074 163.525ZM181.91 166.004L185.368 165.458L181.91 166.004ZM182.116 167.307L185.573 166.761L182.116 167.307ZM182.322 168.609L178.865 169.155L182.322 168.609ZM182.136 171.342L178.76 170.419L182.136 171.342ZM181.354 174.201L184.73 175.125L181.354 174.201ZM179.564 175.188L180.62 171.851L179.564 175.188ZM176.764 174.301L175.707 177.638L176.764 174.301ZM171.301 174.118L171.525 177.611L171.301 174.118ZM168.737 173.447L170.598 170.482L168.737 173.447ZM167.528 172.688L169.388 169.723L167.528 172.688ZM166.319 171.929L164.458 174.894L166.319 171.929ZM163.751 171.281L164.036 174.769L163.751 171.281ZM161.035 171.503L161.32 174.991L161.035 171.503ZM158.455 172.144L159.847 175.355L158.455 172.144ZM157.233 172.674L158.625 175.885L157.233 172.674ZM156.01 173.204L154.618 169.993L156.01 173.204ZM153.76 174.451L155.763 177.322L153.76 174.451ZM151.703 175.887L149.7 173.016L151.703 175.887ZM150.214 177.771L153.469 179.057L150.214 177.771ZM149.753 178.939L146.498 177.653L149.753 178.939ZM149.292 180.106L146.037 178.821L149.292 180.106ZM147.865 182.332L150.451 184.691L147.865 182.332ZM146.9 183.391L144.314 181.032L146.9 183.391ZM145.934 184.45L148.52 186.808L145.934 184.45ZM144.617 186.77L141.245 185.83L144.617 186.77ZM143.914 189.292L140.542 188.353L143.914 189.292ZM143.765 192.037L147.233 191.562L143.765 192.037ZM143.204 197.304L141.202 194.433L143.204 197.304ZM142.034 198.12L144.036 200.991L142.034 198.12ZM140.864 198.936L138.862 196.065L140.864 198.936ZM138.35 200.092L139.21 203.485L138.35 200.092ZM135.664 200.773L134.805 197.38L135.664 200.773ZM133.358 200.089L130.808 202.485L133.358 200.089ZM129.406 196.24L127.346 199.07L129.406 196.24ZM127.277 194.69L129.336 191.86L127.277 194.69ZM124.814 193.751L124.404 197.227L124.814 193.751ZM122.018 193.421L122.427 189.945L122.018 193.421ZM119.552 192.495L121.584 189.645L119.552 192.495ZM118.483 191.733L116.451 194.582L118.483 191.733ZM117.415 190.971L119.448 188.121L117.415 190.971ZM115.04 189.64L116.436 186.431L115.04 189.64ZM112.425 188.503L111.029 191.712L112.425 188.503ZM109.892 188.689L111.727 191.669L109.892 188.689ZM107.441 190.198L105.606 187.218L107.441 190.198ZM101.91 191.172L102.088 194.667L101.91 191.172ZM99.5133 192.235L97.0028 189.797L99.5133 192.235ZM98.5514 193.225L101.062 195.664L98.5514 193.225ZM97.5895 194.216L95.079 191.777L97.5895 194.216ZM95.871 196.415L98.8379 198.272L95.871 196.415ZM94.3576 198.833L91.3907 196.977L94.3576 198.833ZM89.1274 199.967L89.0683 203.466L89.1274 199.967ZM86.3932 200.525L87.88 203.694L86.3932 200.525ZM85.1502 201.108L83.6635 197.94L85.1502 201.108ZM82.053 201L78.8971 202.514L82.053 201ZM80.8305 198.451L83.9863 196.938L80.8305 198.451ZM79.8967 195.886L76.5011 196.735L79.8967 195.886ZM79.2515 193.305L75.8559 194.153L79.2515 193.305ZM78.2254 190.891L75.2593 192.749L78.2254 190.891ZM77.5219 189.768L80.488 187.91L77.5219 189.768ZM76.8183 188.645L79.7844 186.787L76.8183 188.645ZM74.1531 183.802L77.2491 182.169L74.1531 183.802ZM72.2474 181.913L70.6368 185.02L72.2474 181.913ZM70.9955 181.264L72.6062 178.156L70.9955 181.264ZM69.7437 180.615L71.3543 177.508L69.7437 180.615ZM67.151 179.713L66.5019 183.152L67.151 179.713ZM65.8102 179.46L65.1611 182.899L65.8102 179.46ZM64.4694 179.207L63.8203 182.646L64.4694 179.207ZM61.7942 179.237L62.5207 182.661L61.7942 179.237ZM59.1254 179.803L59.8519 183.227L59.1254 179.803ZM56.5169 180.25L56.9614 183.721L56.5169 180.25ZM53.9689 180.576L53.5244 177.104L53.9689 180.576ZM51.3562 180.787L51.4811 184.285L51.3562 180.787ZM48.6791 180.882L48.5542 177.385L48.6791 180.882ZM43.4478 180.152L42.7619 183.584L43.4478 180.152ZM40.7701 180.037L41.1344 183.518L40.7701 180.037ZM35.5393 179.434L33.1279 181.971L35.5393 179.434ZM34.4491 178.398L36.8605 175.861L34.4491 178.398ZM33.3589 177.362L30.9475 179.899L33.3589 177.362ZM32.472 174.903L35.9368 175.399L32.472 174.903ZM32.8788 172.059L36.3435 172.555L32.8788 172.059ZM33.2816 169.337L36.7411 169.868L33.2816 169.337ZM33.4811 168.037L30.0216 167.506L33.4811 168.037ZM33.6805 166.737L37.1401 167.267L33.6805 166.737ZM33.5325 162.786L30.0623 163.241L33.5325 162.786ZM33.3588 161.461L36.8291 161.006L33.3588 161.461ZM34.3016 156.11L37.6743 157.045L34.3016 156.11ZM33.8742 153.595L30.9825 155.567L33.8742 153.595ZM32.2751 151.25L35.1669 149.278L32.2751 151.25ZM30.7508 149.092L33.5703 147.018L30.7508 149.092ZM29.3013 147.121L26.4818 149.194L29.3013 147.121ZM28.0534 144.815L24.7995 146.104L28.0534 144.815ZM27.5303 143.495L30.7842 142.206L27.5303 143.495ZM27.0072 142.175L23.7534 143.464L27.0072 142.175ZM25.2295 140.344L26.5494 137.102L25.2295 140.344ZM23.9748 139.833L22.6549 143.074L23.9748 139.833ZM20.8127 138.67L20.0753 142.092L20.8127 138.67ZM20.1599 138.53L20.8972 135.108L20.1599 138.53ZM19.5071 138.389L18.7698 141.811L19.5071 138.389ZM17.6143 137.776L16.3682 141.047L17.6143 137.776ZM16.3743 137.304L17.6205 134.033L16.3805 133.56L15.1344 136.831L13.8882 140.102L15.1282 140.574L16.3743 137.304ZM15.1344 136.831L16.3805 133.56C15.8018 133.34 15.2719 133.064 14.784 132.733L12.819 135.629L10.8541 138.525C11.8 139.167 12.8137 139.692 13.8882 140.102L15.1344 136.831ZM12.819 135.629L14.784 132.733L13.7087 132.003L11.7437 134.9L9.77868 137.796L10.8541 138.525L12.819 135.629ZM11.7437 134.9L13.7087 132.003L12.6333 131.274L10.6683 134.17L8.70331 137.066L9.77868 137.796L11.7437 134.9ZM10.6683 134.17L12.6333 131.274C11.5665 130.55 10.3801 130.025 9.11765 129.665L8.15806 133.031L7.19847 136.397C7.84914 136.583 8.33624 136.817 8.70331 137.066L10.6683 134.17ZM8.15806 133.031L9.11765 129.665L7.68279 129.256L6.7232 132.622L5.76361 135.988L7.19847 136.397L8.15806 133.031ZM6.7232 132.622L7.68279 129.256L6.24793 128.847L5.28834 132.213L4.32874 135.579L5.76361 135.988L6.7232 132.622ZM5.28834 132.213L6.24793 128.847C6.30205 128.863 6.62241 128.974 6.92003 129.345C7.21951 129.717 7.26286 130.062 7.26685 130.134L3.77214 130.327L0.277431 130.519C0.335639 131.576 0.658806 132.728 1.46368 133.73C2.26669 134.729 3.31804 135.291 4.32874 135.579L5.28834 132.213ZM3.77214 130.327L7.26685 130.134L7.18552 128.657L3.69081 128.849L0.196099 129.041L0.277431 130.519L3.77214 130.327ZM3.69081 128.849L7.18552 128.657L7.10419 127.179L3.60948 127.371L0.114768 127.564L0.196099 129.041L3.69081 128.849ZM3.60948 127.371L7.10419 127.179C7.09499 127.012 7.11379 126.936 7.11719 126.924C7.11915 126.917 7.1194 126.918 7.11652 126.924C7.11362 126.93 7.11123 126.933 7.11214 126.932L4.29604 124.853L1.47993 122.775C0.415718 124.217 0.0226293 125.89 0.114768 127.564L3.60948 127.371ZM4.29604 124.853L7.11214 126.932L7.88003 125.891L5.06393 123.813L2.24782 121.735L1.47993 122.775L4.29604 124.853ZM5.06393 123.813L7.88003 125.891L8.64792 124.851L5.83182 122.772L3.01571 120.694L2.24782 121.735L5.06393 123.813ZM5.83182 122.772L8.64792 124.851C9.51547 123.675 10.0465 122.34 10.2897 120.922L6.8401 120.33L3.39046 119.739C3.31314 120.189 3.17201 120.482 3.01571 120.694L5.83182 122.772ZM6.8401 120.33L10.2897 120.922L10.5301 119.52L7.0805 118.928L3.63086 118.337L3.39046 119.739L6.8401 120.33ZM7.0805 118.928L10.5301 119.52L10.7705 118.118L7.32089 117.527L3.87125 116.935L3.63086 118.337L7.0805 118.928ZM7.32089 117.527L10.7705 118.118C10.856 117.62 11.0134 117.241 11.2138 116.935L8.28476 115.019L5.35571 113.103C4.59153 114.271 4.1063 115.565 3.87125 116.935L7.32089 117.527ZM8.28476 115.019L11.2138 116.935L11.9373 115.829L9.00824 113.913L6.07919 111.997L5.35571 113.103L8.28476 115.019ZM9.00824 113.913L11.9373 115.829L12.6608 114.723L9.73172 112.807L6.80266 110.891L6.07919 111.997L9.00824 113.913ZM9.73172 112.807L12.6608 114.723C12.9377 114.299 13.2784 113.922 13.6974 113.586L11.5056 110.857L9.31388 108.128C8.33226 108.917 7.4904 109.839 6.80266 110.891L9.73172 112.807ZM11.5056 110.857L13.6974 113.586L14.7478 112.742L12.5561 110.013L10.3643 107.285L9.31388 108.128L11.5056 110.857ZM12.5561 110.013L14.7478 112.742L15.7983 111.898L13.6065 109.17L11.4148 106.441L10.3643 107.285L12.5561 110.013ZM13.6065 109.17L15.7983 111.898C16.6062 111.249 17.3781 110.551 18.1139 109.804L15.6208 107.348L13.1277 104.891C12.5784 105.449 12.0074 105.965 11.4148 106.441L13.6065 109.17ZM15.6208 107.348L18.1139 109.804L19.0777 108.826L16.5846 106.37L14.0915 103.913L13.1277 104.891L15.6208 107.348ZM16.5846 106.37L19.0777 108.826L20.0415 107.848L17.5484 105.391L15.0554 102.935L14.0915 103.913L16.5846 106.37ZM17.5484 105.391L20.0415 107.848C21.3014 106.569 21.9909 104.956 22.0728 103.18L18.5765 103.018L15.0803 102.857C15.0784 102.898 15.0741 102.919 15.0728 102.925C15.0716 102.93 15.072 102.926 15.0758 102.918C15.0775 102.914 15.0793 102.91 15.0809 102.907C15.0826 102.904 15.0836 102.903 15.0835 102.903C15.0834 102.903 15.0816 102.906 15.0773 102.911C15.0731 102.916 15.066 102.924 15.0554 102.935L17.5484 105.391ZM18.5765 103.018L22.0728 103.18L22.1371 101.785L18.6408 101.623L15.1446 101.462L15.0803 102.857L18.5765 103.018ZM18.6408 101.623L22.1371 101.785L22.2014 100.39L18.7051 100.228L15.2089 100.067L15.1446 101.462L18.6408 101.623ZM18.7051 100.228L22.2014 100.39C22.251 99.3151 22.2318 98.2716 22.1361 97.2638L18.6518 97.5947L15.1675 97.9257C15.2286 98.5696 15.2451 99.2819 15.2089 100.067L18.7051 100.228ZM18.6518 97.5947L22.1361 97.2638L22.0185 96.025L18.5341 96.356L15.0498 96.6869L15.1675 97.9257L18.6518 97.5947ZM18.5341 96.356L22.0185 96.025L21.9008 94.7863L18.4165 95.1172L14.9322 95.4481L15.0498 96.6869L18.5341 96.356ZM18.4165 95.1172L21.9008 94.7863C21.8365 94.1091 21.8117 93.3864 21.8302 92.6158L18.3312 92.5317L14.8322 92.4476C14.8076 93.4727 14.8396 94.4736 14.9322 95.4481L18.4165 95.1172ZM18.3312 92.5317L21.8302 92.6158L21.8625 91.2691L18.3636 91.185L14.8646 91.1009L14.8322 92.4476L18.3312 92.5317ZM18.3636 91.185L21.8625 91.2691L21.8949 89.9224L18.3959 89.8383L14.8969 89.7542L14.8646 91.1009L18.3636 91.185ZM18.3959 89.8383L21.8949 89.9224C21.9305 88.4424 21.6054 87.019 20.9423 85.6999L17.8151 87.2717L14.688 88.8436C14.8424 89.1509 14.9045 89.4385 14.8969 89.7542L18.3959 89.8383ZM17.8151 87.2717L20.9423 85.6999L20.3292 84.48L17.202 86.0519L14.0748 87.6237L14.688 88.8436L17.8151 87.2717ZM17.202 86.0519L20.3292 84.48L19.716 83.2602L16.5888 84.832L13.4617 86.4039L14.0748 87.6237L17.202 86.0519ZM16.5888 84.832L19.716 83.2602C18.9601 81.7563 17.7869 80.611 16.3332 79.8404L14.694 82.9328L13.0548 86.0252C13.31 86.1605 13.4 86.2813 13.4617 86.4039L16.5888 84.832ZM14.694 82.9328L16.3332 79.8404L15.0514 79.161L13.4123 82.2534L11.7731 85.3458L13.0548 86.0252L14.694 82.9328ZM13.4123 82.2534L15.0514 79.161L13.7697 78.4816L12.1306 81.574L10.4914 84.6665L11.7731 85.3458L13.4123 82.2534ZM12.1306 81.574L13.7697 78.4816C13.7403 78.466 13.8125 78.5 13.8981 78.6138C13.9375 78.6662 13.9669 78.7188 13.9869 78.7648C14.0064 78.8098 14.0115 78.8361 14.0112 78.8344L10.5767 79.5087L7.1423 80.1829C7.53329 82.1744 8.73379 83.7348 10.4914 84.6665L12.1306 81.574ZM10.5767 79.5087L14.0112 78.8344L13.7391 77.4484L10.3046 78.1227L6.87018 78.797L7.1423 80.1829L10.5767 79.5087ZM10.3046 78.1227L13.7391 77.4484L13.4669 76.0624L10.0325 76.7367L6.59807 77.411L6.87018 78.797L10.3046 78.1227ZM10.0325 76.7367L13.4669 76.0624C13.2733 75.0762 13.0661 74.169 12.843 73.3483L9.46561 74.2666L6.08824 75.185C6.25811 75.8097 6.42888 76.5492 6.59807 77.411L10.0325 76.7367ZM9.46561 74.2666L12.843 73.3483L12.5482 72.2642L9.17082 73.1825L5.79346 74.1009L6.08824 75.185L9.46561 74.2666ZM9.17082 73.1825L12.5482 72.2642L12.2534 71.1801L8.87604 72.0984L5.49867 73.0168L5.79346 74.1009L9.17082 73.1825ZM8.87604 72.0984L12.2534 71.1801C12.2374 71.1212 12.2672 71.1963 12.2536 71.371C12.2387 71.5627 12.1759 71.8068 12.0345 72.0472L9.01791 70.2722L6.00135 68.4973C5.09879 70.0313 5.13355 71.6741 5.49867 73.0168L8.87604 72.0984ZM9.01791 70.2722L12.0345 72.0472L12.4711 71.305L9.45457 69.5301L6.43801 67.7552L6.00135 68.4973L9.01791 70.2722ZM9.45457 69.5301L12.4711 71.305L12.9078 70.5629L9.89123 68.788L6.87467 67.0131L6.43801 67.7552L9.45457 69.5301ZM9.89123 68.788L12.9078 70.5629C12.8556 70.6516 12.8278 70.6655 12.8804 70.6161C12.9336 70.5662 13.0465 70.4727 13.2483 70.3462L11.3898 67.3804L9.53128 64.4146C8.54866 65.0304 7.55067 65.8642 6.87467 67.0131L9.89123 68.788ZM11.3898 67.3804L13.2483 70.3462L14.3102 69.6807L12.4517 66.7149L10.5932 63.7492L9.53128 64.4146L11.3898 67.3804ZM12.4517 66.7149L14.3102 69.6807L15.3721 69.0153L13.5136 66.0495L11.6551 63.0837L10.5932 63.7492L12.4517 66.7149ZM13.5136 66.0495L15.3721 69.0153C15.9696 68.6409 16.6143 68.2834 17.3082 67.9444L15.7719 64.7996L14.2357 61.6548C13.3344 62.095 12.4735 62.5709 11.6551 63.0837L13.5136 66.0495ZM15.7719 64.7996L17.3082 67.9444L18.5046 67.36L16.9683 64.2152L15.4321 61.0703L14.2357 61.6548L15.7719 64.7996ZM16.9683 64.2152L18.5046 67.36L19.701 66.7756L18.1647 63.6307L16.6285 60.4859L15.4321 61.0703L16.9683 64.2152ZM18.1647 63.6307L19.701 66.7756C20.2109 66.5265 20.7424 66.3516 21.3043 66.2488L20.6742 62.8059L20.044 59.3632C18.8552 59.5807 17.7138 59.9557 16.6285 60.4859L18.1647 63.6307ZM20.6742 62.8059L21.3043 66.2488L22.6173 66.0084L21.9871 62.5656L21.357 59.1228L20.044 59.3632L20.6742 62.8059ZM21.9871 62.5656L22.6173 66.0084L23.9303 65.7681L23.3001 62.3253L22.67 58.8825L21.357 59.1228L21.9871 62.5656ZM23.3001 62.3253L23.9303 65.7681C25.6423 65.4547 27.1001 64.5748 28.1866 63.236L25.4688 61.0305L22.7511 58.825C22.7264 58.8556 22.7102 58.8706 22.7043 58.8757C22.6988 58.8806 22.6991 58.8796 22.7046 58.8763C22.7102 58.873 22.7139 58.8716 22.7127 58.872C22.7111 58.8726 22.6982 58.8773 22.67 58.8825L23.3001 62.3253ZM25.4688 61.0305L28.1866 63.236L29.0423 62.1815L26.3246 59.976L23.6068 57.7706L22.7511 58.825L25.4688 61.0305ZM26.3246 59.976L29.0423 62.1815L29.898 61.127L27.1803 58.9216L24.4626 56.7161L23.6068 57.7706L26.3246 59.976ZM27.1803 58.9216L29.898 61.127C30.2215 60.7284 30.5798 60.4185 30.9794 60.1766L29.1668 57.1825L27.3542 54.1884C26.246 54.8593 25.28 55.7088 24.4626 56.7161L27.1803 58.9216ZM29.1668 57.1825L30.9794 60.1766L32.1102 59.492L30.2976 56.4979L28.485 53.5039L27.3542 54.1884L29.1668 57.1825ZM30.2976 56.4979L32.1102 59.492L33.241 58.8074L31.4284 55.8133L29.6158 52.8193L28.485 53.5039L30.2976 56.4979ZM31.4284 55.8133L33.241 58.8074C35.0302 57.7242 36.0517 55.9371 36.0716 53.8423L32.5717 53.809L29.0719 53.7758C29.0726 53.7058 29.094 53.4909 29.2395 53.2357C29.3849 52.9808 29.5582 52.8541 29.6158 52.8193L31.4284 55.8133ZM32.5717 53.809L36.0716 53.8423L36.0841 52.5226L32.5843 52.4894L29.0844 52.4562L29.0719 53.7758L32.5717 53.809ZM32.5843 52.4894L36.0841 52.5226L36.0966 51.2029L32.5968 51.1697L29.0969 51.1365L29.0844 52.4562L32.5843 52.4894ZM32.5968 51.1697L36.0966 51.2029C36.1005 50.7997 36.1825 50.3694 36.3802 49.892L33.1466 48.5527L29.913 47.2134C29.3943 48.4658 29.1098 49.7802 29.0969 51.1365L32.5968 51.1697ZM33.1466 48.5527L36.3802 49.892L36.9176 48.5947L33.6839 47.2554L30.4503 45.9161L29.913 47.2134L33.1466 48.5527ZM33.6839 47.2554L36.9176 48.5947L37.4549 47.2974L34.2213 45.9581L30.9877 44.6188L30.4503 45.9161L33.6839 47.2554ZM34.2213 45.9581L37.4549 47.2974C38.0177 45.9385 38.2565 44.5024 38.1464 43.0307L34.6561 43.292L31.1659 43.5532C31.1923 43.9067 31.1412 44.248 30.9877 44.6188L34.2213 45.9581ZM34.6561 43.292L38.1464 43.0307L38.0439 41.6619L34.5537 41.9231L31.0634 42.1844L31.1659 43.5532L34.6561 43.292ZM34.5537 41.9231L38.0439 41.6619L37.9414 40.293L34.4512 40.5543L30.961 40.8155L31.0634 42.1844L34.5537 41.9231ZM34.4512 40.5543L37.9414 40.293C37.8242 38.7272 37.2887 37.2832 36.4069 36.0072L33.5275 37.9969L30.6481 39.9866C30.8613 40.2952 30.9415 40.5561 30.961 40.8155L34.4512 40.5543ZM33.5275 37.9969L36.4069 36.0072L35.5856 34.8187L32.7062 36.8084L29.8268 38.7981L30.6481 39.9866L33.5275 37.9969ZM32.7062 36.8084L35.5856 34.8187L34.7643 33.6302L31.8849 35.6199L29.0055 37.6097L29.8268 38.7981L32.7062 36.8084ZM31.8849 35.6199L34.7643 33.6302C34.7544 33.6159 34.8551 33.7594 34.8864 34.0407C34.9194 34.338 34.8511 34.5751 34.7977 34.691L31.6189 33.2263L28.4402 31.7616C27.499 33.8041 27.8303 35.909 29.0055 37.6097L31.8849 35.6199ZM31.6189 33.2263L34.7977 34.691L35.353 33.4859L32.1742 32.0212L28.9954 30.5565L28.4402 31.7616L31.6189 33.2263ZM32.1742 32.0212L35.353 33.4859L35.9083 32.2807L32.7295 30.8161L29.5507 29.3514L28.9954 30.5565L32.1742 32.0212ZM32.7295 30.8161L35.9083 32.2807C35.9859 32.1123 36.0472 32.0286 36.0729 31.9975C36.0954 31.9702 36.0903 31.9832 36.0539 32.006L34.1952 29.0404L32.3364 26.0747C31.0305 26.8932 30.1385 28.0757 29.5507 29.3514L32.7295 30.8161ZM34.1952 29.0404L36.0539 32.006L36.9642 31.4355L35.1055 28.4698L33.2468 25.5041L32.3364 26.0747L34.1952 29.0404ZM35.1055 28.4698L36.9642 31.4355L37.8746 30.8649L36.0159 27.8992L34.1572 24.9336L33.2468 25.5041L35.1055 28.4698ZM36.0159 27.8992L37.8746 30.8649C37.6296 31.0184 37.3133 31.115 36.9949 31.1146C36.7103 31.1143 36.5725 31.0372 36.6233 31.0615L38.1291 27.9019L39.6348 24.7424C38.0498 23.987 36.0296 23.76 34.1572 24.9336L36.0159 27.8992ZM38.1291 27.9019L36.6233 31.0615L37.8262 31.6347L39.3319 28.4751L40.8376 25.3156L39.6348 24.7424L38.1291 27.9019ZM39.3319 28.4751L37.8262 31.6347L39.029 32.2079L40.5347 29.0484L42.0405 25.8888L40.8376 25.3156L39.3319 28.4751ZM40.5347 29.0484L39.029 32.2079C40.371 32.8475 41.8086 33.1224 43.2837 33.0492L43.1103 29.5535L42.9369 26.0578C42.5817 26.0754 42.3022 26.0136 42.0405 25.8888L40.5347 29.0484ZM43.1103 29.5535L43.2837 33.0492L44.6565 32.9811L44.4831 29.4854L44.3097 25.9897L42.9369 26.0578L43.1103 29.5535ZM44.4831 29.4854L44.6565 32.9811L46.0292 32.913L45.8558 29.4174L45.6825 25.9216L44.3097 25.9897L44.4831 29.4854ZM45.8558 29.4174L46.0292 32.913C46.577 32.8859 47.0809 32.9447 47.5578 33.0796L48.5101 29.7116L49.4625 26.3437C48.2307 25.9954 46.965 25.858 45.6825 25.9216L45.8558 29.4174ZM48.5101 29.7116L47.5578 33.0796L48.8393 33.442L49.7917 30.074L50.744 26.7061L49.4625 26.3437L48.5101 29.7116ZM49.7917 30.074L48.8393 33.442L50.1209 33.8044L51.0732 30.4364L52.0256 27.0685L50.744 26.7061L49.7917 30.074ZM51.0732 30.4364L50.1209 33.8044C51.7897 34.2763 53.4962 34.1361 55.0685 33.3695L53.5346 30.2235L52.0006 27.0776C51.9819 27.0867 51.9774 27.0871 51.9858 27.0847C51.9897 27.0835 51.9957 27.0821 52.0033 27.0807C52.0109 27.0793 52.0192 27.0781 52.0277 27.0774C52.0363 27.0767 52.0439 27.0764 52.0504 27.0765C52.0568 27.0765 52.0609 27.0769 52.0624 27.077C52.0659 27.0774 52.0543 27.0766 52.0256 27.0685L51.0732 30.4364ZM53.5346 30.2235L55.0685 33.3695L56.2483 32.7942L54.7144 29.6483L53.1804 26.5023L52.0006 27.0776L53.5346 30.2235ZM54.7144 29.6483L56.2483 32.7942L57.4281 32.219L55.8942 29.073L54.3602 25.9271L53.1804 26.5023L54.7144 29.6483ZM55.8942 29.073L57.4281 32.219C58.618 31.6388 59.67 30.8472 60.5365 29.8356L57.8784 27.5586L55.2203 25.2817C55.0142 25.5223 54.7434 25.7402 54.3602 25.9271L55.8942 29.073ZM57.8784 27.5586L60.5365 29.8356L61.341 28.8964L58.6829 26.6195L56.0247 24.3426L55.2203 25.2817L57.8784 27.5586ZM58.6829 26.6195L61.341 28.8964L62.1454 27.9573L59.4873 25.6804L56.8292 23.4035L56.0247 24.3426L58.6829 26.6195ZM59.4873 25.6804L62.1454 27.9573C62.4983 27.5454 62.9706 27.0965 63.5911 26.6193L61.4576 23.8448L59.3241 21.0702C58.3901 21.7884 57.5489 22.5632 56.8292 23.4035L59.4873 25.6804ZM61.4576 23.8448L63.5911 26.6193L64.757 25.7228L62.6235 22.9482L60.49 20.1737L59.3241 21.0702L61.4576 23.8448ZM62.6235 22.9482L64.757 25.7228L65.9229 24.8263L63.7893 22.0517L61.6558 19.2772L60.49 20.1737L62.6235 22.9482ZM63.7893 22.0517L65.9229 24.8263C67.2639 23.7951 68.25 22.4073 68.677 20.6985L65.2814 19.85L61.8858 19.0015C61.8779 19.033 61.8693 19.1131 61.6558 19.2772L63.7893 22.0517ZM65.2814 19.85L68.677 20.6985L69.0031 19.3932L65.6075 18.5447L62.2119 17.6962L61.8858 19.0015L65.2814 19.85ZM65.6075 18.5447L69.0031 19.3932L69.3293 18.088L65.9337 17.2395L62.5381 16.391L62.2119 17.6962L65.6075 18.5447ZM65.9337 17.2395L69.3293 18.088C69.505 17.3848 69.7231 16.7319 69.98 16.1256L66.7574 14.7601L63.5348 13.3945C63.1283 14.3538 62.7973 15.3539 62.5381 16.391L65.9337 17.2395ZM66.7574 14.7601L69.98 16.1256L70.4775 14.9515L67.2549 13.5859L64.0323 12.2203L63.5348 13.3945L66.7574 14.7601ZM67.2549 13.5859L70.4775 14.9515L70.9751 13.7773L67.7525 12.4117L64.5299 11.0462L64.0323 12.2203L67.2549 13.5859ZM67.7525 12.4117L70.9751 13.7773C71.347 12.8995 71.6797 12.0065 71.9732 11.0984L68.6427 10.0222L65.3123 8.9461C65.0821 9.65846 64.8213 10.3584 64.5299 11.0462L67.7525 12.4117ZM68.6427 10.0222L71.9732 11.0984L72.3659 9.88305L69.0354 8.80691L65.705 7.73077L65.3123 8.9461L68.6427 10.0222ZM69.0354 8.80691L72.3659 9.88305L72.7586 8.66772L69.4281 7.59158L66.0977 6.51544L65.705 7.73077L69.0354 8.80691ZM69.4281 7.59158L72.7586 8.66772C72.7825 8.59367 72.8036 8.5625 72.8116 8.55159C72.8193 8.54092 72.8394 8.51507 72.8948 8.4752L70.8486 5.63564L68.8024 2.79609C67.5068 3.72966 66.5867 5.0019 66.0977 6.51544L69.4281 7.59158ZM70.8486 5.63564L72.8948 8.4752L73.9225 7.73459L71.8763 4.89506L69.8301 2.0555L68.8024 2.79609L70.8486 5.63564ZM71.8763 4.89506L73.9225 7.73459L74.9502 6.99401L72.904 4.15445L70.8578 1.3149L69.8301 2.0555L71.8763 4.89506ZM72.904 4.15445L74.9502 6.99401C74.8068 7.09739 74.3943 7.32781 73.7869 7.30253C73.1974 7.27801 72.846 7.02963 72.7722 6.97045L74.962 4.24008L77.1518 1.50971C76.3912 0.899714 75.3534 0.361657 74.0779 0.308582C72.7845 0.254761 71.6865 0.717775 70.8578 1.3149L72.904 4.15445ZM74.962 4.24008L72.7722 6.97045L73.8024 7.79668L75.9922 5.06631L78.182 2.33594L77.1518 1.50971L74.962 4.24008ZM75.9922 5.06631L73.8024 7.79668L74.8327 8.62291L77.0224 5.89254L79.2122 3.16216L78.182 2.33594L75.9922 5.06631ZM77.0224 5.89254L74.8327 8.62291C75.7143 9.33003 76.6595 9.93392 77.6663 10.4285L79.2096 7.28717L80.7529 4.1458C80.217 3.88255 79.7041 3.55669 79.2122 3.16216L77.0224 5.89254ZM79.2096 7.28717L77.6663 10.4285L78.8232 10.9969L80.3665 7.85557L81.9098 4.7142L80.7529 4.1458L79.2096 7.28717ZM80.3665 7.85557L78.8232 10.9969L79.9802 11.5653L81.5235 8.42396L83.0668 5.2826L81.9098 4.7142L80.3665 7.85557ZM81.5235 8.42396L79.9802 11.5653C81.0908 12.111 82.2788 12.4731 83.5197 12.6755L84.0832 9.22122L84.6468 5.76689C84.0172 5.66418 83.4987 5.49481 83.0668 5.2826L81.5235 8.42396ZM84.0832 9.22122L83.5197 12.6755L84.9225 12.9044L85.486 9.45007L86.0496 5.99575L84.6468 5.76689L84.0832 9.22122ZM85.486 9.45007L84.9225 12.9044L86.3253 13.1333L86.8888 9.67893L87.4524 6.2246L86.0496 5.99575L85.486 9.45007ZM86.8888 9.67893L86.3253 13.1333C87.0523 13.2519 87.6742 13.4212 88.2047 13.626L89.4654 10.361L90.726 7.09591C89.6915 6.69648 88.5957 6.41113 87.4524 6.2246L86.8888 9.67893ZM89.4654 10.361L88.2047 13.626L89.3784 14.0793L90.6391 10.8142L91.8998 7.54911L90.726 7.09591L89.4654 10.361ZM90.6391 10.8142L89.3784 14.0793L90.5522 14.5325L91.8129 11.2674L93.0736 8.00231L91.8998 7.54911L90.6391 10.8142ZM91.8129 11.2674L90.5522 14.5325C90.8524 14.6483 91.2585 14.8814 91.7603 15.339L94.1187 12.7529L96.477 10.1667C95.4694 9.24791 94.3384 8.49068 93.0736 8.00231L91.8129 11.2674ZM94.1187 12.7529L91.7603 15.339L92.8923 16.3713L95.2507 13.7852L97.609 11.199L96.477 10.1667L94.1187 12.7529ZM95.2507 13.7852L92.8923 16.3713L94.0243 17.4036L96.3827 14.8175L98.741 12.2314L97.609 11.199L95.2507 13.7852ZM96.3827 14.8175L94.0243 17.4036C95.5762 18.8189 97.62 19.4461 99.7931 18.8611L98.8833 15.4814L97.9735 12.1017C98.0511 12.0808 98.2406 12.0554 98.472 12.1168C98.6907 12.1749 98.7791 12.266 98.741 12.2314L96.3827 14.8175ZM98.8833 15.4814L99.7931 18.8611L101.162 18.4927L100.252 15.113L99.3422 11.7333L97.9735 12.1017L98.8833 15.4814ZM100.252 15.113L101.162 18.4927L102.53 18.1242L101.621 14.7445L100.711 11.3649L99.3422 11.7333L100.252 15.113ZM101.621 14.7445L102.53 18.1242C103.53 17.8553 104.501 17.5525 105.443 17.2151L104.264 13.9199L103.084 10.6247C102.327 10.8956 101.536 11.1426 100.711 11.3649L101.621 14.7445ZM104.264 13.9199L105.443 17.2151L106.718 16.7589L105.538 13.4637L104.359 10.1684L103.084 10.6247L104.264 13.9199ZM105.538 13.4637L106.718 16.7589L107.992 16.3027L106.813 13.0074L105.633 9.7122L104.359 10.1684L105.538 13.4637ZM106.813 13.0074L107.992 16.3027C109.138 15.8926 110.212 15.336 111.207 14.6364L109.194 11.7732L107.181 8.90997C106.7 9.24775 106.187 9.5139 105.633 9.7122L106.813 13.0074ZM109.194 11.7732L111.207 14.6364L112.313 13.8584L110.3 10.9951L108.287 8.13193L107.181 8.90997L109.194 11.7732ZM110.3 10.9951L112.313 13.8584L113.42 13.0803L111.407 10.2171L109.394 7.35391L108.287 8.13193L110.3 10.9951ZM111.407 10.2171L113.42 13.0803C114.4 12.3913 115.285 11.5851 116.072 10.6707L113.421 8.38631L110.769 6.10192C110.347 6.59123 109.89 7.00559 109.394 7.35391L111.407 10.2171ZM113.421 8.38631L116.072 10.6707L116.979 9.61787L114.328 7.33351L111.676 5.04912L110.769 6.10192L113.421 8.38631ZM114.328 7.33351L116.979 9.61787L117.886 8.56507L115.235 6.28071L112.583 3.99632L111.676 5.04912L114.328 7.33351ZM115.235 6.28071L117.886 8.56507C118.044 8.38196 118.189 8.29564 118.388 8.24115L117.462 4.8658L116.536 1.49043C114.974 1.91877 113.634 2.77572 112.583 3.99632L115.235 6.28071ZM117.462 4.8658L118.388 8.24115L119.708 7.87904L118.782 4.50369L117.857 1.12832L116.536 1.49043L117.462 4.8658ZM118.782 4.50369L119.708 7.87904L121.028 7.51693L120.103 4.14157L119.177 0.766204L117.857 1.12832L118.782 4.50369ZM120.103 4.14157L121.028 7.51693C121.679 7.33851 122.342 7.22723 123.022 7.18318L122.796 3.6905L122.569 0.197827C121.419 0.272389 120.287 0.461823 119.177 0.766204L120.103 4.14157ZM122.796 3.6905L123.022 7.18318L124.395 7.09422L124.168 3.60154L123.942 0.108868L122.569 0.197827L122.796 3.6905ZM124.168 3.60154L124.395 7.09422L125.767 7.00526L125.541 3.51258L125.315 0.0199083L123.942 0.108868L124.168 3.60154ZM125.541 3.51258L125.767 7.00526C125.737 7.00721 125.555 7.00923 125.314 6.89883C125.068 6.78663 124.932 6.63616 124.889 6.57767L127.708 4.50369L130.528 2.42973C129.269 0.718729 127.383 -0.114132 125.315 0.0199083L125.541 3.51258ZM127.708 4.50369L124.889 6.57767L125.684 7.65774L128.503 5.58376L131.322 3.5098L130.528 2.42973L127.708 4.50369ZM128.503 5.58376L125.684 7.65774L126.478 8.73781L129.297 6.66383L132.117 4.58986L131.322 3.5098L128.503 5.58376ZM129.297 6.66383L126.478 8.73781C127.065 9.53582 127.671 10.2904 128.298 10.9997L130.921 8.68298L133.545 6.36632C133.065 5.82341 132.589 5.23192 132.117 4.58986L129.297 6.66383ZM130.921 8.68298L128.298 10.9997L129.127 11.9388L131.75 9.62207L134.374 7.30541L133.545 6.36632L130.921 8.68298ZM131.75 9.62207L129.127 11.9388L129.956 12.8778L132.58 10.5612L135.203 8.2445L134.374 7.30541L131.75 9.62207ZM132.58 10.5612L129.956 12.8778C130.421 13.4043 130.877 13.9807 131.322 14.6097L134.179 12.5875L137.035 10.5654C136.454 9.74462 135.844 8.97016 135.203 8.2445L132.58 10.5612ZM134.179 12.5875L131.322 14.6097L132.091 15.697L134.948 13.6748L137.805 11.6526L137.035 10.5654L134.179 12.5875ZM134.948 13.6748L132.091 15.697L132.861 16.7842L135.718 14.7621L138.575 12.7399L137.805 11.6526L134.948 13.6748ZM135.718 14.7621L132.861 16.7842C133.404 17.5505 133.957 18.2968 134.521 19.023L137.285 16.8756L140.049 14.7282C139.55 14.0861 139.058 13.4234 138.575 12.7399L135.718 14.7621ZM137.285 16.8756L134.521 19.023L135.318 20.0493L138.082 17.9019L140.846 15.7545L140.049 14.7282L137.285 16.8756ZM138.082 17.9019L135.318 20.0493L136.116 21.0756L138.88 18.9282L141.643 16.7807L140.846 15.7545L138.082 17.9019ZM138.88 18.9282L136.116 21.0756C136.399 21.4403 136.65 21.8898 136.85 22.4544L140.149 21.2845L143.447 20.1146C143.019 18.9058 142.423 17.7844 141.643 16.7807L138.88 18.9282ZM140.149 21.2845L136.85 22.4544L137.322 23.7844L140.62 22.6145L143.919 21.4447L143.447 20.1146L140.149 21.2845ZM140.62 22.6145L137.322 23.7844L137.793 25.1145L141.092 23.9446L144.391 22.7748L143.919 21.4447L140.62 22.6145ZM141.092 23.9446L137.793 25.1145C138.137 26.082 138.803 27.194 140.041 27.9073C141.285 28.6243 142.589 28.6398 143.61 28.438L142.932 25.0044L142.253 21.5708C142.363 21.5492 142.904 21.4782 143.535 21.8419C144.16 22.2019 144.362 22.694 144.391 22.7748L141.092 23.9446ZM142.932 25.0044L143.61 28.438L144.978 28.1677L144.299 24.7341L143.621 21.3005L142.253 21.5708L142.932 25.0044ZM144.299 24.7341L144.978 28.1677L146.346 27.8974L145.667 24.4638L144.989 21.0302L143.621 21.3005L144.299 24.7341ZM145.667 24.4638L146.346 27.8974C146.724 27.8227 147.081 27.8349 147.462 27.939L148.386 24.5631L149.309 21.1872C147.889 20.7985 146.434 20.7446 144.989 21.0302L145.667 24.4638ZM148.386 24.5631L147.462 27.939L148.813 28.3086L149.736 24.9326L150.66 21.5567L149.309 21.1872L148.386 24.5631ZM149.736 24.9326L148.813 28.3086L150.163 28.6781L151.087 25.3022L152.011 21.9263L150.66 21.5567L149.736 24.9326ZM151.087 25.3022L150.163 28.6781C151.65 29.085 153.187 29.1002 154.694 28.6528L153.698 25.2975L152.702 21.9423C152.528 21.9938 152.324 22.0121 152.011 21.9263L151.087 25.3022ZM153.698 25.2975L154.694 28.6528L155.955 28.2785L154.958 24.9233L153.962 21.568L152.702 21.9423L153.698 25.2975ZM154.958 24.9233L155.955 28.2785L157.215 27.9043L156.219 24.5491L155.223 21.1938L153.962 21.568L154.958 24.9233ZM156.219 24.5491L157.215 27.9043C158.214 27.6078 159.2 27.2383 160.172 26.7991L158.731 23.6094L157.29 20.4197C156.594 20.7344 155.905 20.9914 155.223 21.1938L156.219 24.5491ZM158.731 23.6094L160.172 26.7991L161.424 26.2336L159.983 23.044L158.542 19.8543L157.29 20.4197L158.731 23.6094ZM159.983 23.044L161.424 26.2336L162.675 25.6682L161.235 22.4785L159.794 19.2889L158.542 19.8543L159.983 23.044ZM161.235 22.4785L162.675 25.6682C162.584 25.7094 162.268 25.819 161.825 25.7421C161.385 25.6656 161.133 25.4594 161.073 25.402L163.489 22.8699L165.905 20.3378C165.177 19.6426 164.215 19.0522 163.023 18.8453C161.828 18.6379 160.719 18.8707 159.794 19.2889L161.235 22.4785ZM163.489 22.8699L161.073 25.402L162.075 26.3589L164.492 23.8267L166.908 21.2946L165.905 20.3378L163.489 22.8699ZM164.492 23.8267L162.075 26.3589L163.078 27.3157L165.494 24.7836L167.911 22.2515L166.908 21.2946L164.492 23.8267ZM165.494 24.7836L163.078 27.3157C163.089 27.3259 163.019 27.2595 162.961 27.1108C162.901 26.959 162.901 26.8401 162.903 26.8089L166.393 27.0808L169.882 27.3528C170.036 25.3738 169.313 23.5894 167.911 22.2515L165.494 24.7836ZM166.393 27.0808L162.903 26.8089L162.799 28.1493L166.288 28.4213L169.778 28.6932L169.882 27.3528L166.393 27.0808ZM166.288 28.4213L162.799 28.1493L162.694 29.4898L166.184 29.7617L169.673 30.0336L169.778 28.6932L166.288 28.4213ZM166.184 29.7617L162.694 29.4898C162.582 30.9331 162.806 32.3436 163.335 33.6839L166.591 32.4008L169.847 31.1177C169.693 30.7265 169.646 30.3775 169.673 30.0336L166.184 29.7617ZM166.591 32.4008L163.335 33.6839L163.846 34.9826L167.103 33.6995L170.359 32.4164L169.847 31.1177L166.591 32.4008ZM167.103 33.6995L163.846 34.9826L164.358 36.2812L167.614 34.9981L170.871 33.715L170.359 32.4164L167.103 33.6995ZM167.614 34.9981L164.358 36.2812C164.487 36.6093 164.505 36.8632 164.471 37.101L167.934 37.609L171.397 38.1169C171.618 36.6052 171.424 35.1185 170.871 33.715L167.614 34.9981ZM167.934 37.609L164.471 37.101L164.278 38.4132L167.741 38.9212L171.204 39.4291L171.397 38.1169L167.934 37.609ZM167.741 38.9212L164.278 38.4132L164.086 39.7254L167.549 40.2333L171.012 40.7413L171.204 39.4291L167.741 38.9212ZM167.549 40.2333L164.086 39.7254C163.889 41.0634 163.962 42.4017 164.313 43.7098L167.693 42.8028L171.074 41.8959C170.975 41.5276 170.951 41.1529 171.012 40.7413L167.549 40.2333ZM167.693 42.8028L164.313 43.7098L164.65 44.9671L168.031 44.0601L171.411 43.1532L171.074 41.8959L167.693 42.8028ZM168.031 44.0601L164.65 44.9671L164.988 46.2244L168.368 45.3174L171.749 44.4105L171.411 43.1532L168.031 44.0601ZM168.368 45.3174L164.988 46.2244C165.268 47.2692 165.639 48.2725 166.106 49.2289L169.252 47.694L172.397 46.1591C172.136 45.6231 171.918 45.0421 171.749 44.4105L168.368 45.3174ZM169.252 47.694L166.106 49.2289L166.652 50.3481L169.798 48.8132L172.943 47.2783L172.397 46.1591L169.252 47.694ZM169.798 48.8132L166.652 50.3481L167.198 51.4673L170.344 49.9324L173.489 48.3975L172.943 47.2783L169.798 48.8132ZM170.344 49.9324L167.198 51.4673C167.625 52.3409 168.104 53.1891 168.636 54.0115L171.575 52.1115L174.515 50.2115C174.133 49.6208 173.791 49.0163 173.489 48.3975L170.344 49.9324ZM171.575 52.1115L168.636 54.0115L169.321 55.0714L172.26 53.1714L175.2 51.2713L174.515 50.2115L171.575 52.1115ZM172.26 53.1714L169.321 55.0714L170.006 56.1313L172.945 54.2312L175.885 52.3312L175.2 51.2713L172.26 53.1714ZM172.945 54.2312L170.006 56.1313C170.67 57.1591 171.494 58.0664 172.444 58.8595L174.686 56.1722L176.929 53.485C176.471 53.1032 176.134 52.7164 175.885 52.3312L172.945 54.2312ZM174.686 56.1722L172.444 58.8595L173.5 59.7407L175.742 57.0534L177.985 54.3661L176.929 53.485L174.686 56.1722ZM175.742 57.0534L173.5 59.7407L174.556 60.6218L176.798 57.9346L179.041 55.2473L177.985 54.3661L175.742 57.0534ZM176.798 57.9346L174.556 60.6218C175.681 61.5606 176.978 62.2057 178.408 62.5314L179.185 59.1188L179.962 55.7061C179.618 55.6278 179.324 55.4835 179.041 55.2473L176.798 57.9346ZM179.185 59.1188L178.408 62.5314L179.739 62.8344L180.516 59.4218L181.293 56.0091L179.962 55.7061L179.185 59.1188ZM180.516 59.4218L179.739 62.8344L181.07 63.1375L181.847 59.7248L182.624 56.3121L181.293 56.0091L180.516 59.4218ZM181.847 59.7248L181.07 63.1375C182.583 63.482 184.103 63.4036 185.571 62.9785L184.597 59.6167L183.624 56.2548C183.199 56.378 182.885 56.3717 182.624 56.3121L181.847 59.7248ZM184.597 59.6167L185.571 62.9785L186.991 62.5674L186.017 59.2055L185.043 55.8437L183.624 56.2548L184.597 59.6167ZM186.017 59.2055L186.991 62.5674L188.41 62.1562L187.437 58.7944L186.463 55.4325L185.043 55.8437L186.017 59.2055ZM187.437 58.7944L188.41 62.1562C188.443 62.1467 188.449 62.1482 188.431 62.1497C188.413 62.1513 188.379 62.1519 188.336 62.1461C188.292 62.1402 188.253 62.1297 188.223 62.1184C188.194 62.1074 188.184 62.0999 188.194 62.1065L190.066 59.1494L191.939 56.1923C190.255 55.126 188.337 54.8898 186.463 55.4325L187.437 58.7944ZM190.066 59.1494L188.194 62.1065L189.404 62.8726L191.276 59.9155L193.149 56.9584L191.939 56.1923L190.066 59.1494ZM191.276 59.9155L189.404 62.8726L190.614 63.6387L192.486 60.6816L194.359 57.7245L193.149 56.9584L191.276 59.9155ZM192.486 60.6816L190.614 63.6387C190.622 63.6435 190.447 63.5325 190.292 63.2453C190.127 62.9402 190.101 62.6522 190.112 62.4961L193.603 62.7472L197.094 62.9984C197.167 61.976 196.987 60.9105 196.45 59.9168C195.922 58.9411 195.158 58.2304 194.359 57.7245L192.486 60.6816ZM193.603 62.7472L190.112 62.4961L190.018 63.7956L193.509 64.0467L197 64.2979L197.094 62.9984L193.603 62.7472ZM193.509 64.0467L190.018 63.7956L189.925 65.0951L193.416 65.3462L196.907 65.5974L197 64.2979L193.509 64.0467ZM193.416 65.3462L189.925 65.0951C189.86 65.995 189.806 66.9243 189.763 67.8828L193.26 68.0395L196.756 68.1962C196.797 67.2963 196.847 66.4301 196.907 65.5974L193.416 65.3462ZM193.26 68.0395L189.763 67.8828L189.701 69.2766L193.198 69.4333L196.694 69.59L196.756 68.1962L193.26 68.0395ZM193.198 69.4333L189.701 69.2766L189.639 70.6704L193.135 70.8271L196.632 70.9837L196.694 69.59L193.198 69.4333ZM193.135 70.8271L189.639 70.6704C189.639 70.6678 189.64 70.6392 189.653 70.592C189.666 70.5438 189.686 70.4898 189.715 70.4362C189.777 70.3203 189.834 70.2855 189.796 70.3147L191.913 73.1017L194.03 75.8887C195.589 74.7044 196.541 73.002 196.632 70.9837L193.135 70.8271ZM191.913 73.1017L189.796 70.3147L188.636 71.1955L190.754 73.9825L192.871 76.7695L194.03 75.8887L191.913 73.1017ZM190.754 73.9825L188.636 71.1955L187.477 72.0763L189.594 74.8633L191.711 77.6503L192.871 76.7695L190.754 73.9825ZM189.594 74.8633L187.477 72.0763C186.096 73.1252 185.113 74.557 184.724 76.31L188.14 77.0693L191.557 77.8285C191.562 77.806 191.566 77.795 191.568 77.7917C191.569 77.7885 191.57 77.7859 191.573 77.7814C191.577 77.7762 191.608 77.729 191.711 77.6503L189.594 74.8633ZM188.14 77.0693L184.724 76.31L184.429 77.6351L187.846 78.3944L191.262 79.1536L191.557 77.8285L188.14 77.0693ZM187.846 78.3944L184.429 77.6351L184.135 78.9602L187.551 79.7195L190.968 80.4787L191.262 79.1536L187.846 78.3944ZM187.551 79.7195L184.135 78.9602C184.048 79.3501 183.883 79.7227 183.605 80.0987L186.422 82.1761L189.239 84.2535C190.074 83.1207 190.662 81.8557 190.968 80.4787L187.551 79.7195ZM186.422 82.1761L183.605 80.0987L182.771 81.2302L185.588 83.3076L188.405 85.385L189.239 84.2535L186.422 82.1761ZM185.588 83.3076L182.771 81.2302L181.936 82.3617L184.753 84.439L187.57 86.5165L188.405 85.385L185.588 83.3076ZM184.753 84.439L181.936 82.3617C180.58 84.2013 180.46 86.3625 181.263 88.3168L184.501 86.9865L187.738 85.6562C187.719 85.6108 187.78 85.7396 187.756 85.9871C187.73 86.2499 187.628 86.4381 187.57 86.5165L184.753 84.439ZM184.501 86.9865L181.263 88.3168L181.845 89.7327L185.083 88.4024L188.32 87.0721L187.738 85.6562L184.501 86.9865ZM185.083 88.4024L181.845 89.7327L182.427 91.1487L185.664 89.8184L188.902 88.488L188.32 87.0721L185.083 88.4024ZM185.664 89.8184L182.427 91.1487C182.449 91.2025 182.457 91.2349 182.46 91.2475C182.462 91.2595 182.461 91.2581 182.461 91.2468C182.461 91.2352 182.462 91.2248 182.463 91.2191C182.464 91.214 182.463 91.2233 182.453 91.2491L185.687 92.5869L188.921 93.9246C189.665 92.1262 189.623 90.2433 188.902 88.488L185.664 89.8184ZM185.687 92.5869L182.453 91.2491L181.893 92.6017L185.127 93.9394L188.362 95.2772L188.921 93.9246L185.687 92.5869ZM185.127 93.9394L181.893 92.6017L181.334 93.9542L184.568 95.292L187.802 96.6298L188.362 95.2772L185.127 93.9394ZM184.568 95.292L181.334 93.9542C180.575 95.789 180.624 97.7911 181.68 99.5963L184.701 97.8289L187.722 96.0614C187.75 96.1095 187.807 96.2392 187.817 96.4186C187.826 96.5899 187.784 96.6724 187.802 96.6298L184.568 95.292ZM184.701 97.8289L181.68 99.5963L182.373 100.781L185.394 99.0132L188.415 97.2458L187.722 96.0614L184.701 97.8289ZM185.394 99.0132L182.373 100.781L183.066 101.965L186.087 100.198L189.108 98.4301L188.415 97.2458L185.394 99.0132ZM186.087 100.198L183.066 101.965C183.464 102.645 183.822 103.341 184.14 104.053L187.336 102.627L190.532 101.2C190.109 100.253 189.634 99.3292 189.108 98.4301L186.087 100.198ZM187.336 102.627L184.14 104.053L184.695 105.298L187.891 103.871L191.087 102.445L190.532 101.2L187.336 102.627ZM187.891 103.871L184.695 105.298L185.251 106.543L188.447 105.116L191.643 103.689L191.087 102.445L187.891 103.871ZM188.447 105.116L185.251 106.543C185.81 107.796 186.598 108.904 187.604 109.84L189.987 107.276L192.37 104.713C192.063 104.427 191.824 104.095 191.643 103.689L188.447 105.116ZM189.987 107.276L187.604 109.84L188.589 110.755L190.972 108.192L193.355 105.628L192.37 104.713L189.987 107.276ZM190.972 108.192L188.589 110.755L189.574 111.67L191.957 109.107L194.34 106.543L193.355 105.628L190.972 108.192ZM191.957 109.107L189.574 111.67C190.37 112.411 191.224 113.083 192.132 113.686L194.067 110.77L196.003 107.853C195.41 107.46 194.856 107.024 194.34 106.543L191.957 109.107ZM194.067 110.77L192.132 113.686L193.258 114.433L195.193 111.517L197.129 108.6L196.003 107.853L194.067 110.77ZM195.193 111.517L193.258 114.433L194.384 115.18L196.319 112.264L198.254 109.348L197.129 108.6L195.193 111.517ZM196.319 112.264L194.384 115.18C194.777 115.441 195.075 115.738 195.307 116.074L198.187 114.084L201.066 112.094C200.309 110.999 199.362 110.083 198.254 109.348L196.319 112.264ZM198.187 114.084L195.307 116.074L196.049 117.147L198.928 115.157L201.807 113.167L201.066 112.094L198.187 114.084ZM198.928 115.157L196.049 117.147L196.791 118.22L199.67 116.23L202.549 114.239L201.807 113.167L198.928 115.157ZM199.67 116.23L196.791 118.22C196.988 118.505 197.01 118.661 197.015 118.718L200.503 118.437L203.992 118.155C203.874 116.7 203.341 115.386 202.549 114.239L199.67 116.23ZM200.503 118.437L197.015 118.718L197.106 119.852L200.595 119.57L204.083 119.289L203.992 118.155L200.503 118.437ZM200.595 119.57L197.106 119.852L197.198 120.986L200.686 120.704L204.175 120.423L204.083 119.289L200.595 119.57ZM200.686 120.704L197.198 120.986C197.201 121.021 197.2 121.044 197.199 121.057C197.199 121.069 197.197 121.075 197.197 121.075C197.197 121.076 197.197 121.076 197.197 121.075C197.197 121.075 197.198 121.075 197.197 121.075C197.197 121.075 197.196 121.08 197.19 121.09L200.25 122.789L203.31 124.488C204.013 123.222 204.289 121.833 204.175 120.423L200.686 120.704ZM200.25 122.789L197.19 121.09L196.662 122.04L199.722 123.74L202.782 125.439L203.31 124.488L200.25 122.789ZM199.722 123.74L196.662 122.04L196.134 122.991L199.194 124.691L202.253 126.39L202.782 125.439L199.722 123.74ZM199.194 124.691L196.134 122.991C196.055 123.133 195.88 123.37 195.492 123.669L197.63 126.44L199.768 129.211C200.761 128.446 201.628 127.515 202.253 126.39L199.194 124.691ZM197.63 126.44L195.492 123.669L194.457 124.468L196.595 127.239L198.733 130.01L199.768 129.211L197.63 126.44ZM196.595 127.239L194.457 124.468L193.421 125.267L195.559 128.038L197.697 130.809L198.733 130.01L196.595 127.239ZM195.559 128.038L193.421 125.267C193.251 125.398 193.046 125.495 192.723 125.535L193.16 129.008L193.597 132.481C195.092 132.293 196.487 131.743 197.697 130.809L195.559 128.038ZM193.16 129.008L192.723 125.535L191.359 125.707L191.796 129.179L192.233 132.652L193.597 132.481L193.16 129.008ZM191.796 129.179L191.359 125.707L189.996 125.878L190.432 129.351L190.869 132.824L192.233 132.652L191.796 129.179ZM190.432 129.351L189.996 125.878C188.64 126.049 187.354 126.471 186.168 127.148L187.903 130.188L189.639 133.227C190.005 133.018 190.405 132.882 190.869 132.824L190.432 129.351ZM187.903 130.188L186.168 127.148L185.002 127.813L186.738 130.853L188.473 133.892L189.639 133.227L187.903 130.188ZM186.738 130.853L185.002 127.813L183.837 128.479L185.573 131.518L187.308 134.558L188.473 133.892L186.738 130.853ZM185.573 131.518L183.837 128.479C182.956 128.982 182.098 129.532 181.264 130.129L183.3 132.976L185.336 135.823C185.979 135.363 186.637 134.941 187.308 134.558L185.573 131.518ZM183.3 132.976L181.264 130.129L180.156 130.921L182.192 133.768L184.228 136.615L185.336 135.823L183.3 132.976ZM182.192 133.768L180.156 130.921L179.048 131.713L181.084 134.56L183.121 137.407L184.228 136.615L182.192 133.768ZM181.084 134.56L179.048 131.713C178.181 132.334 177.349 133.018 176.552 133.763L178.943 136.319L181.333 138.876C181.915 138.332 182.511 137.843 183.121 137.407L181.084 134.56ZM178.943 136.319L176.552 133.763L175.518 134.73L177.909 137.286L180.299 139.843L181.333 138.876L178.943 136.319ZM177.909 137.286L175.518 134.73L174.484 135.697L176.874 138.253L179.265 140.81L180.299 139.843L177.909 137.286ZM176.874 138.253L174.484 135.697C173.172 136.924 172.395 138.502 172.214 140.283L175.696 140.638L179.178 140.993C179.183 140.947 179.189 140.919 179.193 140.905C179.197 140.891 179.2 140.885 179.2 140.884C179.201 140.882 179.203 140.878 179.211 140.868C179.218 140.858 179.234 140.839 179.265 140.81L176.874 138.253ZM175.696 140.638L172.214 140.283L172.069 141.701L175.551 142.056L179.033 142.411L179.178 140.993L175.696 140.638ZM175.551 142.056L172.069 141.701L171.925 143.119L175.407 143.473L178.889 143.828L179.033 142.411L175.551 142.056ZM175.407 143.473L171.925 143.119C171.801 144.332 171.82 145.533 172.004 146.71L175.462 146.17L178.92 145.63C178.838 145.102 178.82 144.505 178.889 143.828L175.407 143.473ZM175.462 146.17L172.004 146.71L172.204 147.989L175.662 147.449L179.12 146.909L178.92 145.63L175.462 146.17ZM175.662 147.449L172.204 147.989L172.404 149.268L175.862 148.728L179.32 148.188L179.12 146.909L175.662 147.449ZM175.862 148.728L172.404 149.268C172.51 149.947 172.569 150.663 172.578 151.419L176.078 151.376L179.578 151.333C179.565 150.263 179.48 149.214 179.32 148.188L175.862 148.728ZM176.078 151.376L172.578 151.419L172.595 152.789L176.095 152.746L179.595 152.703L179.578 151.333L176.078 151.376ZM176.095 152.746L172.595 152.789L172.612 154.158L176.112 154.115L179.612 154.072L179.595 152.703L176.095 152.746ZM176.112 154.115L172.612 154.158C172.632 155.752 173.099 157.252 173.994 158.575L176.892 156.613L179.791 154.651C179.668 154.469 179.614 154.304 179.612 154.072L176.112 154.115ZM176.892 156.613L173.994 158.575L174.758 159.703L177.656 157.741L180.555 155.78L179.791 154.651L176.892 156.613ZM177.656 157.741L174.758 159.703L175.521 160.832L178.42 158.87L181.318 156.908L180.555 155.78L177.656 157.741ZM178.42 158.87L175.521 160.832C175.965 161.487 176.367 162.152 176.729 162.828L179.814 161.174L182.899 159.52C182.42 158.629 181.893 157.758 181.318 156.908L178.42 158.87ZM179.814 161.174L176.729 162.828L177.36 164.003L180.444 162.35L183.529 160.696L182.899 159.52L179.814 161.174ZM180.444 162.35L177.36 164.003L177.99 165.179L181.074 163.525L184.159 161.872L183.529 160.696L180.444 162.35ZM181.074 163.525L177.99 165.179C178.227 165.621 178.378 166.073 178.453 166.55L181.91 166.004L185.368 165.458C185.169 164.198 184.763 162.997 184.159 161.872L181.074 163.525ZM181.91 166.004L178.453 166.55L178.659 167.852L182.116 167.307L185.573 166.761L185.368 165.458L181.91 166.004ZM182.116 167.307L178.659 167.852L178.865 169.155L182.322 168.609L185.779 168.064L185.573 166.761L182.116 167.307ZM182.322 168.609L178.865 169.155C178.915 169.476 178.906 169.884 178.76 170.419L182.136 171.342L185.512 172.265C185.888 170.893 186.002 169.479 185.779 168.064L182.322 168.609ZM182.136 171.342L178.76 170.419L178.369 171.848L181.745 172.772L185.121 173.695L185.512 172.265L182.136 171.342ZM181.745 172.772L178.369 171.848L177.978 173.278L181.354 174.201L184.73 175.125L185.121 173.695L181.745 172.772ZM181.354 174.201L177.978 173.278C177.985 173.255 178.18 172.562 179.022 172.097C179.874 171.628 180.577 171.838 180.62 171.851L179.564 175.188L178.507 178.525C179.483 178.834 180.952 179.026 182.4 178.229C183.84 177.436 184.464 176.101 184.73 175.125L181.354 174.201ZM179.564 175.188L180.62 171.851L179.221 171.408L178.164 174.745L177.107 178.081L178.507 178.525L179.564 175.188ZM178.164 174.745L179.221 171.408L177.821 170.965L176.764 174.301L175.707 177.638L177.107 178.081L178.164 174.745ZM176.764 174.301L177.821 170.965C176.508 170.549 175.156 170.364 173.786 170.452L174.01 173.945L174.234 177.438C174.67 177.41 175.154 177.463 175.707 177.638L176.764 174.301ZM174.01 173.945L173.786 170.452L172.432 170.539L172.655 174.032L172.879 177.524L174.234 177.438L174.01 173.945ZM172.655 174.032L172.432 170.539L171.077 170.626L171.301 174.118L171.525 177.611L172.879 177.524L172.655 174.032ZM171.301 174.118L171.077 170.626C170.946 170.634 170.816 170.619 170.598 170.482L168.737 173.447L166.877 176.411C168.271 177.286 169.85 177.719 171.525 177.611L171.301 174.118ZM168.737 173.447L170.598 170.482L169.388 169.723L167.528 172.688L165.668 175.652L166.877 176.411L168.737 173.447ZM167.528 172.688L169.388 169.723L168.179 168.964L166.319 171.929L164.458 174.894L165.668 175.652L167.528 172.688ZM166.319 171.929L168.179 168.964C166.766 168.077 165.162 167.654 163.466 167.793L163.751 171.281L164.036 174.769C164.151 174.76 164.259 174.769 164.458 174.894L166.319 171.929ZM163.751 171.281L163.466 167.793L162.108 167.904L162.393 171.392L162.678 174.88L164.036 174.769L163.751 171.281ZM162.393 171.392L162.108 167.904L160.75 168.014L161.035 171.503L161.32 174.991L162.678 174.88L162.393 171.392ZM161.035 171.503L160.75 168.014C159.472 168.119 158.237 168.423 157.062 168.933L158.455 172.144L159.847 175.355C160.302 175.157 160.787 175.035 161.32 174.991L161.035 171.503ZM158.455 172.144L157.062 168.933L155.84 169.463L157.233 172.674L158.625 175.885L159.847 175.355L158.455 172.144ZM157.233 172.674L155.84 169.463L154.618 169.993L156.01 173.204L157.403 176.415L158.625 175.885L157.233 172.674ZM156.01 173.204L154.618 169.993C153.602 170.433 152.646 170.961 151.757 171.581L153.76 174.451L155.763 177.322C156.245 176.985 156.789 176.681 157.403 176.415L156.01 173.204ZM153.76 174.451L151.757 171.581L150.729 172.299L152.732 175.169L154.734 178.039L155.763 177.322L153.76 174.451ZM152.732 175.169L150.729 172.299L149.7 173.016L151.703 175.887L153.706 178.757L154.734 178.039L152.732 175.169ZM151.703 175.887L149.7 173.016C148.45 173.889 147.518 175.068 146.959 176.486L150.214 177.771L153.469 179.057C153.524 178.918 153.585 178.841 153.706 178.757L151.703 175.887ZM150.214 177.771L146.959 176.486L146.498 177.653L149.753 178.939L153.008 180.224L153.469 179.057L150.214 177.771ZM149.753 178.939L146.498 177.653L146.037 178.821L149.292 180.106L152.548 181.391L153.008 180.224L149.753 178.939ZM149.292 180.106L146.037 178.821C145.906 179.151 145.677 179.538 145.28 179.973L147.865 182.332L150.451 184.691C151.341 183.715 152.064 182.617 152.548 181.391L149.292 180.106ZM147.865 182.332L145.28 179.973L144.314 181.032L146.9 183.391L149.485 185.75L150.451 184.691L147.865 182.332ZM146.9 183.391L144.314 181.032L143.348 182.091L145.934 184.45L148.52 186.808L149.485 185.75L146.9 183.391ZM145.934 184.45L143.348 182.091C142.37 183.163 141.64 184.413 141.245 185.83L144.617 186.77L147.988 187.709C148.062 187.445 148.21 187.148 148.52 186.808L145.934 184.45ZM144.617 186.77L141.245 185.83L140.894 187.092L144.265 188.031L147.637 188.97L147.988 187.709L144.617 186.77ZM144.265 188.031L140.894 187.092L140.542 188.353L143.914 189.292L147.285 190.231L147.637 188.97L144.265 188.031ZM143.914 189.292L140.542 188.353C140.163 189.715 140.107 191.117 140.298 192.511L143.765 192.037L147.233 191.562C147.153 190.979 147.196 190.551 147.285 190.231L143.914 189.292ZM143.765 192.037L140.298 192.511L140.501 193.995L143.968 193.52L147.436 193.046L147.233 191.562L143.765 192.037ZM143.968 193.52L140.501 193.995L140.704 195.478L144.171 195.004L147.639 194.53L147.436 193.046L143.968 193.52ZM144.171 195.004L140.704 195.478C140.704 195.481 140.696 195.429 140.707 195.333C140.717 195.234 140.745 195.106 140.805 194.964C140.935 194.653 141.129 194.484 141.202 194.433L143.204 197.304L145.206 200.175C146.059 199.58 146.804 198.755 147.257 197.678C147.706 196.611 147.775 195.52 147.639 194.53L144.171 195.004ZM143.204 197.304L141.202 194.433L140.032 195.249L142.034 198.12L144.036 200.991L145.206 200.175L143.204 197.304ZM142.034 198.12L140.032 195.249L138.862 196.065L140.864 198.936L142.866 201.807L144.036 200.991L142.034 198.12ZM140.864 198.936L138.862 196.065C138.417 196.375 137.965 196.58 137.491 196.7L138.35 200.092L139.21 203.485C140.527 203.152 141.75 202.585 142.866 201.807L140.864 198.936ZM138.35 200.092L137.491 196.7L136.148 197.04L137.007 200.433L137.867 203.826L139.21 203.485L138.35 200.092ZM137.007 200.433L136.148 197.04L134.805 197.38L135.664 200.773L136.524 204.166L137.867 203.826L137.007 200.433ZM135.664 200.773L134.805 197.38C134.873 197.363 135.106 197.326 135.412 197.417C135.716 197.507 135.878 197.659 135.909 197.692L133.358 200.089L130.808 202.485C131.48 203.201 132.348 203.809 133.42 204.128C134.496 204.447 135.56 204.41 136.524 204.166L135.664 200.773ZM133.358 200.089L135.909 197.692L134.946 196.668L132.396 199.064L129.845 201.461L130.808 202.485L133.358 200.089ZM132.396 199.064L134.946 196.668L133.984 195.643L131.433 198.039L128.882 200.436L129.845 201.461L132.396 199.064ZM131.433 198.039L133.984 195.643C133.202 194.811 132.363 194.064 131.465 193.41L129.406 196.24L127.346 199.07C127.867 199.449 128.38 199.902 128.882 200.436L131.433 198.039ZM129.406 196.24L131.465 193.41L130.401 192.635L128.341 195.465L126.281 198.295L127.346 199.07L129.406 196.24ZM128.341 195.465L130.401 192.635L129.336 191.86L127.277 194.69L125.217 197.52L126.281 198.295L128.341 195.465ZM127.277 194.69L129.336 191.86C128.108 190.966 126.709 190.45 125.223 190.275L124.814 193.751L124.404 197.227C124.783 197.271 125.026 197.381 125.217 197.52L127.277 194.69ZM124.814 193.751L125.223 190.275L123.825 190.11L123.416 193.586L123.006 197.062L124.404 197.227L124.814 193.751ZM123.416 193.586L123.825 190.11L122.427 189.945L122.018 193.421L121.608 196.897L123.006 197.062L123.416 193.586ZM122.018 193.421L122.427 189.945C122.037 189.899 121.782 189.786 121.584 189.645L119.552 192.495L117.519 195.344C118.746 196.219 120.135 196.724 121.608 196.897L122.018 193.421ZM119.552 192.495L121.584 189.645L120.516 188.883L118.483 191.733L116.451 194.582L117.519 195.344L119.552 192.495ZM118.483 191.733L120.516 188.883L119.448 188.121L117.415 190.971L115.383 193.82L116.451 194.582L118.483 191.733ZM117.415 190.971L119.448 188.121C118.52 187.46 117.512 186.899 116.436 186.431L115.04 189.64L113.644 192.85C114.31 193.14 114.886 193.466 115.383 193.82L117.415 190.971ZM115.04 189.64L116.436 186.431L115.128 185.862L113.732 189.072L112.336 192.281L113.644 192.85L115.04 189.64ZM113.732 189.072L115.128 185.862L113.821 185.293L112.425 188.503L111.029 191.712L112.336 192.281L113.732 189.072ZM112.425 188.503L113.821 185.293C111.888 184.452 109.838 184.612 108.057 185.709L109.892 188.689L111.727 191.669C111.729 191.668 111.699 191.687 111.637 191.708C111.574 191.729 111.491 191.749 111.395 191.756C111.185 191.771 111.049 191.721 111.029 191.712L112.425 188.503ZM109.892 188.689L108.057 185.709L106.832 186.463L108.667 189.444L110.502 192.424L111.727 191.669L109.892 188.689ZM108.667 189.444L106.832 186.463L105.606 187.218L107.441 190.198L109.276 193.179L110.502 192.424L108.667 189.444ZM107.441 190.198L105.606 187.218C105.288 187.413 104.971 187.512 104.602 187.53L104.78 191.026L104.958 194.521C106.503 194.443 107.96 193.989 109.276 193.179L107.441 190.198ZM104.78 191.026L104.602 187.53L103.167 187.603L103.345 191.099L103.523 194.594L104.958 194.521L104.78 191.026ZM103.345 191.099L103.167 187.603L101.732 187.677L101.91 191.172L102.088 194.667L103.523 194.594L103.345 191.099ZM101.91 191.172L101.732 187.677C99.9324 187.768 98.2875 188.474 97.0028 189.797L99.5133 192.235L102.024 194.674C102.039 194.658 102.045 194.655 102.04 194.659C102.034 194.663 102.024 194.669 102.013 194.674C102.002 194.679 101.998 194.679 102.006 194.677C102.014 194.675 102.04 194.67 102.088 194.667L101.91 191.172ZM99.5133 192.235L97.0028 189.797L96.0409 190.787L98.5514 193.225L101.062 195.664L102.024 194.674L99.5133 192.235ZM98.5514 193.225L96.0409 190.787L95.079 191.777L97.5895 194.216L100.1 196.654L101.062 195.664L98.5514 193.225ZM97.5895 194.216L95.079 191.777C94.2598 192.62 93.5353 193.55 92.904 194.558L95.871 196.415L98.8379 198.272C99.2155 197.668 99.6367 197.131 100.1 196.654L97.5895 194.216ZM95.871 196.415L92.904 194.558L92.1473 195.768L95.1143 197.624L98.0812 199.481L98.8379 198.272L95.871 196.415ZM95.1143 197.624L92.1473 195.768L91.3907 196.977L94.3576 198.833L97.3246 200.69L98.0812 199.481L95.1143 197.624ZM94.3576 198.833L91.3907 196.977C91.4252 196.921 91.5491 196.762 91.7863 196.637C92.0161 196.516 92.1804 196.518 92.1689 196.518L92.1098 200.017L92.0507 203.517C94.2035 203.553 96.1338 202.593 97.3246 200.69L94.3576 198.833ZM92.1098 200.017L92.1689 196.518L90.6777 196.493L90.6186 199.992L90.5595 203.492L92.0507 203.517L92.1098 200.017ZM90.6186 199.992L90.6777 196.493L89.1865 196.467L89.1274 199.967L89.0683 203.466L90.5595 203.492L90.6186 199.992ZM89.1274 199.967L89.1865 196.467C87.7054 196.442 86.2592 196.722 84.9065 197.356L86.3932 200.525L87.88 203.694C88.1847 203.551 88.5612 203.458 89.0683 203.466L89.1274 199.967ZM86.3932 200.525L84.9065 197.356L83.6635 197.94L85.1502 201.108L86.6369 204.277L87.88 203.694L86.3932 200.525ZM85.1502 201.108L83.6635 197.94L82.4205 198.523L83.9072 201.692L85.3939 204.86L86.6369 204.277L85.1502 201.108ZM83.9072 201.692L82.4205 198.523C82.5205 198.476 83.1758 198.207 84.0448 198.531C84.8896 198.846 85.189 199.445 85.2088 199.487L82.053 201L78.8971 202.514C79.3244 203.405 80.1366 204.544 81.5995 205.09C83.0865 205.644 84.4653 205.296 85.3939 204.86L83.9072 201.692ZM82.053 201L85.2088 199.487L84.5976 198.212L81.4417 199.726L78.2859 201.239L78.8971 202.514L82.053 201ZM81.4417 199.726L84.5976 198.212L83.9863 196.938L80.8305 198.451L77.6746 199.965L78.2859 201.239L81.4417 199.726ZM80.8305 198.451L83.9863 196.938C83.6746 196.288 83.4466 195.655 83.2922 195.037L79.8967 195.886L76.5011 196.735C76.7769 197.838 77.1714 198.915 77.6746 199.965L80.8305 198.451ZM79.8967 195.886L83.2922 195.037L82.9696 193.747L79.5741 194.595L76.1785 195.444L76.5011 196.735L79.8967 195.886ZM79.5741 194.595L82.9696 193.747L82.647 192.456L79.2515 193.305L75.8559 194.153L76.1785 195.444L79.5741 194.595ZM79.2515 193.305L82.647 192.456C82.3431 191.24 81.8566 190.095 81.1915 189.033L78.2254 190.891L75.2593 192.749C75.5322 193.185 75.7297 193.648 75.8559 194.153L79.2515 193.305ZM78.2254 190.891L81.1915 189.033L80.488 187.91L77.5219 189.768L74.5558 191.626L75.2593 192.749L78.2254 190.891ZM77.5219 189.768L80.488 187.91L79.7844 186.787L76.8183 188.645L73.8522 190.503L74.5558 191.626L77.5219 189.768ZM76.8183 188.645L79.7844 186.787C79.364 186.115 78.9546 185.403 78.5568 184.649L75.4609 186.282L72.365 187.914C72.8391 188.813 73.3346 189.676 73.8522 190.503L76.8183 188.645ZM75.4609 186.282L78.5568 184.649L77.903 183.409L74.807 185.042L71.7111 186.674L72.365 187.914L75.4609 186.282ZM74.807 185.042L77.903 183.409L77.2491 182.169L74.1531 183.802L71.0572 185.434L71.7111 186.674L74.807 185.042ZM74.1531 183.802L77.2491 182.169C76.478 180.707 75.3226 179.564 73.858 178.805L72.2474 181.913L70.6368 185.02C70.8414 185.126 70.9564 185.243 71.0572 185.434L74.1531 183.802ZM72.2474 181.913L73.858 178.805L72.6062 178.156L70.9955 181.264L69.3849 184.371L70.6368 185.02L72.2474 181.913ZM70.9955 181.264L72.6062 178.156L71.3543 177.508L69.7437 180.615L68.1331 183.722L69.3849 184.371L70.9955 181.264ZM69.7437 180.615L71.3543 177.508C70.2273 176.923 69.04 176.508 67.8001 176.274L67.151 179.713L66.5019 183.152C67.0497 183.256 67.5909 183.441 68.1331 183.722L69.7437 180.615ZM67.151 179.713L67.8001 176.274L66.4593 176.021L65.8102 179.46L65.1611 182.899L66.5019 183.152L67.151 179.713ZM65.8102 179.46L66.4593 176.021L65.1185 175.768L64.4694 179.207L63.8203 182.646L65.1611 182.899L65.8102 179.46ZM64.4694 179.207L65.1185 175.768C63.7697 175.513 62.4104 175.528 61.0677 175.813L61.7942 179.237L62.5207 182.661C62.9572 182.568 63.3814 182.563 63.8203 182.646L64.4694 179.207ZM61.7942 179.237L61.0677 175.813L59.7333 176.096L60.4598 179.52L61.1863 182.944L62.5207 182.661L61.7942 179.237ZM60.4598 179.52L59.7333 176.096L58.3989 176.38L59.1254 179.803L59.8519 183.227L61.1863 182.944L60.4598 179.52ZM59.1254 179.803L58.3989 176.38C57.5969 176.55 56.8216 176.682 56.0725 176.778L56.5169 180.25L56.9614 183.721C57.911 183.6 58.8747 183.434 59.8519 183.227L59.1254 179.803ZM56.5169 180.25L56.0725 176.778L54.7984 176.941L55.2429 180.413L55.6874 183.884L56.9614 183.721L56.5169 180.25ZM55.2429 180.413L54.7984 176.941L53.5244 177.104L53.9689 180.576L54.4133 184.048L55.6874 183.884L55.2429 180.413ZM53.9689 180.576L53.5244 177.104C52.7855 177.199 52.0214 177.261 51.2314 177.289L51.3562 180.787L51.4811 184.285C52.4758 184.249 53.4535 184.17 54.4133 184.048L53.9689 180.576ZM51.3562 180.787L51.2314 177.289L49.8928 177.337L50.0177 180.835L50.1425 184.332L51.4811 184.285L51.3562 180.787ZM50.0177 180.835L49.8928 177.337L48.5542 177.385L48.6791 180.882L48.8039 184.38L50.1425 184.332L50.0177 180.835ZM48.6791 180.882L48.5542 177.385C47.9303 177.407 47.3238 177.358 46.7288 177.239L46.0429 180.671L45.357 184.103C46.4921 184.33 47.643 184.422 48.8039 184.38L48.6791 180.882ZM46.0429 180.671L46.7288 177.239L45.4313 176.979L44.7454 180.411L44.0595 183.844L45.357 184.103L46.0429 180.671ZM44.7454 180.411L45.4313 176.979L44.1337 176.72L43.4478 180.152L42.7619 183.584L44.0595 183.844L44.7454 180.411ZM43.4478 180.152L44.1337 176.72C42.9065 176.475 41.6592 176.425 40.4057 176.556L40.7701 180.037L41.1344 183.518C41.7211 183.457 42.259 183.484 42.7619 183.584L43.4478 180.152ZM40.7701 180.037L40.4057 176.556L39.0256 176.701L39.3899 180.182L39.7542 183.663L41.1344 183.518L40.7701 180.037ZM39.3899 180.182L39.0256 176.701L37.6454 176.845L38.0097 180.326L38.374 183.807L39.7542 183.663L39.3899 180.182ZM38.0097 180.326L37.6454 176.845C37.656 176.844 37.689 176.842 37.7385 176.848C37.7888 176.853 37.8412 176.866 37.8905 176.883C37.9959 176.922 38.0139 176.958 37.9507 176.898L35.5393 179.434L33.1279 181.971C34.5267 183.301 36.3421 184.02 38.374 183.807L38.0097 180.326ZM35.5393 179.434L37.9507 176.898L36.8605 175.861L34.4491 178.398L32.0377 180.935L33.1279 181.971L35.5393 179.434ZM34.4491 178.398L36.8605 175.861L35.7703 174.825L33.3589 177.362L30.9475 179.899L32.0377 180.935L34.4491 178.398ZM33.3589 177.362L35.7703 174.825C35.7417 174.798 35.8214 174.867 35.8844 175.041C35.9496 175.222 35.9418 175.364 35.9368 175.399L32.472 174.903L29.0073 174.408C28.7026 176.539 29.4452 178.47 30.9475 179.899L33.3589 177.362ZM32.472 174.903L35.9368 175.399L36.1402 173.977L32.6754 173.481L29.2107 172.986L29.0073 174.408L32.472 174.903ZM32.6754 173.481L36.1402 173.977L36.3435 172.555L32.8788 172.059L29.414 171.564L29.2107 172.986L32.6754 173.481ZM32.8788 172.059L36.3435 172.555C36.4776 171.617 36.6101 170.722 36.7411 169.868L33.2816 169.337L29.8221 168.806C29.6871 169.686 29.5511 170.605 29.414 171.564L32.8788 172.059ZM33.2816 169.337L36.7411 169.868L36.9406 168.568L33.4811 168.037L30.0216 167.506L29.8221 168.806L33.2816 169.337ZM33.4811 168.037L36.9406 168.568L37.1401 167.267L33.6805 166.737L30.221 166.206L30.0216 167.506L33.4811 168.037ZM33.6805 166.737L37.1401 167.267C37.3239 166.069 37.3347 164.862 37.1766 163.656L33.7063 164.111L30.236 164.566C30.3096 165.128 30.3031 165.671 30.221 166.206L33.6805 166.737ZM33.7063 164.111L37.1766 163.656L37.0028 162.331L33.5325 162.786L30.0623 163.241L30.236 164.566L33.7063 164.111ZM33.5325 162.786L37.0028 162.331L36.8291 161.006L33.3588 161.461L29.8885 161.916L30.0623 163.241L33.5325 162.786ZM33.3588 161.461L36.8291 161.006C36.7769 160.608 36.8019 160.191 36.93 159.729L33.5573 158.794L30.1845 157.859C29.8164 159.186 29.7091 160.548 29.8885 161.916L33.3588 161.461ZM33.5573 158.794L36.93 159.729L37.3022 158.387L33.9294 157.452L30.5567 156.516L30.1845 157.859L33.5573 158.794ZM33.9294 157.452L37.3022 158.387L37.6743 157.045L34.3016 156.11L30.9289 155.174L30.5567 156.516L33.9294 157.452ZM34.3016 156.11L37.6743 157.045C38.2037 155.136 37.8666 153.237 36.766 151.623L33.8742 153.595L30.9825 155.567C30.9974 155.588 30.9526 155.527 30.9303 155.396C30.9202 155.336 30.9182 155.281 30.921 155.236C30.9236 155.192 30.93 155.17 30.9289 155.174L34.3016 156.11ZM33.8742 153.595L36.766 151.623L35.9664 150.45L33.0747 152.422L30.1829 154.394L30.9825 155.567L33.8742 153.595ZM33.0747 152.422L35.9664 150.45L35.1669 149.278L32.2751 151.25L29.3834 153.221L30.1829 154.394L33.0747 152.422ZM32.2751 151.25L35.1669 149.278C34.614 148.467 34.0817 147.713 33.5703 147.018L30.7508 149.092L27.9313 151.165C28.3863 151.784 28.8702 152.469 29.3834 153.221L32.2751 151.25ZM30.7508 149.092L33.5703 147.018L32.8455 146.032L30.0261 148.106L27.2066 150.18L27.9313 151.165L30.7508 149.092ZM30.0261 148.106L32.8455 146.032L32.1208 145.047L29.3013 147.121L26.4818 149.194L27.2066 150.18L30.0261 148.106ZM29.3013 147.121L32.1208 145.047C31.8412 144.667 31.5627 144.171 31.3073 143.526L28.0534 144.815L24.7995 146.104C25.2415 147.22 25.795 148.261 26.4818 149.194L29.3013 147.121ZM28.0534 144.815L31.3073 143.526L30.7842 142.206L27.5303 143.495L24.2764 144.784L24.7995 146.104L28.0534 144.815ZM27.5303 143.495L30.7842 142.206L30.2611 140.886L27.0072 142.175L23.7534 143.464L24.2764 144.784L27.5303 143.495ZM27.0072 142.175L30.2611 140.886C29.5799 139.166 28.3164 137.822 26.5494 137.102L25.2295 140.344L23.9096 143.585C23.9132 143.587 23.8982 143.581 23.8721 143.564C23.8455 143.546 23.8168 143.523 23.7901 143.495C23.7636 143.468 23.7477 143.445 23.7407 143.434C23.7342 143.424 23.7403 143.431 23.7534 143.464L27.0072 142.175ZM25.2295 140.344L26.5494 137.102L25.2947 136.591L23.9748 139.833L22.6549 143.074L23.9096 143.585L25.2295 140.344ZM23.9748 139.833L25.2947 136.591L24.04 136.08L22.7201 139.322L21.4002 142.564L22.6549 143.074L23.9748 139.833ZM22.7201 139.322L24.04 136.08C23.1656 135.724 22.2971 135.41 21.55 135.249L20.8127 138.67L20.0753 142.092C20.1986 142.118 20.6017 142.238 21.4002 142.564L22.7201 139.322ZM20.8127 138.67L21.55 135.249L20.8972 135.108L20.1599 138.53L19.4225 141.951L20.0753 142.092L20.8127 138.67ZM20.1599 138.53L20.8972 135.108L20.2444 134.968L19.5071 138.389L18.7698 141.811L19.4225 141.951L20.1599 138.53ZM19.5071 138.389L20.2444 134.968C20.0783 134.932 19.6495 134.806 18.8604 134.505L17.6143 137.776L16.3682 141.047C17.2324 141.376 18.0655 141.659 18.7698 141.811L19.5071 138.389ZM17.6143 137.776L18.8604 134.505L17.6205 134.033L16.3743 137.304L15.1282 140.574L16.3682 141.047L17.6143 137.776Z" fill="#0B380B"/>
<path d="M79.6515 154.906C79.9431 154.473 80.0642 153.943 79.978 153.425C79.8918 152.907 79.6072 152.445 79.1848 152.14C78.7624 151.834 78.2348 151.708 77.7161 151.788C77.1973 151.867 76.7316 152.148 76.4115 152.56C74.8601 154.539 73.1935 156.659 71.5904 158.109C71.325 158.343 71.0881 158.523 70.9033 158.633C70.7381 158.756 70.5823 158.686 71.074 158.64C71.3258 158.627 71.6849 158.749 71.8527 158.876C72.0169 158.991 72.0435 159.047 72.0333 159.017C72.0021 158.955 71.8814 158.68 71.7736 158.354C71.3246 157.015 70.885 155.146 69.8744 153.341C68.9085 151.526 67.033 149.721 64.8408 149.001C62.6463 148.247 60.5794 148.311 58.6693 148.571C57.4525 148.746 56.4886 148.58 56.1313 148.3C55.7779 148.077 55.3746 147.44 55.1169 146.291C54.6057 143.997 54.7149 140.936 54.6521 137.836C54.5173 134.707 54.662 131.292 52.585 127.435C51.5403 125.53 49.4397 123.819 47.3145 123.201C45.1879 122.542 43.2591 122.577 41.4235 122.776C38.8735 123.057 36.4137 123.242 34.3772 123.029C34.1248 123 33.9251 122.969 33.7246 122.929C33.4985 122.884 33.3315 122.836 33.2267 122.799C33.1189 122.763 33.0568 122.721 33.1144 122.756C33.1561 122.78 33.3587 122.937 33.5062 123.204C33.6706 123.483 33.7198 123.828 33.7125 123.959C33.7078 124.111 33.6912 124.1 33.7195 124.023C33.7715 123.855 33.9826 123.446 34.234 123.07C36.3452 120.039 39.9247 116.88 43.1288 113.565C44.7601 111.866 46.4215 110.177 47.9615 107.856C48.6474 106.608 49.7615 105.425 49.5066 102.436C49.3339 100.923 48.0898 99.4447 47.202 98.9252C46.127 98.245 45.4552 98.0717 44.5622 97.8455C27.4671 95.8941 46.9861 83.7334 57.3972 80.9102C58.503 80.622 59.7115 80.403 60.6494 80.4041C61.1194 80.3973 61.5331 80.4877 61.6122 80.5187C61.6543 80.5316 61.5897 80.483 61.548 80.3852C61.5042 80.2891 61.5235 80.2205 61.5358 80.2884C61.5505 80.8097 61.7596 81.311 62.1302 81.6823C62.5006 82.0536 63 82.2644 63.521 82.2683C64.042 82.2722 64.5445 82.069 64.9205 81.7033C65.2966 81.3376 65.5133 80.8394 65.5357 80.3185C65.6675 79.0845 64.7002 77.4187 63.6263 76.9071C62.565 76.316 61.6768 76.2159 60.8485 76.1418C59.2434 76.0346 57.7714 76.2464 56.4195 76.4972C49.3301 78.0494 42.9876 80.8977 37.162 85.4901C35.7244 86.6986 34.3324 88.0238 33.1712 89.898C32.0243 91.6368 31.1193 94.8818 32.5548 97.5367C35.5773 102.38 39.6823 102.916 43.086 103.987C43.4685 104.083 43.6743 104.202 43.6522 104.201C43.6383 104.195 43.5397 104.133 43.4215 103.972C43.3069 103.821 43.2074 103.575 43.1823 103.406C43.14 103.057 43.1999 103.142 43.0877 103.374C42.9919 103.601 42.7824 103.97 42.5537 104.305C41.555 105.769 39.9936 107.392 38.4462 108.944C35.3031 112.167 31.8658 114.913 28.6666 119.403C28.2449 120.054 27.7779 120.809 27.4026 121.897C27.0817 122.834 26.6889 124.669 27.7008 126.468C30.0339 129.728 32.2353 129.296 33.6525 129.63C36.8209 129.919 39.3959 129.623 42.2047 129.294C43.4697 129.129 44.5891 129.165 45.3798 129.402C46.171 129.652 46.5994 129.968 47.0698 130.701C48.0236 132.208 48.3441 135.138 48.4701 138.038C48.6446 141.004 48.503 144.104 49.4088 147.746C49.8768 149.5 50.8855 151.87 53.1997 153.208C55.5077 154.506 57.7384 154.328 59.5477 154.026C62.3975 153.525 64.2564 153.868 65.5202 155.901C66.1944 156.945 66.6235 158.297 67.2991 160.043C67.4933 160.508 67.6744 160.972 68.1032 161.617C68.3071 161.914 68.6227 162.317 69.1024 162.658C69.6145 163.036 70.357 163.29 71.0307 163.281C72.3283 163.237 72.9588 162.742 73.4583 162.42C73.9604 162.062 74.3105 161.736 74.6802 161.372C76.7155 159.262 78.1599 157.076 79.6515 154.906Z" fill="#0C410C"/>
<path d="M158.194 100.067C157.737 100.043 157.284 100.193 156.936 100.492C156.587 100.792 156.37 101.215 156.333 101.671C156.295 102.126 156.441 102.579 156.736 102.931C157.032 103.284 157.454 103.505 157.909 103.555C160.414 103.846 163.087 104.157 165.207 104.778C165.556 104.885 165.844 104.995 166.058 105.105C166.27 105.194 166.336 105.371 166.105 105.067C165.994 104.907 165.928 104.608 165.944 104.451C165.954 104.3 165.975 104.282 165.946 104.325C165.891 104.424 165.71 104.679 165.483 104.949C164.557 106.053 163.214 107.381 162.225 109.138C159.777 112.777 161.478 118.228 163.942 120.819C165.571 123.049 165.57 123.666 163.835 125.52C162.079 127.212 159.403 128.705 156.795 130.369C154.201 132.099 151.247 133.755 149.116 137.395C148.073 139.207 147.72 141.756 148.27 143.811C148.789 145.886 149.789 147.475 150.89 148.913C152.464 150.959 153.908 152.969 154.814 154.884C154.925 155.124 155.006 155.32 155.081 155.525C155.166 155.757 155.217 155.943 155.245 156.075C155.274 156.207 155.277 156.322 155.275 156.299C155.273 156.294 155.288 156.116 155.402 155.918C155.517 155.703 155.72 155.539 155.788 155.504C155.868 155.46 155.83 155.49 155.72 155.512C155.489 155.568 155.004 155.597 154.532 155.577C150.732 155.333 146.201 153.905 141.712 152.884C139.425 152.37 137.125 151.829 134.405 151.717C133.019 151.767 131.477 151.472 129.241 153.109C128.132 153.969 127.562 155.647 127.575 156.613C127.552 157.804 127.74 158.441 128 159.291C135.342 175.52 113.91 164.945 106.283 157.415C105.458 156.604 104.635 155.67 104.134 154.829C103.877 154.408 103.725 153.982 103.709 153.828C103.698 153.75 103.698 153.781 103.663 153.82C103.632 153.86 103.598 153.852 103.682 153.788C104.067 153.542 104.348 153.158 104.458 152.712C104.568 152.265 104.499 151.795 104.265 151.403C104.031 151.01 103.65 150.726 103.205 150.611C102.761 150.496 102.289 150.56 101.889 150.782C100.831 151.286 99.9829 152.845 100.093 153.96C100.136 155.103 100.496 155.889 100.855 156.614C101.58 158.003 102.516 159.137 103.426 160.148C108.398 165.341 114.131 169.261 121.005 171.812C122.763 172.404 124.591 172.892 126.731 172.908C128.759 172.978 131.824 172.106 133.266 169.642C135.72 164.804 134.123 161.032 133.264 157.608C133.138 157.2 133.122 156.935 133.132 156.875C133.136 156.854 133.141 156.919 133.088 157.049C133.041 157.171 132.924 157.328 132.837 157.401C132.649 157.545 132.756 157.44 133.051 157.407C133.334 157.365 133.781 157.353 134.203 157.374C136.036 157.47 138.24 157.967 140.38 158.485C144.773 159.501 148.93 161.01 154.315 161.406C155.07 161.428 155.931 161.434 156.996 161.203C157.917 161.002 159.552 160.426 160.479 158.779C161.934 155.408 160.534 153.776 160.082 152.431C158.718 149.635 157.139 147.589 155.412 145.371C153.743 143.236 153.223 141.594 154.062 140.039C154.945 138.306 157.325 136.521 159.751 134.902C162.208 133.216 164.928 131.729 167.513 129.131C168.745 127.852 170.175 125.849 170.123 123.317C170.045 120.808 168.795 119.05 167.624 117.687C165.681 115.483 164.942 113.469 166.116 111.234C166.688 110.074 167.649 108.988 168.778 107.53C169.069 107.133 169.364 106.746 169.675 106.085C169.815 105.776 169.982 105.331 170.022 104.792C170.074 104.211 169.923 103.516 169.596 102.993C168.949 101.999 168.244 101.724 167.731 101.475C167.189 101.24 166.739 101.112 166.247 100.986C163.436 100.341 160.815 100.226 158.194 100.067Z" fill="#0B3D0B"/>
<path d="M59.4185 59.8784C59.6976 60.1524 60.0714 60.3144 60.4647 60.3222C60.858 60.3301 61.2374 60.1842 61.5209 59.9154C61.8043 59.6465 61.9701 59.2753 61.983 58.8822C61.996 58.489 61.854 58.1072 61.5952 57.814C60.3729 56.4249 59.2597 55.0921 58.3406 53.6982C57.8253 52.9356 57.3383 51.9039 57.3784 51.6093C57.3818 51.5484 57.4032 51.5913 57.3745 51.6785C57.3485 51.7645 57.2921 51.8201 57.3251 51.8025C57.3815 51.7662 57.7466 51.6215 58.152 51.5446C59.9037 51.2074 62.2159 51.2021 64.5013 50.8618C66.7848 50.5154 69.3758 49.9286 71.5773 48.032C73.8295 46.1165 74.7265 43.1142 74.79 40.5933C74.8119 39.6948 75.0323 38.8975 75.1207 38.8367C75.1288 38.832 75.0851 38.9014 74.9945 38.9658C74.902 39.0355 74.7722 39.0782 74.7287 39.0855C74.6218 39.0955 74.8436 39.0971 75.1139 39.2038C76.3749 39.678 78.033 40.9224 79.5636 42.1339C82.715 44.6113 85.6617 47.4415 89.6128 49.814C90.4587 50.2978 91.4492 50.8074 92.6155 51.1333C93.7804 51.4578 95.5432 51.6669 97.1733 50.656C100.234 48.2902 99.9054 45.8651 100.185 43.8885C100.494 38.2408 101.701 30.8255 104.993 29.5498C108.298 28.5713 113.215 35.2121 113.174 40.2475C113.208 41.796 112.855 43.2867 112.029 44.5043C111.808 44.8262 111.713 45.2219 111.772 45.6105C111.832 45.9991 112.04 46.3477 112.353 46.5808C112.666 46.814 113.06 46.9138 113.449 46.8596C113.839 46.8054 114.19 46.6006 114.435 46.2963C115.81 44.5822 116.471 42.3979 116.563 40.3124C116.702 36.7494 115.572 33.3829 113.682 30.4726C111.806 27.7787 108.775 24.3189 103.838 25.3067C99.168 26.8161 97.9216 30.9254 96.8957 33.917C95.9376 37.1352 95.5216 40.3318 95.2761 43.5643C95.2138 44.3979 95.1012 45.0932 94.9286 45.65C94.7554 46.2471 94.4909 46.4915 94.5507 46.4226C94.5732 46.4033 94.6126 46.4063 94.5126 46.4119C94.4097 46.415 94.2163 46.395 93.949 46.3196C93.4467 46.1826 92.7469 45.8522 92.1093 45.4819C88.9738 43.622 85.9149 40.8287 82.5833 38.27C80.8446 36.9874 79.3124 35.6668 76.655 34.6749C75.9931 34.4671 75.1675 34.2312 74.0294 34.3909C72.9046 34.5199 71.6894 35.3824 71.1675 36.2836C70.1598 38.073 70.2468 39.1629 70.1756 40.4752C70.2617 44.2225 67.9525 46.0908 63.8227 46.8173C61.8277 47.2267 59.7587 47.284 57.2574 47.8897C56.6333 48.0691 55.9138 48.2694 55.1093 48.8771C54.235 49.459 53.6418 50.9504 53.8176 51.9093C54.0954 53.7377 54.9195 54.6803 55.5841 55.6379C56.788 57.225 58.0471 58.5168 59.4185 59.8784Z" fill="#0B3D0B"/>
<path d="M121.125 69.0234C121.078 69.472 121.192 69.929 121.46 70.2968C121.729 70.6647 122.127 70.9127 122.571 70.9871C123.015 71.0615 123.472 70.9568 123.846 70.6965C124.219 70.4363 124.476 70.0414 124.577 69.6018C124.853 68.4211 125.18 67.3133 125.616 66.3771C126.297 60.9621 133.43 71.3593 142.456 66.2593C142.659 66.1349 142.789 66.0776 142.859 66.0567C142.909 66.0295 142.839 66.1487 142.303 66.0882C142.038 66.0512 141.705 65.9137 141.474 65.7299C141.234 65.5406 141.137 65.3888 141.077 65.2945C140.98 65.1199 141.028 65.1951 141.042 65.3377C141.139 65.9993 141.069 67.3004 140.957 68.5023C140.746 71.0009 140.3 73.5418 140.428 76.6673C140.468 77.309 140.539 78.0326 140.768 78.86C141.026 79.6839 141.391 80.8658 142.835 81.8454C144.367 82.8021 145.839 82.5591 146.747 82.3049C147.156 82.1884 147.597 82.0093 147.93 81.8491C148.252 81.6952 148.57 81.5207 148.891 81.3259C150.531 80.2984 152.514 79.4205 153.511 79.4198C153.747 79.4126 153.845 79.4438 153.864 79.4385C153.881 79.4367 153.89 79.4021 153.975 79.5111C154.15 79.72 154.344 80.467 154.338 81.2943C154.287 84.7048 152.602 89.0774 150.157 91.5438C149.455 92.2243 148.73 92.6088 148.179 92.6169C147.729 92.5975 147.28 92.7384 146.929 93.028C146.578 93.3174 146.354 93.7288 146.306 94.1757C146.258 94.6226 146.39 95.0722 146.671 95.4296C146.952 95.7871 147.361 96.0201 147.805 96.0968C149.786 96.3796 151.47 95.495 152.678 94.5912C156.76 91.15 158.886 86.8028 159.496 81.4934C159.564 80.1266 159.553 78.604 158.646 76.8631C157.794 75.0478 155.325 73.8301 153.635 73.8831C150.242 73.9007 148.055 75.2234 145.943 76.3759C145.759 76.4819 145.601 76.5616 145.475 76.6178C145.343 76.6778 145.217 76.7206 145.171 76.7305C145.115 76.7459 145.122 76.725 145.274 76.7264C145.417 76.7251 145.732 76.7901 145.984 76.9562C146.237 77.1173 146.363 77.3035 146.395 77.3581C146.43 77.42 146.405 77.3823 146.381 77.289C146.329 77.1065 146.273 76.7216 146.251 76.3251C146.148 74.2407 146.5 71.6272 146.678 68.9495C146.748 67.5611 146.891 66.2498 146.572 64.3385C146.47 63.8441 146.345 63.2732 145.936 62.545C145.577 61.8194 144.432 60.7625 143.223 60.6222C140.872 60.4568 140.291 61.2507 139.453 61.7061C137.865 62.9404 135.659 62.6273 132.613 61.5226C131.087 61.0556 129.5 60.2282 126.951 60.3808C125.671 60.4698 124.241 61.2293 123.469 62.1683C122.669 63.0875 122.244 64.09 121.951 64.9506C121.486 66.3574 121.28 67.6724 121.125 69.0234Z" fill="#0B3D0B"/>
<path d="M86.961 119.417C87.4746 119.411 87.9777 119.225 88.3608 118.875C88.744 118.525 88.9757 118.044 89.0052 117.532C89.0348 117.021 88.86 116.516 88.5197 116.124C88.1794 115.732 87.7012 115.489 87.1917 115.424C85.9993 115.268 84.8763 115.052 83.9322 114.719C83.3566 114.517 82.821 114.228 82.6063 113.997C82.3819 113.745 82.4388 113.729 82.4153 113.465C82.3637 112.906 82.7885 111.411 83.2849 109.897C84.2866 107.073 85.4346 101.78 82.2218 98.0131C82.0893 97.8394 82.0289 97.7261 82.0222 97.6954C82.0063 97.6813 82.1683 97.7923 82.1633 98.4551C82.1526 98.7844 82.0307 99.2002 81.8379 99.5058C81.6394 99.8226 81.4639 99.9662 81.3442 100.06C81.121 100.218 81.1559 100.172 81.2718 100.152C81.832 100.008 83.1318 99.9326 84.3259 99.9188C86.8201 99.8615 89.3899 100.038 92.5571 99.5629C93.2079 99.4502 93.9436 99.2984 94.7857 98.9634C95.6185 98.598 96.8475 98.077 97.7468 96.3852C98.6093 94.5974 98.1644 93.0319 97.7929 92.1057C97.4166 91.2094 96.9945 90.598 96.5328 89.9871C95.3467 88.5009 94.2927 86.6354 94.2039 85.8144C94.1734 85.6268 94.1894 85.5894 94.1512 85.6423C94.1181 85.6954 94.0253 85.7525 94.0744 85.6883C94.1601 85.5552 94.8253 85.2748 95.6095 85.1913C98.8664 84.8479 103.394 86.0186 106.028 88.0738C106.761 88.6641 107.179 89.2797 107.256 89.7226C107.294 90.234 107.51 90.7243 107.882 91.0855C108.254 91.4467 108.747 91.6492 109.258 91.6486C109.77 91.648 110.262 91.4442 110.633 91.0821C111.004 90.72 111.219 90.2292 111.256 89.7177C111.332 87.6133 110.228 85.9713 109.179 84.8332C105.235 81.0383 100.682 79.3641 95.1984 79.3057C93.7935 79.3858 92.2246 79.5549 90.4888 80.7086C88.6641 81.8108 87.6467 84.6001 87.8979 86.3571C88.302 89.8986 89.8865 91.9404 91.2731 93.9489C91.5041 94.2627 91.6399 94.5276 91.6542 94.5854C91.6634 94.6086 91.6293 94.5702 91.6089 94.3567C91.5871 94.1567 91.6281 93.7521 91.8029 93.4117C91.9713 93.0699 92.1946 92.8757 92.2831 92.8103C92.3816 92.7388 92.3737 92.756 92.3073 92.7801C92.1759 92.8343 91.8233 92.9281 91.4488 92.989C89.4615 93.3074 86.8208 93.2472 84.1271 93.3636C82.7264 93.4486 81.406 93.443 79.4534 93.9915C78.9486 94.1552 78.3599 94.3514 77.62 94.8791C76.8781 95.35 75.8476 96.7402 75.8393 98.085C75.9428 100.681 76.8592 101.167 77.4195 101.987C78.6973 103.277 78.6962 105.3 77.9427 108.469C77.6568 110.041 76.9906 111.719 77.443 114.367C77.6833 115.697 78.6574 117.125 79.7273 117.818C80.7799 118.544 81.8563 118.86 82.7642 119.058C84.2468 119.368 85.59 119.42 86.961 119.417Z" fill="#0B3D0B"/>
</svg>
